G04 #@! TF.GenerationSoftware,KiCad,Pcbnew,(5.0.2)-1*
G04 #@! TF.CreationDate,2019-02-05T14:57:58-06:00*
G04 #@! TF.ProjectId,esp-8266-temp-sensor,6573702d-3832-4363-962d-74656d702d73,rev?*
G04 #@! TF.SameCoordinates,Original*
G04 #@! TF.FileFunction,Copper,L1,Top*
G04 #@! TF.FilePolarity,Positive*
%FSLAX46Y46*%
G04 Gerber Fmt 4.6, Leading zero omitted, Abs format (unit mm)*
G04 Created by KiCad (PCBNEW (5.0.2)-1) date 2/5/2019 2:57:58 PM*
%MOMM*%
%LPD*%
G01*
G04 APERTURE LIST*
G04 #@! TA.AperFunction,Conductor*
%ADD10C,0.100000*%
G04 #@! TD*
G04 #@! TA.AperFunction,SMDPad,CuDef*
%ADD11C,1.150000*%
G04 #@! TD*
G04 #@! TA.AperFunction,SMDPad,CuDef*
%ADD12R,1.100000X1.100000*%
G04 #@! TD*
G04 #@! TA.AperFunction,SMDPad,CuDef*
%ADD13R,1.200000X1.200000*%
G04 #@! TD*
G04 #@! TA.AperFunction,ComponentPad*
%ADD14R,1.208000X1.208000*%
G04 #@! TD*
G04 #@! TA.AperFunction,ComponentPad*
%ADD15C,1.208000*%
G04 #@! TD*
G04 #@! TA.AperFunction,ComponentPad*
%ADD16C,2.200000*%
G04 #@! TD*
G04 #@! TA.AperFunction,ComponentPad*
%ADD17R,2.200000X2.200000*%
G04 #@! TD*
G04 #@! TA.AperFunction,SMDPad,CuDef*
%ADD18R,1.350000X0.600000*%
G04 #@! TD*
G04 #@! TA.AperFunction,SMDPad,CuDef*
%ADD19R,1.524000X0.457200*%
G04 #@! TD*
G04 #@! TA.AperFunction,SMDPad,CuDef*
%ADD20R,1.485000X0.900000*%
G04 #@! TD*
G04 #@! TA.AperFunction,SMDPad,CuDef*
%ADD21R,4.000000X4.000000*%
G04 #@! TD*
G04 #@! TA.AperFunction,SMDPad,CuDef*
%ADD22R,1.000000X1.900000*%
G04 #@! TD*
G04 #@! TA.AperFunction,ViaPad*
%ADD23C,0.914400*%
G04 #@! TD*
G04 #@! TA.AperFunction,Conductor*
%ADD24C,0.254000*%
G04 #@! TD*
G04 APERTURE END LIST*
D10*
G04 #@! TO.N,GND*
G04 #@! TO.C,C1*
G36*
X116044505Y-114751204D02*
X116068773Y-114754804D01*
X116092572Y-114760765D01*
X116115671Y-114769030D01*
X116137850Y-114779520D01*
X116158893Y-114792132D01*
X116178599Y-114806747D01*
X116196777Y-114823223D01*
X116213253Y-114841401D01*
X116227868Y-114861107D01*
X116240480Y-114882150D01*
X116250970Y-114904329D01*
X116259235Y-114927428D01*
X116265196Y-114951227D01*
X116268796Y-114975495D01*
X116270000Y-114999999D01*
X116270000Y-115650001D01*
X116268796Y-115674505D01*
X116265196Y-115698773D01*
X116259235Y-115722572D01*
X116250970Y-115745671D01*
X116240480Y-115767850D01*
X116227868Y-115788893D01*
X116213253Y-115808599D01*
X116196777Y-115826777D01*
X116178599Y-115843253D01*
X116158893Y-115857868D01*
X116137850Y-115870480D01*
X116115671Y-115880970D01*
X116092572Y-115889235D01*
X116068773Y-115895196D01*
X116044505Y-115898796D01*
X116020001Y-115900000D01*
X115119999Y-115900000D01*
X115095495Y-115898796D01*
X115071227Y-115895196D01*
X115047428Y-115889235D01*
X115024329Y-115880970D01*
X115002150Y-115870480D01*
X114981107Y-115857868D01*
X114961401Y-115843253D01*
X114943223Y-115826777D01*
X114926747Y-115808599D01*
X114912132Y-115788893D01*
X114899520Y-115767850D01*
X114889030Y-115745671D01*
X114880765Y-115722572D01*
X114874804Y-115698773D01*
X114871204Y-115674505D01*
X114870000Y-115650001D01*
X114870000Y-114999999D01*
X114871204Y-114975495D01*
X114874804Y-114951227D01*
X114880765Y-114927428D01*
X114889030Y-114904329D01*
X114899520Y-114882150D01*
X114912132Y-114861107D01*
X114926747Y-114841401D01*
X114943223Y-114823223D01*
X114961401Y-114806747D01*
X114981107Y-114792132D01*
X115002150Y-114779520D01*
X115024329Y-114769030D01*
X115047428Y-114760765D01*
X115071227Y-114754804D01*
X115095495Y-114751204D01*
X115119999Y-114750000D01*
X116020001Y-114750000D01*
X116044505Y-114751204D01*
X116044505Y-114751204D01*
G37*
D11*
G04 #@! TD*
G04 #@! TO.P,C1,2*
G04 #@! TO.N,GND*
X115570000Y-115325000D03*
D10*
G04 #@! TO.N,VIN*
G04 #@! TO.C,C1*
G36*
X116044505Y-112701204D02*
X116068773Y-112704804D01*
X116092572Y-112710765D01*
X116115671Y-112719030D01*
X116137850Y-112729520D01*
X116158893Y-112742132D01*
X116178599Y-112756747D01*
X116196777Y-112773223D01*
X116213253Y-112791401D01*
X116227868Y-112811107D01*
X116240480Y-112832150D01*
X116250970Y-112854329D01*
X116259235Y-112877428D01*
X116265196Y-112901227D01*
X116268796Y-112925495D01*
X116270000Y-112949999D01*
X116270000Y-113600001D01*
X116268796Y-113624505D01*
X116265196Y-113648773D01*
X116259235Y-113672572D01*
X116250970Y-113695671D01*
X116240480Y-113717850D01*
X116227868Y-113738893D01*
X116213253Y-113758599D01*
X116196777Y-113776777D01*
X116178599Y-113793253D01*
X116158893Y-113807868D01*
X116137850Y-113820480D01*
X116115671Y-113830970D01*
X116092572Y-113839235D01*
X116068773Y-113845196D01*
X116044505Y-113848796D01*
X116020001Y-113850000D01*
X115119999Y-113850000D01*
X115095495Y-113848796D01*
X115071227Y-113845196D01*
X115047428Y-113839235D01*
X115024329Y-113830970D01*
X115002150Y-113820480D01*
X114981107Y-113807868D01*
X114961401Y-113793253D01*
X114943223Y-113776777D01*
X114926747Y-113758599D01*
X114912132Y-113738893D01*
X114899520Y-113717850D01*
X114889030Y-113695671D01*
X114880765Y-113672572D01*
X114874804Y-113648773D01*
X114871204Y-113624505D01*
X114870000Y-113600001D01*
X114870000Y-112949999D01*
X114871204Y-112925495D01*
X114874804Y-112901227D01*
X114880765Y-112877428D01*
X114889030Y-112854329D01*
X114899520Y-112832150D01*
X114912132Y-112811107D01*
X114926747Y-112791401D01*
X114943223Y-112773223D01*
X114961401Y-112756747D01*
X114981107Y-112742132D01*
X115002150Y-112729520D01*
X115024329Y-112719030D01*
X115047428Y-112710765D01*
X115071227Y-112704804D01*
X115095495Y-112701204D01*
X115119999Y-112700000D01*
X116020001Y-112700000D01*
X116044505Y-112701204D01*
X116044505Y-112701204D01*
G37*
D11*
G04 #@! TD*
G04 #@! TO.P,C1,1*
G04 #@! TO.N,VIN*
X115570000Y-113275000D03*
D10*
G04 #@! TO.N,+3V3*
G04 #@! TO.C,C2*
G36*
X128744505Y-112701204D02*
X128768773Y-112704804D01*
X128792572Y-112710765D01*
X128815671Y-112719030D01*
X128837850Y-112729520D01*
X128858893Y-112742132D01*
X128878599Y-112756747D01*
X128896777Y-112773223D01*
X128913253Y-112791401D01*
X128927868Y-112811107D01*
X128940480Y-112832150D01*
X128950970Y-112854329D01*
X128959235Y-112877428D01*
X128965196Y-112901227D01*
X128968796Y-112925495D01*
X128970000Y-112949999D01*
X128970000Y-113600001D01*
X128968796Y-113624505D01*
X128965196Y-113648773D01*
X128959235Y-113672572D01*
X128950970Y-113695671D01*
X128940480Y-113717850D01*
X128927868Y-113738893D01*
X128913253Y-113758599D01*
X128896777Y-113776777D01*
X128878599Y-113793253D01*
X128858893Y-113807868D01*
X128837850Y-113820480D01*
X128815671Y-113830970D01*
X128792572Y-113839235D01*
X128768773Y-113845196D01*
X128744505Y-113848796D01*
X128720001Y-113850000D01*
X127819999Y-113850000D01*
X127795495Y-113848796D01*
X127771227Y-113845196D01*
X127747428Y-113839235D01*
X127724329Y-113830970D01*
X127702150Y-113820480D01*
X127681107Y-113807868D01*
X127661401Y-113793253D01*
X127643223Y-113776777D01*
X127626747Y-113758599D01*
X127612132Y-113738893D01*
X127599520Y-113717850D01*
X127589030Y-113695671D01*
X127580765Y-113672572D01*
X127574804Y-113648773D01*
X127571204Y-113624505D01*
X127570000Y-113600001D01*
X127570000Y-112949999D01*
X127571204Y-112925495D01*
X127574804Y-112901227D01*
X127580765Y-112877428D01*
X127589030Y-112854329D01*
X127599520Y-112832150D01*
X127612132Y-112811107D01*
X127626747Y-112791401D01*
X127643223Y-112773223D01*
X127661401Y-112756747D01*
X127681107Y-112742132D01*
X127702150Y-112729520D01*
X127724329Y-112719030D01*
X127747428Y-112710765D01*
X127771227Y-112704804D01*
X127795495Y-112701204D01*
X127819999Y-112700000D01*
X128720001Y-112700000D01*
X128744505Y-112701204D01*
X128744505Y-112701204D01*
G37*
D11*
G04 #@! TD*
G04 #@! TO.P,C2,1*
G04 #@! TO.N,+3V3*
X128270000Y-113275000D03*
D10*
G04 #@! TO.N,GND*
G04 #@! TO.C,C2*
G36*
X128744505Y-114751204D02*
X128768773Y-114754804D01*
X128792572Y-114760765D01*
X128815671Y-114769030D01*
X128837850Y-114779520D01*
X128858893Y-114792132D01*
X128878599Y-114806747D01*
X128896777Y-114823223D01*
X128913253Y-114841401D01*
X128927868Y-114861107D01*
X128940480Y-114882150D01*
X128950970Y-114904329D01*
X128959235Y-114927428D01*
X128965196Y-114951227D01*
X128968796Y-114975495D01*
X128970000Y-114999999D01*
X128970000Y-115650001D01*
X128968796Y-115674505D01*
X128965196Y-115698773D01*
X128959235Y-115722572D01*
X128950970Y-115745671D01*
X128940480Y-115767850D01*
X128927868Y-115788893D01*
X128913253Y-115808599D01*
X128896777Y-115826777D01*
X128878599Y-115843253D01*
X128858893Y-115857868D01*
X128837850Y-115870480D01*
X128815671Y-115880970D01*
X128792572Y-115889235D01*
X128768773Y-115895196D01*
X128744505Y-115898796D01*
X128720001Y-115900000D01*
X127819999Y-115900000D01*
X127795495Y-115898796D01*
X127771227Y-115895196D01*
X127747428Y-115889235D01*
X127724329Y-115880970D01*
X127702150Y-115870480D01*
X127681107Y-115857868D01*
X127661401Y-115843253D01*
X127643223Y-115826777D01*
X127626747Y-115808599D01*
X127612132Y-115788893D01*
X127599520Y-115767850D01*
X127589030Y-115745671D01*
X127580765Y-115722572D01*
X127574804Y-115698773D01*
X127571204Y-115674505D01*
X127570000Y-115650001D01*
X127570000Y-114999999D01*
X127571204Y-114975495D01*
X127574804Y-114951227D01*
X127580765Y-114927428D01*
X127589030Y-114904329D01*
X127599520Y-114882150D01*
X127612132Y-114861107D01*
X127626747Y-114841401D01*
X127643223Y-114823223D01*
X127661401Y-114806747D01*
X127681107Y-114792132D01*
X127702150Y-114779520D01*
X127724329Y-114769030D01*
X127747428Y-114760765D01*
X127771227Y-114754804D01*
X127795495Y-114751204D01*
X127819999Y-114750000D01*
X128720001Y-114750000D01*
X128744505Y-114751204D01*
X128744505Y-114751204D01*
G37*
D11*
G04 #@! TD*
G04 #@! TO.P,C2,2*
G04 #@! TO.N,GND*
X128270000Y-115325000D03*
D10*
G04 #@! TO.N,GND*
G04 #@! TO.C,C3*
G36*
X104734505Y-78041204D02*
X104758773Y-78044804D01*
X104782572Y-78050765D01*
X104805671Y-78059030D01*
X104827850Y-78069520D01*
X104848893Y-78082132D01*
X104868599Y-78096747D01*
X104886777Y-78113223D01*
X104903253Y-78131401D01*
X104917868Y-78151107D01*
X104930480Y-78172150D01*
X104940970Y-78194329D01*
X104949235Y-78217428D01*
X104955196Y-78241227D01*
X104958796Y-78265495D01*
X104960000Y-78289999D01*
X104960000Y-79190001D01*
X104958796Y-79214505D01*
X104955196Y-79238773D01*
X104949235Y-79262572D01*
X104940970Y-79285671D01*
X104930480Y-79307850D01*
X104917868Y-79328893D01*
X104903253Y-79348599D01*
X104886777Y-79366777D01*
X104868599Y-79383253D01*
X104848893Y-79397868D01*
X104827850Y-79410480D01*
X104805671Y-79420970D01*
X104782572Y-79429235D01*
X104758773Y-79435196D01*
X104734505Y-79438796D01*
X104710001Y-79440000D01*
X104059999Y-79440000D01*
X104035495Y-79438796D01*
X104011227Y-79435196D01*
X103987428Y-79429235D01*
X103964329Y-79420970D01*
X103942150Y-79410480D01*
X103921107Y-79397868D01*
X103901401Y-79383253D01*
X103883223Y-79366777D01*
X103866747Y-79348599D01*
X103852132Y-79328893D01*
X103839520Y-79307850D01*
X103829030Y-79285671D01*
X103820765Y-79262572D01*
X103814804Y-79238773D01*
X103811204Y-79214505D01*
X103810000Y-79190001D01*
X103810000Y-78289999D01*
X103811204Y-78265495D01*
X103814804Y-78241227D01*
X103820765Y-78217428D01*
X103829030Y-78194329D01*
X103839520Y-78172150D01*
X103852132Y-78151107D01*
X103866747Y-78131401D01*
X103883223Y-78113223D01*
X103901401Y-78096747D01*
X103921107Y-78082132D01*
X103942150Y-78069520D01*
X103964329Y-78059030D01*
X103987428Y-78050765D01*
X104011227Y-78044804D01*
X104035495Y-78041204D01*
X104059999Y-78040000D01*
X104710001Y-78040000D01*
X104734505Y-78041204D01*
X104734505Y-78041204D01*
G37*
D11*
G04 #@! TD*
G04 #@! TO.P,C3,2*
G04 #@! TO.N,GND*
X104385000Y-78740000D03*
D10*
G04 #@! TO.N,+3V3*
G04 #@! TO.C,C3*
G36*
X106784505Y-78041204D02*
X106808773Y-78044804D01*
X106832572Y-78050765D01*
X106855671Y-78059030D01*
X106877850Y-78069520D01*
X106898893Y-78082132D01*
X106918599Y-78096747D01*
X106936777Y-78113223D01*
X106953253Y-78131401D01*
X106967868Y-78151107D01*
X106980480Y-78172150D01*
X106990970Y-78194329D01*
X106999235Y-78217428D01*
X107005196Y-78241227D01*
X107008796Y-78265495D01*
X107010000Y-78289999D01*
X107010000Y-79190001D01*
X107008796Y-79214505D01*
X107005196Y-79238773D01*
X106999235Y-79262572D01*
X106990970Y-79285671D01*
X106980480Y-79307850D01*
X106967868Y-79328893D01*
X106953253Y-79348599D01*
X106936777Y-79366777D01*
X106918599Y-79383253D01*
X106898893Y-79397868D01*
X106877850Y-79410480D01*
X106855671Y-79420970D01*
X106832572Y-79429235D01*
X106808773Y-79435196D01*
X106784505Y-79438796D01*
X106760001Y-79440000D01*
X106109999Y-79440000D01*
X106085495Y-79438796D01*
X106061227Y-79435196D01*
X106037428Y-79429235D01*
X106014329Y-79420970D01*
X105992150Y-79410480D01*
X105971107Y-79397868D01*
X105951401Y-79383253D01*
X105933223Y-79366777D01*
X105916747Y-79348599D01*
X105902132Y-79328893D01*
X105889520Y-79307850D01*
X105879030Y-79285671D01*
X105870765Y-79262572D01*
X105864804Y-79238773D01*
X105861204Y-79214505D01*
X105860000Y-79190001D01*
X105860000Y-78289999D01*
X105861204Y-78265495D01*
X105864804Y-78241227D01*
X105870765Y-78217428D01*
X105879030Y-78194329D01*
X105889520Y-78172150D01*
X105902132Y-78151107D01*
X105916747Y-78131401D01*
X105933223Y-78113223D01*
X105951401Y-78096747D01*
X105971107Y-78082132D01*
X105992150Y-78069520D01*
X106014329Y-78059030D01*
X106037428Y-78050765D01*
X106061227Y-78044804D01*
X106085495Y-78041204D01*
X106109999Y-78040000D01*
X106760001Y-78040000D01*
X106784505Y-78041204D01*
X106784505Y-78041204D01*
G37*
D11*
G04 #@! TD*
G04 #@! TO.P,C3,1*
G04 #@! TO.N,+3V3*
X106435000Y-78740000D03*
D10*
G04 #@! TO.N,Net-(C4-Pad1)*
G04 #@! TO.C,C4*
G36*
X134724505Y-93281204D02*
X134748773Y-93284804D01*
X134772572Y-93290765D01*
X134795671Y-93299030D01*
X134817850Y-93309520D01*
X134838893Y-93322132D01*
X134858599Y-93336747D01*
X134876777Y-93353223D01*
X134893253Y-93371401D01*
X134907868Y-93391107D01*
X134920480Y-93412150D01*
X134930970Y-93434329D01*
X134939235Y-93457428D01*
X134945196Y-93481227D01*
X134948796Y-93505495D01*
X134950000Y-93529999D01*
X134950000Y-94430001D01*
X134948796Y-94454505D01*
X134945196Y-94478773D01*
X134939235Y-94502572D01*
X134930970Y-94525671D01*
X134920480Y-94547850D01*
X134907868Y-94568893D01*
X134893253Y-94588599D01*
X134876777Y-94606777D01*
X134858599Y-94623253D01*
X134838893Y-94637868D01*
X134817850Y-94650480D01*
X134795671Y-94660970D01*
X134772572Y-94669235D01*
X134748773Y-94675196D01*
X134724505Y-94678796D01*
X134700001Y-94680000D01*
X134049999Y-94680000D01*
X134025495Y-94678796D01*
X134001227Y-94675196D01*
X133977428Y-94669235D01*
X133954329Y-94660970D01*
X133932150Y-94650480D01*
X133911107Y-94637868D01*
X133891401Y-94623253D01*
X133873223Y-94606777D01*
X133856747Y-94588599D01*
X133842132Y-94568893D01*
X133829520Y-94547850D01*
X133819030Y-94525671D01*
X133810765Y-94502572D01*
X133804804Y-94478773D01*
X133801204Y-94454505D01*
X133800000Y-94430001D01*
X133800000Y-93529999D01*
X133801204Y-93505495D01*
X133804804Y-93481227D01*
X133810765Y-93457428D01*
X133819030Y-93434329D01*
X133829520Y-93412150D01*
X133842132Y-93391107D01*
X133856747Y-93371401D01*
X133873223Y-93353223D01*
X133891401Y-93336747D01*
X133911107Y-93322132D01*
X133932150Y-93309520D01*
X133954329Y-93299030D01*
X133977428Y-93290765D01*
X134001227Y-93284804D01*
X134025495Y-93281204D01*
X134049999Y-93280000D01*
X134700001Y-93280000D01*
X134724505Y-93281204D01*
X134724505Y-93281204D01*
G37*
D11*
G04 #@! TD*
G04 #@! TO.P,C4,1*
G04 #@! TO.N,Net-(C4-Pad1)*
X134375000Y-93980000D03*
D10*
G04 #@! TO.N,GND*
G04 #@! TO.C,C4*
G36*
X132674505Y-93281204D02*
X132698773Y-93284804D01*
X132722572Y-93290765D01*
X132745671Y-93299030D01*
X132767850Y-93309520D01*
X132788893Y-93322132D01*
X132808599Y-93336747D01*
X132826777Y-93353223D01*
X132843253Y-93371401D01*
X132857868Y-93391107D01*
X132870480Y-93412150D01*
X132880970Y-93434329D01*
X132889235Y-93457428D01*
X132895196Y-93481227D01*
X132898796Y-93505495D01*
X132900000Y-93529999D01*
X132900000Y-94430001D01*
X132898796Y-94454505D01*
X132895196Y-94478773D01*
X132889235Y-94502572D01*
X132880970Y-94525671D01*
X132870480Y-94547850D01*
X132857868Y-94568893D01*
X132843253Y-94588599D01*
X132826777Y-94606777D01*
X132808599Y-94623253D01*
X132788893Y-94637868D01*
X132767850Y-94650480D01*
X132745671Y-94660970D01*
X132722572Y-94669235D01*
X132698773Y-94675196D01*
X132674505Y-94678796D01*
X132650001Y-94680000D01*
X131999999Y-94680000D01*
X131975495Y-94678796D01*
X131951227Y-94675196D01*
X131927428Y-94669235D01*
X131904329Y-94660970D01*
X131882150Y-94650480D01*
X131861107Y-94637868D01*
X131841401Y-94623253D01*
X131823223Y-94606777D01*
X131806747Y-94588599D01*
X131792132Y-94568893D01*
X131779520Y-94547850D01*
X131769030Y-94525671D01*
X131760765Y-94502572D01*
X131754804Y-94478773D01*
X131751204Y-94454505D01*
X131750000Y-94430001D01*
X131750000Y-93529999D01*
X131751204Y-93505495D01*
X131754804Y-93481227D01*
X131760765Y-93457428D01*
X131769030Y-93434329D01*
X131779520Y-93412150D01*
X131792132Y-93391107D01*
X131806747Y-93371401D01*
X131823223Y-93353223D01*
X131841401Y-93336747D01*
X131861107Y-93322132D01*
X131882150Y-93309520D01*
X131904329Y-93299030D01*
X131927428Y-93290765D01*
X131951227Y-93284804D01*
X131975495Y-93281204D01*
X131999999Y-93280000D01*
X132650001Y-93280000D01*
X132674505Y-93281204D01*
X132674505Y-93281204D01*
G37*
D11*
G04 #@! TD*
G04 #@! TO.P,C4,2*
G04 #@! TO.N,GND*
X132325000Y-93980000D03*
D12*
G04 #@! TO.P,D1,1*
G04 #@! TO.N,VIN*
X110490000Y-112900000D03*
G04 #@! TO.P,D1,2*
G04 #@! TO.N,Net-(D1-Pad2)*
X110490000Y-115700000D03*
G04 #@! TD*
D13*
G04 #@! TO.P,D2,2*
G04 #@! TO.N,IO5*
X132300000Y-82550000D03*
G04 #@! TO.P,D2,1*
G04 #@! TO.N,Net-(D2-Pad1)*
X134400000Y-82550000D03*
G04 #@! TD*
D14*
G04 #@! TO.P,J2,1*
G04 #@! TO.N,GND*
X111490000Y-120650000D03*
D15*
G04 #@! TO.P,J2,2*
G04 #@! TO.N,Net-(D1-Pad2)*
X109490000Y-120650000D03*
G04 #@! TD*
D10*
G04 #@! TO.N,+3V3*
G04 #@! TO.C,R1*
G36*
X134724505Y-85661204D02*
X134748773Y-85664804D01*
X134772572Y-85670765D01*
X134795671Y-85679030D01*
X134817850Y-85689520D01*
X134838893Y-85702132D01*
X134858599Y-85716747D01*
X134876777Y-85733223D01*
X134893253Y-85751401D01*
X134907868Y-85771107D01*
X134920480Y-85792150D01*
X134930970Y-85814329D01*
X134939235Y-85837428D01*
X134945196Y-85861227D01*
X134948796Y-85885495D01*
X134950000Y-85909999D01*
X134950000Y-86810001D01*
X134948796Y-86834505D01*
X134945196Y-86858773D01*
X134939235Y-86882572D01*
X134930970Y-86905671D01*
X134920480Y-86927850D01*
X134907868Y-86948893D01*
X134893253Y-86968599D01*
X134876777Y-86986777D01*
X134858599Y-87003253D01*
X134838893Y-87017868D01*
X134817850Y-87030480D01*
X134795671Y-87040970D01*
X134772572Y-87049235D01*
X134748773Y-87055196D01*
X134724505Y-87058796D01*
X134700001Y-87060000D01*
X134049999Y-87060000D01*
X134025495Y-87058796D01*
X134001227Y-87055196D01*
X133977428Y-87049235D01*
X133954329Y-87040970D01*
X133932150Y-87030480D01*
X133911107Y-87017868D01*
X133891401Y-87003253D01*
X133873223Y-86986777D01*
X133856747Y-86968599D01*
X133842132Y-86948893D01*
X133829520Y-86927850D01*
X133819030Y-86905671D01*
X133810765Y-86882572D01*
X133804804Y-86858773D01*
X133801204Y-86834505D01*
X133800000Y-86810001D01*
X133800000Y-85909999D01*
X133801204Y-85885495D01*
X133804804Y-85861227D01*
X133810765Y-85837428D01*
X133819030Y-85814329D01*
X133829520Y-85792150D01*
X133842132Y-85771107D01*
X133856747Y-85751401D01*
X133873223Y-85733223D01*
X133891401Y-85716747D01*
X133911107Y-85702132D01*
X133932150Y-85689520D01*
X133954329Y-85679030D01*
X133977428Y-85670765D01*
X134001227Y-85664804D01*
X134025495Y-85661204D01*
X134049999Y-85660000D01*
X134700001Y-85660000D01*
X134724505Y-85661204D01*
X134724505Y-85661204D01*
G37*
D11*
G04 #@! TD*
G04 #@! TO.P,R1,1*
G04 #@! TO.N,+3V3*
X134375000Y-86360000D03*
D10*
G04 #@! TO.N,Net-(D2-Pad1)*
G04 #@! TO.C,R1*
G36*
X132674505Y-85661204D02*
X132698773Y-85664804D01*
X132722572Y-85670765D01*
X132745671Y-85679030D01*
X132767850Y-85689520D01*
X132788893Y-85702132D01*
X132808599Y-85716747D01*
X132826777Y-85733223D01*
X132843253Y-85751401D01*
X132857868Y-85771107D01*
X132870480Y-85792150D01*
X132880970Y-85814329D01*
X132889235Y-85837428D01*
X132895196Y-85861227D01*
X132898796Y-85885495D01*
X132900000Y-85909999D01*
X132900000Y-86810001D01*
X132898796Y-86834505D01*
X132895196Y-86858773D01*
X132889235Y-86882572D01*
X132880970Y-86905671D01*
X132870480Y-86927850D01*
X132857868Y-86948893D01*
X132843253Y-86968599D01*
X132826777Y-86986777D01*
X132808599Y-87003253D01*
X132788893Y-87017868D01*
X132767850Y-87030480D01*
X132745671Y-87040970D01*
X132722572Y-87049235D01*
X132698773Y-87055196D01*
X132674505Y-87058796D01*
X132650001Y-87060000D01*
X131999999Y-87060000D01*
X131975495Y-87058796D01*
X131951227Y-87055196D01*
X131927428Y-87049235D01*
X131904329Y-87040970D01*
X131882150Y-87030480D01*
X131861107Y-87017868D01*
X131841401Y-87003253D01*
X131823223Y-86986777D01*
X131806747Y-86968599D01*
X131792132Y-86948893D01*
X131779520Y-86927850D01*
X131769030Y-86905671D01*
X131760765Y-86882572D01*
X131754804Y-86858773D01*
X131751204Y-86834505D01*
X131750000Y-86810001D01*
X131750000Y-85909999D01*
X131751204Y-85885495D01*
X131754804Y-85861227D01*
X131760765Y-85837428D01*
X131769030Y-85814329D01*
X131779520Y-85792150D01*
X131792132Y-85771107D01*
X131806747Y-85751401D01*
X131823223Y-85733223D01*
X131841401Y-85716747D01*
X131861107Y-85702132D01*
X131882150Y-85689520D01*
X131904329Y-85679030D01*
X131927428Y-85670765D01*
X131951227Y-85664804D01*
X131975495Y-85661204D01*
X131999999Y-85660000D01*
X132650001Y-85660000D01*
X132674505Y-85661204D01*
X132674505Y-85661204D01*
G37*
D11*
G04 #@! TD*
G04 #@! TO.P,R1,2*
G04 #@! TO.N,Net-(D2-Pad1)*
X132325000Y-86360000D03*
D10*
G04 #@! TO.N,VIN*
G04 #@! TO.C,R2*
G36*
X113504505Y-112701204D02*
X113528773Y-112704804D01*
X113552572Y-112710765D01*
X113575671Y-112719030D01*
X113597850Y-112729520D01*
X113618893Y-112742132D01*
X113638599Y-112756747D01*
X113656777Y-112773223D01*
X113673253Y-112791401D01*
X113687868Y-112811107D01*
X113700480Y-112832150D01*
X113710970Y-112854329D01*
X113719235Y-112877428D01*
X113725196Y-112901227D01*
X113728796Y-112925495D01*
X113730000Y-112949999D01*
X113730000Y-113600001D01*
X113728796Y-113624505D01*
X113725196Y-113648773D01*
X113719235Y-113672572D01*
X113710970Y-113695671D01*
X113700480Y-113717850D01*
X113687868Y-113738893D01*
X113673253Y-113758599D01*
X113656777Y-113776777D01*
X113638599Y-113793253D01*
X113618893Y-113807868D01*
X113597850Y-113820480D01*
X113575671Y-113830970D01*
X113552572Y-113839235D01*
X113528773Y-113845196D01*
X113504505Y-113848796D01*
X113480001Y-113850000D01*
X112579999Y-113850000D01*
X112555495Y-113848796D01*
X112531227Y-113845196D01*
X112507428Y-113839235D01*
X112484329Y-113830970D01*
X112462150Y-113820480D01*
X112441107Y-113807868D01*
X112421401Y-113793253D01*
X112403223Y-113776777D01*
X112386747Y-113758599D01*
X112372132Y-113738893D01*
X112359520Y-113717850D01*
X112349030Y-113695671D01*
X112340765Y-113672572D01*
X112334804Y-113648773D01*
X112331204Y-113624505D01*
X112330000Y-113600001D01*
X112330000Y-112949999D01*
X112331204Y-112925495D01*
X112334804Y-112901227D01*
X112340765Y-112877428D01*
X112349030Y-112854329D01*
X112359520Y-112832150D01*
X112372132Y-112811107D01*
X112386747Y-112791401D01*
X112403223Y-112773223D01*
X112421401Y-112756747D01*
X112441107Y-112742132D01*
X112462150Y-112729520D01*
X112484329Y-112719030D01*
X112507428Y-112710765D01*
X112531227Y-112704804D01*
X112555495Y-112701204D01*
X112579999Y-112700000D01*
X113480001Y-112700000D01*
X113504505Y-112701204D01*
X113504505Y-112701204D01*
G37*
D11*
G04 #@! TD*
G04 #@! TO.P,R2,1*
G04 #@! TO.N,VIN*
X113030000Y-113275000D03*
D10*
G04 #@! TO.N,Net-(R2-Pad2)*
G04 #@! TO.C,R2*
G36*
X113504505Y-114751204D02*
X113528773Y-114754804D01*
X113552572Y-114760765D01*
X113575671Y-114769030D01*
X113597850Y-114779520D01*
X113618893Y-114792132D01*
X113638599Y-114806747D01*
X113656777Y-114823223D01*
X113673253Y-114841401D01*
X113687868Y-114861107D01*
X113700480Y-114882150D01*
X113710970Y-114904329D01*
X113719235Y-114927428D01*
X113725196Y-114951227D01*
X113728796Y-114975495D01*
X113730000Y-114999999D01*
X113730000Y-115650001D01*
X113728796Y-115674505D01*
X113725196Y-115698773D01*
X113719235Y-115722572D01*
X113710970Y-115745671D01*
X113700480Y-115767850D01*
X113687868Y-115788893D01*
X113673253Y-115808599D01*
X113656777Y-115826777D01*
X113638599Y-115843253D01*
X113618893Y-115857868D01*
X113597850Y-115870480D01*
X113575671Y-115880970D01*
X113552572Y-115889235D01*
X113528773Y-115895196D01*
X113504505Y-115898796D01*
X113480001Y-115900000D01*
X112579999Y-115900000D01*
X112555495Y-115898796D01*
X112531227Y-115895196D01*
X112507428Y-115889235D01*
X112484329Y-115880970D01*
X112462150Y-115870480D01*
X112441107Y-115857868D01*
X112421401Y-115843253D01*
X112403223Y-115826777D01*
X112386747Y-115808599D01*
X112372132Y-115788893D01*
X112359520Y-115767850D01*
X112349030Y-115745671D01*
X112340765Y-115722572D01*
X112334804Y-115698773D01*
X112331204Y-115674505D01*
X112330000Y-115650001D01*
X112330000Y-114999999D01*
X112331204Y-114975495D01*
X112334804Y-114951227D01*
X112340765Y-114927428D01*
X112349030Y-114904329D01*
X112359520Y-114882150D01*
X112372132Y-114861107D01*
X112386747Y-114841401D01*
X112403223Y-114823223D01*
X112421401Y-114806747D01*
X112441107Y-114792132D01*
X112462150Y-114779520D01*
X112484329Y-114769030D01*
X112507428Y-114760765D01*
X112531227Y-114754804D01*
X112555495Y-114751204D01*
X112579999Y-114750000D01*
X113480001Y-114750000D01*
X113504505Y-114751204D01*
X113504505Y-114751204D01*
G37*
D11*
G04 #@! TD*
G04 #@! TO.P,R2,2*
G04 #@! TO.N,Net-(R2-Pad2)*
X113030000Y-115325000D03*
D10*
G04 #@! TO.N,SDA*
G04 #@! TO.C,R3*
G36*
X126204505Y-105081204D02*
X126228773Y-105084804D01*
X126252572Y-105090765D01*
X126275671Y-105099030D01*
X126297850Y-105109520D01*
X126318893Y-105122132D01*
X126338599Y-105136747D01*
X126356777Y-105153223D01*
X126373253Y-105171401D01*
X126387868Y-105191107D01*
X126400480Y-105212150D01*
X126410970Y-105234329D01*
X126419235Y-105257428D01*
X126425196Y-105281227D01*
X126428796Y-105305495D01*
X126430000Y-105329999D01*
X126430000Y-105980001D01*
X126428796Y-106004505D01*
X126425196Y-106028773D01*
X126419235Y-106052572D01*
X126410970Y-106075671D01*
X126400480Y-106097850D01*
X126387868Y-106118893D01*
X126373253Y-106138599D01*
X126356777Y-106156777D01*
X126338599Y-106173253D01*
X126318893Y-106187868D01*
X126297850Y-106200480D01*
X126275671Y-106210970D01*
X126252572Y-106219235D01*
X126228773Y-106225196D01*
X126204505Y-106228796D01*
X126180001Y-106230000D01*
X125279999Y-106230000D01*
X125255495Y-106228796D01*
X125231227Y-106225196D01*
X125207428Y-106219235D01*
X125184329Y-106210970D01*
X125162150Y-106200480D01*
X125141107Y-106187868D01*
X125121401Y-106173253D01*
X125103223Y-106156777D01*
X125086747Y-106138599D01*
X125072132Y-106118893D01*
X125059520Y-106097850D01*
X125049030Y-106075671D01*
X125040765Y-106052572D01*
X125034804Y-106028773D01*
X125031204Y-106004505D01*
X125030000Y-105980001D01*
X125030000Y-105329999D01*
X125031204Y-105305495D01*
X125034804Y-105281227D01*
X125040765Y-105257428D01*
X125049030Y-105234329D01*
X125059520Y-105212150D01*
X125072132Y-105191107D01*
X125086747Y-105171401D01*
X125103223Y-105153223D01*
X125121401Y-105136747D01*
X125141107Y-105122132D01*
X125162150Y-105109520D01*
X125184329Y-105099030D01*
X125207428Y-105090765D01*
X125231227Y-105084804D01*
X125255495Y-105081204D01*
X125279999Y-105080000D01*
X126180001Y-105080000D01*
X126204505Y-105081204D01*
X126204505Y-105081204D01*
G37*
D11*
G04 #@! TD*
G04 #@! TO.P,R3,2*
G04 #@! TO.N,SDA*
X125730000Y-105655000D03*
D10*
G04 #@! TO.N,+3V3*
G04 #@! TO.C,R3*
G36*
X126204505Y-107131204D02*
X126228773Y-107134804D01*
X126252572Y-107140765D01*
X126275671Y-107149030D01*
X126297850Y-107159520D01*
X126318893Y-107172132D01*
X126338599Y-107186747D01*
X126356777Y-107203223D01*
X126373253Y-107221401D01*
X126387868Y-107241107D01*
X126400480Y-107262150D01*
X126410970Y-107284329D01*
X126419235Y-107307428D01*
X126425196Y-107331227D01*
X126428796Y-107355495D01*
X126430000Y-107379999D01*
X126430000Y-108030001D01*
X126428796Y-108054505D01*
X126425196Y-108078773D01*
X126419235Y-108102572D01*
X126410970Y-108125671D01*
X126400480Y-108147850D01*
X126387868Y-108168893D01*
X126373253Y-108188599D01*
X126356777Y-108206777D01*
X126338599Y-108223253D01*
X126318893Y-108237868D01*
X126297850Y-108250480D01*
X126275671Y-108260970D01*
X126252572Y-108269235D01*
X126228773Y-108275196D01*
X126204505Y-108278796D01*
X126180001Y-108280000D01*
X125279999Y-108280000D01*
X125255495Y-108278796D01*
X125231227Y-108275196D01*
X125207428Y-108269235D01*
X125184329Y-108260970D01*
X125162150Y-108250480D01*
X125141107Y-108237868D01*
X125121401Y-108223253D01*
X125103223Y-108206777D01*
X125086747Y-108188599D01*
X125072132Y-108168893D01*
X125059520Y-108147850D01*
X125049030Y-108125671D01*
X125040765Y-108102572D01*
X125034804Y-108078773D01*
X125031204Y-108054505D01*
X125030000Y-108030001D01*
X125030000Y-107379999D01*
X125031204Y-107355495D01*
X125034804Y-107331227D01*
X125040765Y-107307428D01*
X125049030Y-107284329D01*
X125059520Y-107262150D01*
X125072132Y-107241107D01*
X125086747Y-107221401D01*
X125103223Y-107203223D01*
X125121401Y-107186747D01*
X125141107Y-107172132D01*
X125162150Y-107159520D01*
X125184329Y-107149030D01*
X125207428Y-107140765D01*
X125231227Y-107134804D01*
X125255495Y-107131204D01*
X125279999Y-107130000D01*
X126180001Y-107130000D01*
X126204505Y-107131204D01*
X126204505Y-107131204D01*
G37*
D11*
G04 #@! TD*
G04 #@! TO.P,R3,1*
G04 #@! TO.N,+3V3*
X125730000Y-107705000D03*
D10*
G04 #@! TO.N,+3V3*
G04 #@! TO.C,R4*
G36*
X128744505Y-107131204D02*
X128768773Y-107134804D01*
X128792572Y-107140765D01*
X128815671Y-107149030D01*
X128837850Y-107159520D01*
X128858893Y-107172132D01*
X128878599Y-107186747D01*
X128896777Y-107203223D01*
X128913253Y-107221401D01*
X128927868Y-107241107D01*
X128940480Y-107262150D01*
X128950970Y-107284329D01*
X128959235Y-107307428D01*
X128965196Y-107331227D01*
X128968796Y-107355495D01*
X128970000Y-107379999D01*
X128970000Y-108030001D01*
X128968796Y-108054505D01*
X128965196Y-108078773D01*
X128959235Y-108102572D01*
X128950970Y-108125671D01*
X128940480Y-108147850D01*
X128927868Y-108168893D01*
X128913253Y-108188599D01*
X128896777Y-108206777D01*
X128878599Y-108223253D01*
X128858893Y-108237868D01*
X128837850Y-108250480D01*
X128815671Y-108260970D01*
X128792572Y-108269235D01*
X128768773Y-108275196D01*
X128744505Y-108278796D01*
X128720001Y-108280000D01*
X127819999Y-108280000D01*
X127795495Y-108278796D01*
X127771227Y-108275196D01*
X127747428Y-108269235D01*
X127724329Y-108260970D01*
X127702150Y-108250480D01*
X127681107Y-108237868D01*
X127661401Y-108223253D01*
X127643223Y-108206777D01*
X127626747Y-108188599D01*
X127612132Y-108168893D01*
X127599520Y-108147850D01*
X127589030Y-108125671D01*
X127580765Y-108102572D01*
X127574804Y-108078773D01*
X127571204Y-108054505D01*
X127570000Y-108030001D01*
X127570000Y-107379999D01*
X127571204Y-107355495D01*
X127574804Y-107331227D01*
X127580765Y-107307428D01*
X127589030Y-107284329D01*
X127599520Y-107262150D01*
X127612132Y-107241107D01*
X127626747Y-107221401D01*
X127643223Y-107203223D01*
X127661401Y-107186747D01*
X127681107Y-107172132D01*
X127702150Y-107159520D01*
X127724329Y-107149030D01*
X127747428Y-107140765D01*
X127771227Y-107134804D01*
X127795495Y-107131204D01*
X127819999Y-107130000D01*
X128720001Y-107130000D01*
X128744505Y-107131204D01*
X128744505Y-107131204D01*
G37*
D11*
G04 #@! TD*
G04 #@! TO.P,R4,1*
G04 #@! TO.N,+3V3*
X128270000Y-107705000D03*
D10*
G04 #@! TO.N,SCL*
G04 #@! TO.C,R4*
G36*
X128744505Y-105081204D02*
X128768773Y-105084804D01*
X128792572Y-105090765D01*
X128815671Y-105099030D01*
X128837850Y-105109520D01*
X128858893Y-105122132D01*
X128878599Y-105136747D01*
X128896777Y-105153223D01*
X128913253Y-105171401D01*
X128927868Y-105191107D01*
X128940480Y-105212150D01*
X128950970Y-105234329D01*
X128959235Y-105257428D01*
X128965196Y-105281227D01*
X128968796Y-105305495D01*
X128970000Y-105329999D01*
X128970000Y-105980001D01*
X128968796Y-106004505D01*
X128965196Y-106028773D01*
X128959235Y-106052572D01*
X128950970Y-106075671D01*
X128940480Y-106097850D01*
X128927868Y-106118893D01*
X128913253Y-106138599D01*
X128896777Y-106156777D01*
X128878599Y-106173253D01*
X128858893Y-106187868D01*
X128837850Y-106200480D01*
X128815671Y-106210970D01*
X128792572Y-106219235D01*
X128768773Y-106225196D01*
X128744505Y-106228796D01*
X128720001Y-106230000D01*
X127819999Y-106230000D01*
X127795495Y-106228796D01*
X127771227Y-106225196D01*
X127747428Y-106219235D01*
X127724329Y-106210970D01*
X127702150Y-106200480D01*
X127681107Y-106187868D01*
X127661401Y-106173253D01*
X127643223Y-106156777D01*
X127626747Y-106138599D01*
X127612132Y-106118893D01*
X127599520Y-106097850D01*
X127589030Y-106075671D01*
X127580765Y-106052572D01*
X127574804Y-106028773D01*
X127571204Y-106004505D01*
X127570000Y-105980001D01*
X127570000Y-105329999D01*
X127571204Y-105305495D01*
X127574804Y-105281227D01*
X127580765Y-105257428D01*
X127589030Y-105234329D01*
X127599520Y-105212150D01*
X127612132Y-105191107D01*
X127626747Y-105171401D01*
X127643223Y-105153223D01*
X127661401Y-105136747D01*
X127681107Y-105122132D01*
X127702150Y-105109520D01*
X127724329Y-105099030D01*
X127747428Y-105090765D01*
X127771227Y-105084804D01*
X127795495Y-105081204D01*
X127819999Y-105080000D01*
X128720001Y-105080000D01*
X128744505Y-105081204D01*
X128744505Y-105081204D01*
G37*
D11*
G04 #@! TD*
G04 #@! TO.P,R4,2*
G04 #@! TO.N,SCL*
X128270000Y-105655000D03*
D10*
G04 #@! TO.N,ALERT*
G04 #@! TO.C,R5*
G36*
X131284505Y-105081204D02*
X131308773Y-105084804D01*
X131332572Y-105090765D01*
X131355671Y-105099030D01*
X131377850Y-105109520D01*
X131398893Y-105122132D01*
X131418599Y-105136747D01*
X131436777Y-105153223D01*
X131453253Y-105171401D01*
X131467868Y-105191107D01*
X131480480Y-105212150D01*
X131490970Y-105234329D01*
X131499235Y-105257428D01*
X131505196Y-105281227D01*
X131508796Y-105305495D01*
X131510000Y-105329999D01*
X131510000Y-105980001D01*
X131508796Y-106004505D01*
X131505196Y-106028773D01*
X131499235Y-106052572D01*
X131490970Y-106075671D01*
X131480480Y-106097850D01*
X131467868Y-106118893D01*
X131453253Y-106138599D01*
X131436777Y-106156777D01*
X131418599Y-106173253D01*
X131398893Y-106187868D01*
X131377850Y-106200480D01*
X131355671Y-106210970D01*
X131332572Y-106219235D01*
X131308773Y-106225196D01*
X131284505Y-106228796D01*
X131260001Y-106230000D01*
X130359999Y-106230000D01*
X130335495Y-106228796D01*
X130311227Y-106225196D01*
X130287428Y-106219235D01*
X130264329Y-106210970D01*
X130242150Y-106200480D01*
X130221107Y-106187868D01*
X130201401Y-106173253D01*
X130183223Y-106156777D01*
X130166747Y-106138599D01*
X130152132Y-106118893D01*
X130139520Y-106097850D01*
X130129030Y-106075671D01*
X130120765Y-106052572D01*
X130114804Y-106028773D01*
X130111204Y-106004505D01*
X130110000Y-105980001D01*
X130110000Y-105329999D01*
X130111204Y-105305495D01*
X130114804Y-105281227D01*
X130120765Y-105257428D01*
X130129030Y-105234329D01*
X130139520Y-105212150D01*
X130152132Y-105191107D01*
X130166747Y-105171401D01*
X130183223Y-105153223D01*
X130201401Y-105136747D01*
X130221107Y-105122132D01*
X130242150Y-105109520D01*
X130264329Y-105099030D01*
X130287428Y-105090765D01*
X130311227Y-105084804D01*
X130335495Y-105081204D01*
X130359999Y-105080000D01*
X131260001Y-105080000D01*
X131284505Y-105081204D01*
X131284505Y-105081204D01*
G37*
D11*
G04 #@! TD*
G04 #@! TO.P,R5,2*
G04 #@! TO.N,ALERT*
X130810000Y-105655000D03*
D10*
G04 #@! TO.N,+3V3*
G04 #@! TO.C,R5*
G36*
X131284505Y-107131204D02*
X131308773Y-107134804D01*
X131332572Y-107140765D01*
X131355671Y-107149030D01*
X131377850Y-107159520D01*
X131398893Y-107172132D01*
X131418599Y-107186747D01*
X131436777Y-107203223D01*
X131453253Y-107221401D01*
X131467868Y-107241107D01*
X131480480Y-107262150D01*
X131490970Y-107284329D01*
X131499235Y-107307428D01*
X131505196Y-107331227D01*
X131508796Y-107355495D01*
X131510000Y-107379999D01*
X131510000Y-108030001D01*
X131508796Y-108054505D01*
X131505196Y-108078773D01*
X131499235Y-108102572D01*
X131490970Y-108125671D01*
X131480480Y-108147850D01*
X131467868Y-108168893D01*
X131453253Y-108188599D01*
X131436777Y-108206777D01*
X131418599Y-108223253D01*
X131398893Y-108237868D01*
X131377850Y-108250480D01*
X131355671Y-108260970D01*
X131332572Y-108269235D01*
X131308773Y-108275196D01*
X131284505Y-108278796D01*
X131260001Y-108280000D01*
X130359999Y-108280000D01*
X130335495Y-108278796D01*
X130311227Y-108275196D01*
X130287428Y-108269235D01*
X130264329Y-108260970D01*
X130242150Y-108250480D01*
X130221107Y-108237868D01*
X130201401Y-108223253D01*
X130183223Y-108206777D01*
X130166747Y-108188599D01*
X130152132Y-108168893D01*
X130139520Y-108147850D01*
X130129030Y-108125671D01*
X130120765Y-108102572D01*
X130114804Y-108078773D01*
X130111204Y-108054505D01*
X130110000Y-108030001D01*
X130110000Y-107379999D01*
X130111204Y-107355495D01*
X130114804Y-107331227D01*
X130120765Y-107307428D01*
X130129030Y-107284329D01*
X130139520Y-107262150D01*
X130152132Y-107241107D01*
X130166747Y-107221401D01*
X130183223Y-107203223D01*
X130201401Y-107186747D01*
X130221107Y-107172132D01*
X130242150Y-107159520D01*
X130264329Y-107149030D01*
X130287428Y-107140765D01*
X130311227Y-107134804D01*
X130335495Y-107131204D01*
X130359999Y-107130000D01*
X131260001Y-107130000D01*
X131284505Y-107131204D01*
X131284505Y-107131204D01*
G37*
D11*
G04 #@! TD*
G04 #@! TO.P,R5,1*
G04 #@! TO.N,+3V3*
X130810000Y-107705000D03*
D10*
G04 #@! TO.N,Net-(R6-Pad1)*
G04 #@! TO.C,R6*
G36*
X104734505Y-93281204D02*
X104758773Y-93284804D01*
X104782572Y-93290765D01*
X104805671Y-93299030D01*
X104827850Y-93309520D01*
X104848893Y-93322132D01*
X104868599Y-93336747D01*
X104886777Y-93353223D01*
X104903253Y-93371401D01*
X104917868Y-93391107D01*
X104930480Y-93412150D01*
X104940970Y-93434329D01*
X104949235Y-93457428D01*
X104955196Y-93481227D01*
X104958796Y-93505495D01*
X104960000Y-93529999D01*
X104960000Y-94430001D01*
X104958796Y-94454505D01*
X104955196Y-94478773D01*
X104949235Y-94502572D01*
X104940970Y-94525671D01*
X104930480Y-94547850D01*
X104917868Y-94568893D01*
X104903253Y-94588599D01*
X104886777Y-94606777D01*
X104868599Y-94623253D01*
X104848893Y-94637868D01*
X104827850Y-94650480D01*
X104805671Y-94660970D01*
X104782572Y-94669235D01*
X104758773Y-94675196D01*
X104734505Y-94678796D01*
X104710001Y-94680000D01*
X104059999Y-94680000D01*
X104035495Y-94678796D01*
X104011227Y-94675196D01*
X103987428Y-94669235D01*
X103964329Y-94660970D01*
X103942150Y-94650480D01*
X103921107Y-94637868D01*
X103901401Y-94623253D01*
X103883223Y-94606777D01*
X103866747Y-94588599D01*
X103852132Y-94568893D01*
X103839520Y-94547850D01*
X103829030Y-94525671D01*
X103820765Y-94502572D01*
X103814804Y-94478773D01*
X103811204Y-94454505D01*
X103810000Y-94430001D01*
X103810000Y-93529999D01*
X103811204Y-93505495D01*
X103814804Y-93481227D01*
X103820765Y-93457428D01*
X103829030Y-93434329D01*
X103839520Y-93412150D01*
X103852132Y-93391107D01*
X103866747Y-93371401D01*
X103883223Y-93353223D01*
X103901401Y-93336747D01*
X103921107Y-93322132D01*
X103942150Y-93309520D01*
X103964329Y-93299030D01*
X103987428Y-93290765D01*
X104011227Y-93284804D01*
X104035495Y-93281204D01*
X104059999Y-93280000D01*
X104710001Y-93280000D01*
X104734505Y-93281204D01*
X104734505Y-93281204D01*
G37*
D11*
G04 #@! TD*
G04 #@! TO.P,R6,1*
G04 #@! TO.N,Net-(R6-Pad1)*
X104385000Y-93980000D03*
D10*
G04 #@! TO.N,Net-(R6-Pad2)*
G04 #@! TO.C,R6*
G36*
X106784505Y-93281204D02*
X106808773Y-93284804D01*
X106832572Y-93290765D01*
X106855671Y-93299030D01*
X106877850Y-93309520D01*
X106898893Y-93322132D01*
X106918599Y-93336747D01*
X106936777Y-93353223D01*
X106953253Y-93371401D01*
X106967868Y-93391107D01*
X106980480Y-93412150D01*
X106990970Y-93434329D01*
X106999235Y-93457428D01*
X107005196Y-93481227D01*
X107008796Y-93505495D01*
X107010000Y-93529999D01*
X107010000Y-94430001D01*
X107008796Y-94454505D01*
X107005196Y-94478773D01*
X106999235Y-94502572D01*
X106990970Y-94525671D01*
X106980480Y-94547850D01*
X106967868Y-94568893D01*
X106953253Y-94588599D01*
X106936777Y-94606777D01*
X106918599Y-94623253D01*
X106898893Y-94637868D01*
X106877850Y-94650480D01*
X106855671Y-94660970D01*
X106832572Y-94669235D01*
X106808773Y-94675196D01*
X106784505Y-94678796D01*
X106760001Y-94680000D01*
X106109999Y-94680000D01*
X106085495Y-94678796D01*
X106061227Y-94675196D01*
X106037428Y-94669235D01*
X106014329Y-94660970D01*
X105992150Y-94650480D01*
X105971107Y-94637868D01*
X105951401Y-94623253D01*
X105933223Y-94606777D01*
X105916747Y-94588599D01*
X105902132Y-94568893D01*
X105889520Y-94547850D01*
X105879030Y-94525671D01*
X105870765Y-94502572D01*
X105864804Y-94478773D01*
X105861204Y-94454505D01*
X105860000Y-94430001D01*
X105860000Y-93529999D01*
X105861204Y-93505495D01*
X105864804Y-93481227D01*
X105870765Y-93457428D01*
X105879030Y-93434329D01*
X105889520Y-93412150D01*
X105902132Y-93391107D01*
X105916747Y-93371401D01*
X105933223Y-93353223D01*
X105951401Y-93336747D01*
X105971107Y-93322132D01*
X105992150Y-93309520D01*
X106014329Y-93299030D01*
X106037428Y-93290765D01*
X106061227Y-93284804D01*
X106085495Y-93281204D01*
X106109999Y-93280000D01*
X106760001Y-93280000D01*
X106784505Y-93281204D01*
X106784505Y-93281204D01*
G37*
D11*
G04 #@! TD*
G04 #@! TO.P,R6,2*
G04 #@! TO.N,Net-(R6-Pad2)*
X106435000Y-93980000D03*
D10*
G04 #@! TO.N,+3V3*
G04 #@! TO.C,R7*
G36*
X106784505Y-89471204D02*
X106808773Y-89474804D01*
X106832572Y-89480765D01*
X106855671Y-89489030D01*
X106877850Y-89499520D01*
X106898893Y-89512132D01*
X106918599Y-89526747D01*
X106936777Y-89543223D01*
X106953253Y-89561401D01*
X106967868Y-89581107D01*
X106980480Y-89602150D01*
X106990970Y-89624329D01*
X106999235Y-89647428D01*
X107005196Y-89671227D01*
X107008796Y-89695495D01*
X107010000Y-89719999D01*
X107010000Y-90620001D01*
X107008796Y-90644505D01*
X107005196Y-90668773D01*
X106999235Y-90692572D01*
X106990970Y-90715671D01*
X106980480Y-90737850D01*
X106967868Y-90758893D01*
X106953253Y-90778599D01*
X106936777Y-90796777D01*
X106918599Y-90813253D01*
X106898893Y-90827868D01*
X106877850Y-90840480D01*
X106855671Y-90850970D01*
X106832572Y-90859235D01*
X106808773Y-90865196D01*
X106784505Y-90868796D01*
X106760001Y-90870000D01*
X106109999Y-90870000D01*
X106085495Y-90868796D01*
X106061227Y-90865196D01*
X106037428Y-90859235D01*
X106014329Y-90850970D01*
X105992150Y-90840480D01*
X105971107Y-90827868D01*
X105951401Y-90813253D01*
X105933223Y-90796777D01*
X105916747Y-90778599D01*
X105902132Y-90758893D01*
X105889520Y-90737850D01*
X105879030Y-90715671D01*
X105870765Y-90692572D01*
X105864804Y-90668773D01*
X105861204Y-90644505D01*
X105860000Y-90620001D01*
X105860000Y-89719999D01*
X105861204Y-89695495D01*
X105864804Y-89671227D01*
X105870765Y-89647428D01*
X105879030Y-89624329D01*
X105889520Y-89602150D01*
X105902132Y-89581107D01*
X105916747Y-89561401D01*
X105933223Y-89543223D01*
X105951401Y-89526747D01*
X105971107Y-89512132D01*
X105992150Y-89499520D01*
X106014329Y-89489030D01*
X106037428Y-89480765D01*
X106061227Y-89474804D01*
X106085495Y-89471204D01*
X106109999Y-89470000D01*
X106760001Y-89470000D01*
X106784505Y-89471204D01*
X106784505Y-89471204D01*
G37*
D11*
G04 #@! TD*
G04 #@! TO.P,R7,1*
G04 #@! TO.N,+3V3*
X106435000Y-90170000D03*
D10*
G04 #@! TO.N,Net-(R6-Pad1)*
G04 #@! TO.C,R7*
G36*
X104734505Y-89471204D02*
X104758773Y-89474804D01*
X104782572Y-89480765D01*
X104805671Y-89489030D01*
X104827850Y-89499520D01*
X104848893Y-89512132D01*
X104868599Y-89526747D01*
X104886777Y-89543223D01*
X104903253Y-89561401D01*
X104917868Y-89581107D01*
X104930480Y-89602150D01*
X104940970Y-89624329D01*
X104949235Y-89647428D01*
X104955196Y-89671227D01*
X104958796Y-89695495D01*
X104960000Y-89719999D01*
X104960000Y-90620001D01*
X104958796Y-90644505D01*
X104955196Y-90668773D01*
X104949235Y-90692572D01*
X104940970Y-90715671D01*
X104930480Y-90737850D01*
X104917868Y-90758893D01*
X104903253Y-90778599D01*
X104886777Y-90796777D01*
X104868599Y-90813253D01*
X104848893Y-90827868D01*
X104827850Y-90840480D01*
X104805671Y-90850970D01*
X104782572Y-90859235D01*
X104758773Y-90865196D01*
X104734505Y-90868796D01*
X104710001Y-90870000D01*
X104059999Y-90870000D01*
X104035495Y-90868796D01*
X104011227Y-90865196D01*
X103987428Y-90859235D01*
X103964329Y-90850970D01*
X103942150Y-90840480D01*
X103921107Y-90827868D01*
X103901401Y-90813253D01*
X103883223Y-90796777D01*
X103866747Y-90778599D01*
X103852132Y-90758893D01*
X103839520Y-90737850D01*
X103829030Y-90715671D01*
X103820765Y-90692572D01*
X103814804Y-90668773D01*
X103811204Y-90644505D01*
X103810000Y-90620001D01*
X103810000Y-89719999D01*
X103811204Y-89695495D01*
X103814804Y-89671227D01*
X103820765Y-89647428D01*
X103829030Y-89624329D01*
X103839520Y-89602150D01*
X103852132Y-89581107D01*
X103866747Y-89561401D01*
X103883223Y-89543223D01*
X103901401Y-89526747D01*
X103921107Y-89512132D01*
X103942150Y-89499520D01*
X103964329Y-89489030D01*
X103987428Y-89480765D01*
X104011227Y-89474804D01*
X104035495Y-89471204D01*
X104059999Y-89470000D01*
X104710001Y-89470000D01*
X104734505Y-89471204D01*
X104734505Y-89471204D01*
G37*
D11*
G04 #@! TD*
G04 #@! TO.P,R7,2*
G04 #@! TO.N,Net-(R6-Pad1)*
X104385000Y-90170000D03*
D10*
G04 #@! TO.N,Net-(R8-Pad2)*
G04 #@! TO.C,R8*
G36*
X106784505Y-81851204D02*
X106808773Y-81854804D01*
X106832572Y-81860765D01*
X106855671Y-81869030D01*
X106877850Y-81879520D01*
X106898893Y-81892132D01*
X106918599Y-81906747D01*
X106936777Y-81923223D01*
X106953253Y-81941401D01*
X106967868Y-81961107D01*
X106980480Y-81982150D01*
X106990970Y-82004329D01*
X106999235Y-82027428D01*
X107005196Y-82051227D01*
X107008796Y-82075495D01*
X107010000Y-82099999D01*
X107010000Y-83000001D01*
X107008796Y-83024505D01*
X107005196Y-83048773D01*
X106999235Y-83072572D01*
X106990970Y-83095671D01*
X106980480Y-83117850D01*
X106967868Y-83138893D01*
X106953253Y-83158599D01*
X106936777Y-83176777D01*
X106918599Y-83193253D01*
X106898893Y-83207868D01*
X106877850Y-83220480D01*
X106855671Y-83230970D01*
X106832572Y-83239235D01*
X106808773Y-83245196D01*
X106784505Y-83248796D01*
X106760001Y-83250000D01*
X106109999Y-83250000D01*
X106085495Y-83248796D01*
X106061227Y-83245196D01*
X106037428Y-83239235D01*
X106014329Y-83230970D01*
X105992150Y-83220480D01*
X105971107Y-83207868D01*
X105951401Y-83193253D01*
X105933223Y-83176777D01*
X105916747Y-83158599D01*
X105902132Y-83138893D01*
X105889520Y-83117850D01*
X105879030Y-83095671D01*
X105870765Y-83072572D01*
X105864804Y-83048773D01*
X105861204Y-83024505D01*
X105860000Y-83000001D01*
X105860000Y-82099999D01*
X105861204Y-82075495D01*
X105864804Y-82051227D01*
X105870765Y-82027428D01*
X105879030Y-82004329D01*
X105889520Y-81982150D01*
X105902132Y-81961107D01*
X105916747Y-81941401D01*
X105933223Y-81923223D01*
X105951401Y-81906747D01*
X105971107Y-81892132D01*
X105992150Y-81879520D01*
X106014329Y-81869030D01*
X106037428Y-81860765D01*
X106061227Y-81854804D01*
X106085495Y-81851204D01*
X106109999Y-81850000D01*
X106760001Y-81850000D01*
X106784505Y-81851204D01*
X106784505Y-81851204D01*
G37*
D11*
G04 #@! TD*
G04 #@! TO.P,R8,2*
G04 #@! TO.N,Net-(R8-Pad2)*
X106435000Y-82550000D03*
D10*
G04 #@! TO.N,+3V3*
G04 #@! TO.C,R8*
G36*
X104734505Y-81851204D02*
X104758773Y-81854804D01*
X104782572Y-81860765D01*
X104805671Y-81869030D01*
X104827850Y-81879520D01*
X104848893Y-81892132D01*
X104868599Y-81906747D01*
X104886777Y-81923223D01*
X104903253Y-81941401D01*
X104917868Y-81961107D01*
X104930480Y-81982150D01*
X104940970Y-82004329D01*
X104949235Y-82027428D01*
X104955196Y-82051227D01*
X104958796Y-82075495D01*
X104960000Y-82099999D01*
X104960000Y-83000001D01*
X104958796Y-83024505D01*
X104955196Y-83048773D01*
X104949235Y-83072572D01*
X104940970Y-83095671D01*
X104930480Y-83117850D01*
X104917868Y-83138893D01*
X104903253Y-83158599D01*
X104886777Y-83176777D01*
X104868599Y-83193253D01*
X104848893Y-83207868D01*
X104827850Y-83220480D01*
X104805671Y-83230970D01*
X104782572Y-83239235D01*
X104758773Y-83245196D01*
X104734505Y-83248796D01*
X104710001Y-83250000D01*
X104059999Y-83250000D01*
X104035495Y-83248796D01*
X104011227Y-83245196D01*
X103987428Y-83239235D01*
X103964329Y-83230970D01*
X103942150Y-83220480D01*
X103921107Y-83207868D01*
X103901401Y-83193253D01*
X103883223Y-83176777D01*
X103866747Y-83158599D01*
X103852132Y-83138893D01*
X103839520Y-83117850D01*
X103829030Y-83095671D01*
X103820765Y-83072572D01*
X103814804Y-83048773D01*
X103811204Y-83024505D01*
X103810000Y-83000001D01*
X103810000Y-82099999D01*
X103811204Y-82075495D01*
X103814804Y-82051227D01*
X103820765Y-82027428D01*
X103829030Y-82004329D01*
X103839520Y-81982150D01*
X103852132Y-81961107D01*
X103866747Y-81941401D01*
X103883223Y-81923223D01*
X103901401Y-81906747D01*
X103921107Y-81892132D01*
X103942150Y-81879520D01*
X103964329Y-81869030D01*
X103987428Y-81860765D01*
X104011227Y-81854804D01*
X104035495Y-81851204D01*
X104059999Y-81850000D01*
X104710001Y-81850000D01*
X104734505Y-81851204D01*
X104734505Y-81851204D01*
G37*
D11*
G04 #@! TD*
G04 #@! TO.P,R8,1*
G04 #@! TO.N,+3V3*
X104385000Y-82550000D03*
D10*
G04 #@! TO.N,GND*
G04 #@! TO.C,R9*
G36*
X108424505Y-107131204D02*
X108448773Y-107134804D01*
X108472572Y-107140765D01*
X108495671Y-107149030D01*
X108517850Y-107159520D01*
X108538893Y-107172132D01*
X108558599Y-107186747D01*
X108576777Y-107203223D01*
X108593253Y-107221401D01*
X108607868Y-107241107D01*
X108620480Y-107262150D01*
X108630970Y-107284329D01*
X108639235Y-107307428D01*
X108645196Y-107331227D01*
X108648796Y-107355495D01*
X108650000Y-107379999D01*
X108650000Y-108030001D01*
X108648796Y-108054505D01*
X108645196Y-108078773D01*
X108639235Y-108102572D01*
X108630970Y-108125671D01*
X108620480Y-108147850D01*
X108607868Y-108168893D01*
X108593253Y-108188599D01*
X108576777Y-108206777D01*
X108558599Y-108223253D01*
X108538893Y-108237868D01*
X108517850Y-108250480D01*
X108495671Y-108260970D01*
X108472572Y-108269235D01*
X108448773Y-108275196D01*
X108424505Y-108278796D01*
X108400001Y-108280000D01*
X107499999Y-108280000D01*
X107475495Y-108278796D01*
X107451227Y-108275196D01*
X107427428Y-108269235D01*
X107404329Y-108260970D01*
X107382150Y-108250480D01*
X107361107Y-108237868D01*
X107341401Y-108223253D01*
X107323223Y-108206777D01*
X107306747Y-108188599D01*
X107292132Y-108168893D01*
X107279520Y-108147850D01*
X107269030Y-108125671D01*
X107260765Y-108102572D01*
X107254804Y-108078773D01*
X107251204Y-108054505D01*
X107250000Y-108030001D01*
X107250000Y-107379999D01*
X107251204Y-107355495D01*
X107254804Y-107331227D01*
X107260765Y-107307428D01*
X107269030Y-107284329D01*
X107279520Y-107262150D01*
X107292132Y-107241107D01*
X107306747Y-107221401D01*
X107323223Y-107203223D01*
X107341401Y-107186747D01*
X107361107Y-107172132D01*
X107382150Y-107159520D01*
X107404329Y-107149030D01*
X107427428Y-107140765D01*
X107451227Y-107134804D01*
X107475495Y-107131204D01*
X107499999Y-107130000D01*
X108400001Y-107130000D01*
X108424505Y-107131204D01*
X108424505Y-107131204D01*
G37*
D11*
G04 #@! TD*
G04 #@! TO.P,R9,2*
G04 #@! TO.N,GND*
X107950000Y-107705000D03*
D10*
G04 #@! TO.N,Net-(R9-Pad1)*
G04 #@! TO.C,R9*
G36*
X108424505Y-105081204D02*
X108448773Y-105084804D01*
X108472572Y-105090765D01*
X108495671Y-105099030D01*
X108517850Y-105109520D01*
X108538893Y-105122132D01*
X108558599Y-105136747D01*
X108576777Y-105153223D01*
X108593253Y-105171401D01*
X108607868Y-105191107D01*
X108620480Y-105212150D01*
X108630970Y-105234329D01*
X108639235Y-105257428D01*
X108645196Y-105281227D01*
X108648796Y-105305495D01*
X108650000Y-105329999D01*
X108650000Y-105980001D01*
X108648796Y-106004505D01*
X108645196Y-106028773D01*
X108639235Y-106052572D01*
X108630970Y-106075671D01*
X108620480Y-106097850D01*
X108607868Y-106118893D01*
X108593253Y-106138599D01*
X108576777Y-106156777D01*
X108558599Y-106173253D01*
X108538893Y-106187868D01*
X108517850Y-106200480D01*
X108495671Y-106210970D01*
X108472572Y-106219235D01*
X108448773Y-106225196D01*
X108424505Y-106228796D01*
X108400001Y-106230000D01*
X107499999Y-106230000D01*
X107475495Y-106228796D01*
X107451227Y-106225196D01*
X107427428Y-106219235D01*
X107404329Y-106210970D01*
X107382150Y-106200480D01*
X107361107Y-106187868D01*
X107341401Y-106173253D01*
X107323223Y-106156777D01*
X107306747Y-106138599D01*
X107292132Y-106118893D01*
X107279520Y-106097850D01*
X107269030Y-106075671D01*
X107260765Y-106052572D01*
X107254804Y-106028773D01*
X107251204Y-106004505D01*
X107250000Y-105980001D01*
X107250000Y-105329999D01*
X107251204Y-105305495D01*
X107254804Y-105281227D01*
X107260765Y-105257428D01*
X107269030Y-105234329D01*
X107279520Y-105212150D01*
X107292132Y-105191107D01*
X107306747Y-105171401D01*
X107323223Y-105153223D01*
X107341401Y-105136747D01*
X107361107Y-105122132D01*
X107382150Y-105109520D01*
X107404329Y-105099030D01*
X107427428Y-105090765D01*
X107451227Y-105084804D01*
X107475495Y-105081204D01*
X107499999Y-105080000D01*
X108400001Y-105080000D01*
X108424505Y-105081204D01*
X108424505Y-105081204D01*
G37*
D11*
G04 #@! TD*
G04 #@! TO.P,R9,1*
G04 #@! TO.N,Net-(R9-Pad1)*
X107950000Y-105655000D03*
D10*
G04 #@! TO.N,Net-(R10-Pad1)*
G04 #@! TO.C,R10*
G36*
X110964505Y-105081204D02*
X110988773Y-105084804D01*
X111012572Y-105090765D01*
X111035671Y-105099030D01*
X111057850Y-105109520D01*
X111078893Y-105122132D01*
X111098599Y-105136747D01*
X111116777Y-105153223D01*
X111133253Y-105171401D01*
X111147868Y-105191107D01*
X111160480Y-105212150D01*
X111170970Y-105234329D01*
X111179235Y-105257428D01*
X111185196Y-105281227D01*
X111188796Y-105305495D01*
X111190000Y-105329999D01*
X111190000Y-105980001D01*
X111188796Y-106004505D01*
X111185196Y-106028773D01*
X111179235Y-106052572D01*
X111170970Y-106075671D01*
X111160480Y-106097850D01*
X111147868Y-106118893D01*
X111133253Y-106138599D01*
X111116777Y-106156777D01*
X111098599Y-106173253D01*
X111078893Y-106187868D01*
X111057850Y-106200480D01*
X111035671Y-106210970D01*
X111012572Y-106219235D01*
X110988773Y-106225196D01*
X110964505Y-106228796D01*
X110940001Y-106230000D01*
X110039999Y-106230000D01*
X110015495Y-106228796D01*
X109991227Y-106225196D01*
X109967428Y-106219235D01*
X109944329Y-106210970D01*
X109922150Y-106200480D01*
X109901107Y-106187868D01*
X109881401Y-106173253D01*
X109863223Y-106156777D01*
X109846747Y-106138599D01*
X109832132Y-106118893D01*
X109819520Y-106097850D01*
X109809030Y-106075671D01*
X109800765Y-106052572D01*
X109794804Y-106028773D01*
X109791204Y-106004505D01*
X109790000Y-105980001D01*
X109790000Y-105329999D01*
X109791204Y-105305495D01*
X109794804Y-105281227D01*
X109800765Y-105257428D01*
X109809030Y-105234329D01*
X109819520Y-105212150D01*
X109832132Y-105191107D01*
X109846747Y-105171401D01*
X109863223Y-105153223D01*
X109881401Y-105136747D01*
X109901107Y-105122132D01*
X109922150Y-105109520D01*
X109944329Y-105099030D01*
X109967428Y-105090765D01*
X109991227Y-105084804D01*
X110015495Y-105081204D01*
X110039999Y-105080000D01*
X110940001Y-105080000D01*
X110964505Y-105081204D01*
X110964505Y-105081204D01*
G37*
D11*
G04 #@! TD*
G04 #@! TO.P,R10,1*
G04 #@! TO.N,Net-(R10-Pad1)*
X110490000Y-105655000D03*
D10*
G04 #@! TO.N,GND*
G04 #@! TO.C,R10*
G36*
X110964505Y-107131204D02*
X110988773Y-107134804D01*
X111012572Y-107140765D01*
X111035671Y-107149030D01*
X111057850Y-107159520D01*
X111078893Y-107172132D01*
X111098599Y-107186747D01*
X111116777Y-107203223D01*
X111133253Y-107221401D01*
X111147868Y-107241107D01*
X111160480Y-107262150D01*
X111170970Y-107284329D01*
X111179235Y-107307428D01*
X111185196Y-107331227D01*
X111188796Y-107355495D01*
X111190000Y-107379999D01*
X111190000Y-108030001D01*
X111188796Y-108054505D01*
X111185196Y-108078773D01*
X111179235Y-108102572D01*
X111170970Y-108125671D01*
X111160480Y-108147850D01*
X111147868Y-108168893D01*
X111133253Y-108188599D01*
X111116777Y-108206777D01*
X111098599Y-108223253D01*
X111078893Y-108237868D01*
X111057850Y-108250480D01*
X111035671Y-108260970D01*
X111012572Y-108269235D01*
X110988773Y-108275196D01*
X110964505Y-108278796D01*
X110940001Y-108280000D01*
X110039999Y-108280000D01*
X110015495Y-108278796D01*
X109991227Y-108275196D01*
X109967428Y-108269235D01*
X109944329Y-108260970D01*
X109922150Y-108250480D01*
X109901107Y-108237868D01*
X109881401Y-108223253D01*
X109863223Y-108206777D01*
X109846747Y-108188599D01*
X109832132Y-108168893D01*
X109819520Y-108147850D01*
X109809030Y-108125671D01*
X109800765Y-108102572D01*
X109794804Y-108078773D01*
X109791204Y-108054505D01*
X109790000Y-108030001D01*
X109790000Y-107379999D01*
X109791204Y-107355495D01*
X109794804Y-107331227D01*
X109800765Y-107307428D01*
X109809030Y-107284329D01*
X109819520Y-107262150D01*
X109832132Y-107241107D01*
X109846747Y-107221401D01*
X109863223Y-107203223D01*
X109881401Y-107186747D01*
X109901107Y-107172132D01*
X109922150Y-107159520D01*
X109944329Y-107149030D01*
X109967428Y-107140765D01*
X109991227Y-107134804D01*
X110015495Y-107131204D01*
X110039999Y-107130000D01*
X110940001Y-107130000D01*
X110964505Y-107131204D01*
X110964505Y-107131204D01*
G37*
D11*
G04 #@! TD*
G04 #@! TO.P,R10,2*
G04 #@! TO.N,GND*
X110490000Y-107705000D03*
D10*
G04 #@! TO.N,Net-(C4-Pad1)*
G04 #@! TO.C,R11*
G36*
X132674505Y-89471204D02*
X132698773Y-89474804D01*
X132722572Y-89480765D01*
X132745671Y-89489030D01*
X132767850Y-89499520D01*
X132788893Y-89512132D01*
X132808599Y-89526747D01*
X132826777Y-89543223D01*
X132843253Y-89561401D01*
X132857868Y-89581107D01*
X132870480Y-89602150D01*
X132880970Y-89624329D01*
X132889235Y-89647428D01*
X132895196Y-89671227D01*
X132898796Y-89695495D01*
X132900000Y-89719999D01*
X132900000Y-90620001D01*
X132898796Y-90644505D01*
X132895196Y-90668773D01*
X132889235Y-90692572D01*
X132880970Y-90715671D01*
X132870480Y-90737850D01*
X132857868Y-90758893D01*
X132843253Y-90778599D01*
X132826777Y-90796777D01*
X132808599Y-90813253D01*
X132788893Y-90827868D01*
X132767850Y-90840480D01*
X132745671Y-90850970D01*
X132722572Y-90859235D01*
X132698773Y-90865196D01*
X132674505Y-90868796D01*
X132650001Y-90870000D01*
X131999999Y-90870000D01*
X131975495Y-90868796D01*
X131951227Y-90865196D01*
X131927428Y-90859235D01*
X131904329Y-90850970D01*
X131882150Y-90840480D01*
X131861107Y-90827868D01*
X131841401Y-90813253D01*
X131823223Y-90796777D01*
X131806747Y-90778599D01*
X131792132Y-90758893D01*
X131779520Y-90737850D01*
X131769030Y-90715671D01*
X131760765Y-90692572D01*
X131754804Y-90668773D01*
X131751204Y-90644505D01*
X131750000Y-90620001D01*
X131750000Y-89719999D01*
X131751204Y-89695495D01*
X131754804Y-89671227D01*
X131760765Y-89647428D01*
X131769030Y-89624329D01*
X131779520Y-89602150D01*
X131792132Y-89581107D01*
X131806747Y-89561401D01*
X131823223Y-89543223D01*
X131841401Y-89526747D01*
X131861107Y-89512132D01*
X131882150Y-89499520D01*
X131904329Y-89489030D01*
X131927428Y-89480765D01*
X131951227Y-89474804D01*
X131975495Y-89471204D01*
X131999999Y-89470000D01*
X132650001Y-89470000D01*
X132674505Y-89471204D01*
X132674505Y-89471204D01*
G37*
D11*
G04 #@! TD*
G04 #@! TO.P,R11,2*
G04 #@! TO.N,Net-(C4-Pad1)*
X132325000Y-90170000D03*
D10*
G04 #@! TO.N,+3V3*
G04 #@! TO.C,R11*
G36*
X134724505Y-89471204D02*
X134748773Y-89474804D01*
X134772572Y-89480765D01*
X134795671Y-89489030D01*
X134817850Y-89499520D01*
X134838893Y-89512132D01*
X134858599Y-89526747D01*
X134876777Y-89543223D01*
X134893253Y-89561401D01*
X134907868Y-89581107D01*
X134920480Y-89602150D01*
X134930970Y-89624329D01*
X134939235Y-89647428D01*
X134945196Y-89671227D01*
X134948796Y-89695495D01*
X134950000Y-89719999D01*
X134950000Y-90620001D01*
X134948796Y-90644505D01*
X134945196Y-90668773D01*
X134939235Y-90692572D01*
X134930970Y-90715671D01*
X134920480Y-90737850D01*
X134907868Y-90758893D01*
X134893253Y-90778599D01*
X134876777Y-90796777D01*
X134858599Y-90813253D01*
X134838893Y-90827868D01*
X134817850Y-90840480D01*
X134795671Y-90850970D01*
X134772572Y-90859235D01*
X134748773Y-90865196D01*
X134724505Y-90868796D01*
X134700001Y-90870000D01*
X134049999Y-90870000D01*
X134025495Y-90868796D01*
X134001227Y-90865196D01*
X133977428Y-90859235D01*
X133954329Y-90850970D01*
X133932150Y-90840480D01*
X133911107Y-90827868D01*
X133891401Y-90813253D01*
X133873223Y-90796777D01*
X133856747Y-90778599D01*
X133842132Y-90758893D01*
X133829520Y-90737850D01*
X133819030Y-90715671D01*
X133810765Y-90692572D01*
X133804804Y-90668773D01*
X133801204Y-90644505D01*
X133800000Y-90620001D01*
X133800000Y-89719999D01*
X133801204Y-89695495D01*
X133804804Y-89671227D01*
X133810765Y-89647428D01*
X133819030Y-89624329D01*
X133829520Y-89602150D01*
X133842132Y-89581107D01*
X133856747Y-89561401D01*
X133873223Y-89543223D01*
X133891401Y-89526747D01*
X133911107Y-89512132D01*
X133932150Y-89499520D01*
X133954329Y-89489030D01*
X133977428Y-89480765D01*
X134001227Y-89474804D01*
X134025495Y-89471204D01*
X134049999Y-89470000D01*
X134700001Y-89470000D01*
X134724505Y-89471204D01*
X134724505Y-89471204D01*
G37*
D11*
G04 #@! TD*
G04 #@! TO.P,R11,1*
G04 #@! TO.N,+3V3*
X134375000Y-90170000D03*
D10*
G04 #@! TO.N,Net-(R12-Pad1)*
G04 #@! TO.C,R12*
G36*
X106784505Y-85661204D02*
X106808773Y-85664804D01*
X106832572Y-85670765D01*
X106855671Y-85679030D01*
X106877850Y-85689520D01*
X106898893Y-85702132D01*
X106918599Y-85716747D01*
X106936777Y-85733223D01*
X106953253Y-85751401D01*
X106967868Y-85771107D01*
X106980480Y-85792150D01*
X106990970Y-85814329D01*
X106999235Y-85837428D01*
X107005196Y-85861227D01*
X107008796Y-85885495D01*
X107010000Y-85909999D01*
X107010000Y-86810001D01*
X107008796Y-86834505D01*
X107005196Y-86858773D01*
X106999235Y-86882572D01*
X106990970Y-86905671D01*
X106980480Y-86927850D01*
X106967868Y-86948893D01*
X106953253Y-86968599D01*
X106936777Y-86986777D01*
X106918599Y-87003253D01*
X106898893Y-87017868D01*
X106877850Y-87030480D01*
X106855671Y-87040970D01*
X106832572Y-87049235D01*
X106808773Y-87055196D01*
X106784505Y-87058796D01*
X106760001Y-87060000D01*
X106109999Y-87060000D01*
X106085495Y-87058796D01*
X106061227Y-87055196D01*
X106037428Y-87049235D01*
X106014329Y-87040970D01*
X105992150Y-87030480D01*
X105971107Y-87017868D01*
X105951401Y-87003253D01*
X105933223Y-86986777D01*
X105916747Y-86968599D01*
X105902132Y-86948893D01*
X105889520Y-86927850D01*
X105879030Y-86905671D01*
X105870765Y-86882572D01*
X105864804Y-86858773D01*
X105861204Y-86834505D01*
X105860000Y-86810001D01*
X105860000Y-85909999D01*
X105861204Y-85885495D01*
X105864804Y-85861227D01*
X105870765Y-85837428D01*
X105879030Y-85814329D01*
X105889520Y-85792150D01*
X105902132Y-85771107D01*
X105916747Y-85751401D01*
X105933223Y-85733223D01*
X105951401Y-85716747D01*
X105971107Y-85702132D01*
X105992150Y-85689520D01*
X106014329Y-85679030D01*
X106037428Y-85670765D01*
X106061227Y-85664804D01*
X106085495Y-85661204D01*
X106109999Y-85660000D01*
X106760001Y-85660000D01*
X106784505Y-85661204D01*
X106784505Y-85661204D01*
G37*
D11*
G04 #@! TD*
G04 #@! TO.P,R12,1*
G04 #@! TO.N,Net-(R12-Pad1)*
X106435000Y-86360000D03*
D10*
G04 #@! TO.N,GND*
G04 #@! TO.C,R12*
G36*
X104734505Y-85661204D02*
X104758773Y-85664804D01*
X104782572Y-85670765D01*
X104805671Y-85679030D01*
X104827850Y-85689520D01*
X104848893Y-85702132D01*
X104868599Y-85716747D01*
X104886777Y-85733223D01*
X104903253Y-85751401D01*
X104917868Y-85771107D01*
X104930480Y-85792150D01*
X104940970Y-85814329D01*
X104949235Y-85837428D01*
X104955196Y-85861227D01*
X104958796Y-85885495D01*
X104960000Y-85909999D01*
X104960000Y-86810001D01*
X104958796Y-86834505D01*
X104955196Y-86858773D01*
X104949235Y-86882572D01*
X104940970Y-86905671D01*
X104930480Y-86927850D01*
X104917868Y-86948893D01*
X104903253Y-86968599D01*
X104886777Y-86986777D01*
X104868599Y-87003253D01*
X104848893Y-87017868D01*
X104827850Y-87030480D01*
X104805671Y-87040970D01*
X104782572Y-87049235D01*
X104758773Y-87055196D01*
X104734505Y-87058796D01*
X104710001Y-87060000D01*
X104059999Y-87060000D01*
X104035495Y-87058796D01*
X104011227Y-87055196D01*
X103987428Y-87049235D01*
X103964329Y-87040970D01*
X103942150Y-87030480D01*
X103921107Y-87017868D01*
X103901401Y-87003253D01*
X103883223Y-86986777D01*
X103866747Y-86968599D01*
X103852132Y-86948893D01*
X103839520Y-86927850D01*
X103829030Y-86905671D01*
X103820765Y-86882572D01*
X103814804Y-86858773D01*
X103811204Y-86834505D01*
X103810000Y-86810001D01*
X103810000Y-85909999D01*
X103811204Y-85885495D01*
X103814804Y-85861227D01*
X103820765Y-85837428D01*
X103829030Y-85814329D01*
X103839520Y-85792150D01*
X103852132Y-85771107D01*
X103866747Y-85751401D01*
X103883223Y-85733223D01*
X103901401Y-85716747D01*
X103921107Y-85702132D01*
X103942150Y-85689520D01*
X103964329Y-85679030D01*
X103987428Y-85670765D01*
X104011227Y-85664804D01*
X104035495Y-85661204D01*
X104059999Y-85660000D01*
X104710001Y-85660000D01*
X104734505Y-85661204D01*
X104734505Y-85661204D01*
G37*
D11*
G04 #@! TD*
G04 #@! TO.P,R12,2*
G04 #@! TO.N,GND*
X104385000Y-86360000D03*
D10*
G04 #@! TO.N,GND*
G04 #@! TO.C,R13*
G36*
X113504505Y-107131204D02*
X113528773Y-107134804D01*
X113552572Y-107140765D01*
X113575671Y-107149030D01*
X113597850Y-107159520D01*
X113618893Y-107172132D01*
X113638599Y-107186747D01*
X113656777Y-107203223D01*
X113673253Y-107221401D01*
X113687868Y-107241107D01*
X113700480Y-107262150D01*
X113710970Y-107284329D01*
X113719235Y-107307428D01*
X113725196Y-107331227D01*
X113728796Y-107355495D01*
X113730000Y-107379999D01*
X113730000Y-108030001D01*
X113728796Y-108054505D01*
X113725196Y-108078773D01*
X113719235Y-108102572D01*
X113710970Y-108125671D01*
X113700480Y-108147850D01*
X113687868Y-108168893D01*
X113673253Y-108188599D01*
X113656777Y-108206777D01*
X113638599Y-108223253D01*
X113618893Y-108237868D01*
X113597850Y-108250480D01*
X113575671Y-108260970D01*
X113552572Y-108269235D01*
X113528773Y-108275196D01*
X113504505Y-108278796D01*
X113480001Y-108280000D01*
X112579999Y-108280000D01*
X112555495Y-108278796D01*
X112531227Y-108275196D01*
X112507428Y-108269235D01*
X112484329Y-108260970D01*
X112462150Y-108250480D01*
X112441107Y-108237868D01*
X112421401Y-108223253D01*
X112403223Y-108206777D01*
X112386747Y-108188599D01*
X112372132Y-108168893D01*
X112359520Y-108147850D01*
X112349030Y-108125671D01*
X112340765Y-108102572D01*
X112334804Y-108078773D01*
X112331204Y-108054505D01*
X112330000Y-108030001D01*
X112330000Y-107379999D01*
X112331204Y-107355495D01*
X112334804Y-107331227D01*
X112340765Y-107307428D01*
X112349030Y-107284329D01*
X112359520Y-107262150D01*
X112372132Y-107241107D01*
X112386747Y-107221401D01*
X112403223Y-107203223D01*
X112421401Y-107186747D01*
X112441107Y-107172132D01*
X112462150Y-107159520D01*
X112484329Y-107149030D01*
X112507428Y-107140765D01*
X112531227Y-107134804D01*
X112555495Y-107131204D01*
X112579999Y-107130000D01*
X113480001Y-107130000D01*
X113504505Y-107131204D01*
X113504505Y-107131204D01*
G37*
D11*
G04 #@! TD*
G04 #@! TO.P,R13,2*
G04 #@! TO.N,GND*
X113030000Y-107705000D03*
D10*
G04 #@! TO.N,Net-(R13-Pad1)*
G04 #@! TO.C,R13*
G36*
X113504505Y-105081204D02*
X113528773Y-105084804D01*
X113552572Y-105090765D01*
X113575671Y-105099030D01*
X113597850Y-105109520D01*
X113618893Y-105122132D01*
X113638599Y-105136747D01*
X113656777Y-105153223D01*
X113673253Y-105171401D01*
X113687868Y-105191107D01*
X113700480Y-105212150D01*
X113710970Y-105234329D01*
X113719235Y-105257428D01*
X113725196Y-105281227D01*
X113728796Y-105305495D01*
X113730000Y-105329999D01*
X113730000Y-105980001D01*
X113728796Y-106004505D01*
X113725196Y-106028773D01*
X113719235Y-106052572D01*
X113710970Y-106075671D01*
X113700480Y-106097850D01*
X113687868Y-106118893D01*
X113673253Y-106138599D01*
X113656777Y-106156777D01*
X113638599Y-106173253D01*
X113618893Y-106187868D01*
X113597850Y-106200480D01*
X113575671Y-106210970D01*
X113552572Y-106219235D01*
X113528773Y-106225196D01*
X113504505Y-106228796D01*
X113480001Y-106230000D01*
X112579999Y-106230000D01*
X112555495Y-106228796D01*
X112531227Y-106225196D01*
X112507428Y-106219235D01*
X112484329Y-106210970D01*
X112462150Y-106200480D01*
X112441107Y-106187868D01*
X112421401Y-106173253D01*
X112403223Y-106156777D01*
X112386747Y-106138599D01*
X112372132Y-106118893D01*
X112359520Y-106097850D01*
X112349030Y-106075671D01*
X112340765Y-106052572D01*
X112334804Y-106028773D01*
X112331204Y-106004505D01*
X112330000Y-105980001D01*
X112330000Y-105329999D01*
X112331204Y-105305495D01*
X112334804Y-105281227D01*
X112340765Y-105257428D01*
X112349030Y-105234329D01*
X112359520Y-105212150D01*
X112372132Y-105191107D01*
X112386747Y-105171401D01*
X112403223Y-105153223D01*
X112421401Y-105136747D01*
X112441107Y-105122132D01*
X112462150Y-105109520D01*
X112484329Y-105099030D01*
X112507428Y-105090765D01*
X112531227Y-105084804D01*
X112555495Y-105081204D01*
X112579999Y-105080000D01*
X113480001Y-105080000D01*
X113504505Y-105081204D01*
X113504505Y-105081204D01*
G37*
D11*
G04 #@! TD*
G04 #@! TO.P,R13,1*
G04 #@! TO.N,Net-(R13-Pad1)*
X113030000Y-105655000D03*
D16*
G04 #@! TO.P,S1,3*
G04 #@! TO.N,Net-(R6-Pad2)*
X116840000Y-94560000D03*
G04 #@! TO.P,S1,4*
X110340000Y-94560000D03*
G04 #@! TO.P,S1,2*
G04 #@! TO.N,GND*
X110340000Y-99060000D03*
D17*
G04 #@! TO.P,S1,1*
X116840000Y-99060000D03*
G04 #@! TD*
G04 #@! TO.P,S2,1*
G04 #@! TO.N,Net-(C4-Pad1)*
X121920000Y-94560000D03*
D16*
G04 #@! TO.P,S2,2*
X128420000Y-94560000D03*
G04 #@! TO.P,S2,4*
G04 #@! TO.N,GND*
X128420000Y-99060000D03*
G04 #@! TO.P,S2,3*
X121920000Y-99060000D03*
G04 #@! TD*
D18*
G04 #@! TO.P,U1,1*
G04 #@! TO.N,VIN*
X120735000Y-113350000D03*
G04 #@! TO.P,U1,2*
G04 #@! TO.N,GND*
X120735000Y-114300000D03*
G04 #@! TO.P,U1,3*
G04 #@! TO.N,Net-(R2-Pad2)*
X120735000Y-115250000D03*
G04 #@! TO.P,U1,4*
G04 #@! TO.N,N/C*
X123105000Y-115250000D03*
G04 #@! TO.P,U1,5*
G04 #@! TO.N,+3V3*
X123105000Y-113350000D03*
G04 #@! TD*
D19*
G04 #@! TO.P,U2,1*
G04 #@! TO.N,SDA*
X121424700Y-107654999D03*
G04 #@! TO.P,U2,2*
G04 #@! TO.N,SCL*
X121424700Y-107005001D03*
G04 #@! TO.P,U2,3*
G04 #@! TO.N,ALERT*
X121424700Y-106354999D03*
G04 #@! TO.P,U2,4*
G04 #@! TO.N,GND*
X121424700Y-105705001D03*
G04 #@! TO.P,U2,5*
G04 #@! TO.N,Net-(R9-Pad1)*
X117335300Y-105705001D03*
G04 #@! TO.P,U2,6*
G04 #@! TO.N,Net-(R10-Pad1)*
X117335300Y-106354999D03*
G04 #@! TO.P,U2,7*
G04 #@! TO.N,Net-(R13-Pad1)*
X117335300Y-107005001D03*
G04 #@! TO.P,U2,8*
G04 #@! TO.N,+3V3*
X117335300Y-107654999D03*
G04 #@! TD*
D20*
G04 #@! TO.P,U3,1*
G04 #@! TO.N,+3V3*
X110487500Y-77420000D03*
G04 #@! TO.P,U3,2*
G04 #@! TO.N,Net-(R8-Pad2)*
X110487500Y-78920000D03*
G04 #@! TO.P,U3,3*
G04 #@! TO.N,SCL*
X110487500Y-80420000D03*
G04 #@! TO.P,U3,4*
G04 #@! TO.N,Net-(U3-Pad4)*
X110487500Y-81920000D03*
G04 #@! TO.P,U3,5*
G04 #@! TO.N,Net-(U3-Pad5)*
X110487500Y-83420000D03*
G04 #@! TO.P,U3,6*
G04 #@! TO.N,Net-(R12-Pad1)*
X110487500Y-84920000D03*
G04 #@! TO.P,U3,7*
G04 #@! TO.N,SDA*
X110487500Y-86420000D03*
G04 #@! TO.P,U3,8*
G04 #@! TO.N,Net-(R6-Pad1)*
X110487500Y-87920000D03*
G04 #@! TO.P,U3,9*
G04 #@! TO.N,GND*
X110487500Y-89420000D03*
G04 #@! TO.P,U3,10*
G04 #@! TO.N,ALERT*
X128272500Y-89420000D03*
G04 #@! TO.P,U3,11*
G04 #@! TO.N,RXD*
X128272500Y-87920000D03*
G04 #@! TO.P,U3,12*
G04 #@! TO.N,TXD*
X128272500Y-86420000D03*
G04 #@! TO.P,U3,13*
G04 #@! TO.N,GND*
X128272500Y-84920000D03*
G04 #@! TO.P,U3,14*
G04 #@! TO.N,IO5*
X128272500Y-83420000D03*
G04 #@! TO.P,U3,15*
G04 #@! TO.N,Net-(C4-Pad1)*
X128272500Y-81920000D03*
G04 #@! TO.P,U3,16*
G04 #@! TO.N,Net-(U3-Pad16)*
X128272500Y-80420000D03*
G04 #@! TO.P,U3,17*
G04 #@! TO.N,Net-(U3-Pad17)*
X128272500Y-78920000D03*
G04 #@! TO.P,U3,18*
G04 #@! TO.N,GND*
X128272500Y-77420000D03*
D21*
G04 #@! TO.P,U3,19*
X120380000Y-83820000D03*
G04 #@! TD*
D22*
G04 #@! TO.P,J1,1*
G04 #@! TO.N,VIN*
X119380000Y-124840000D03*
G04 #@! TO.P,J1,3*
G04 #@! TO.N,GND*
X124460000Y-124840000D03*
G04 #@! TO.P,J1,5*
G04 #@! TO.N,RXD*
X129540000Y-124840000D03*
G04 #@! TO.P,J1,2*
G04 #@! TO.N,+3V3*
X121920000Y-121540000D03*
G04 #@! TO.P,J1,4*
G04 #@! TO.N,TXD*
X127000000Y-121540000D03*
G04 #@! TD*
D23*
G04 #@! TO.N,GND*
X103759000Y-80518000D03*
X103632000Y-87757000D03*
X117856000Y-114935000D03*
X132842000Y-78613000D03*
X120904000Y-103759000D03*
X104902000Y-103378000D03*
X127508000Y-110236000D03*
G04 #@! TO.N,Net-(D1-Pad2)*
X110490000Y-117221000D03*
G04 #@! TO.N,RXD*
X131953000Y-124841000D03*
G04 #@! TO.N,TXD*
X127000000Y-119634000D03*
X130175000Y-86487000D03*
G04 #@! TO.N,RXD*
X130175000Y-87884000D03*
G04 #@! TO.N,+3V3*
X115062000Y-109347000D03*
X107823000Y-90170000D03*
X104394000Y-84074000D03*
G04 #@! TO.N,SDA*
X118618000Y-103124000D03*
X123190000Y-108458000D03*
G04 #@! TD*
D24*
G04 #@! TO.N,GND*
X104385000Y-87512000D02*
X104385000Y-86360000D01*
X103632000Y-87757000D02*
X104140000Y-87757000D01*
X104140000Y-87757000D02*
X104385000Y-87512000D01*
X121424700Y-104279700D02*
X120904000Y-103759000D01*
X121424700Y-105705001D02*
X121424700Y-104279700D01*
X110340000Y-99060000D02*
X112372000Y-101092000D01*
X118237000Y-101092000D02*
X120904000Y-103759000D01*
X112372000Y-101092000D02*
X118237000Y-101092000D01*
X127508000Y-110236000D02*
X131064000Y-110236000D01*
X131064000Y-110236000D02*
X133350000Y-107950000D01*
X133350000Y-103990000D02*
X128420000Y-99060000D01*
X133350000Y-107950000D02*
X133350000Y-103990000D01*
G04 #@! TO.N,+3V3*
X125612000Y-113275000D02*
X128270000Y-113275000D01*
X125537000Y-113350000D02*
X125612000Y-113275000D01*
X130810000Y-107705000D02*
X128270000Y-107705000D01*
X127470000Y-107705000D02*
X125730000Y-107705000D01*
X128270000Y-107705000D02*
X127470000Y-107705000D01*
X125095000Y-116459000D02*
X125095000Y-113350000D01*
X121920000Y-119634000D02*
X125095000Y-116459000D01*
X121920000Y-121540000D02*
X121920000Y-119634000D01*
X123105000Y-113350000D02*
X125095000Y-113350000D01*
X125095000Y-113350000D02*
X125537000Y-113350000D01*
X134375000Y-86360000D02*
X134375000Y-87160000D01*
X134375000Y-88265000D02*
X134375000Y-90170000D01*
X134375000Y-87160000D02*
X134375000Y-88265000D01*
X106435000Y-78740000D02*
X107696000Y-78740000D01*
X109016000Y-77420000D02*
X110487500Y-77420000D01*
X107696000Y-78740000D02*
X109016000Y-77420000D01*
X125612000Y-112404000D02*
X125612000Y-113275000D01*
X124333000Y-111125000D02*
X125612000Y-112404000D01*
X125730000Y-107705000D02*
X124705000Y-107705000D01*
X124705000Y-107705000D02*
X124333000Y-108077000D01*
X124333000Y-109347000D02*
X124333000Y-111125000D01*
X124333000Y-108077000D02*
X124333000Y-109347000D01*
X116246001Y-107654999D02*
X117335300Y-107654999D01*
X115951000Y-107950000D02*
X116246001Y-107654999D01*
X115951000Y-108585000D02*
X115951000Y-107950000D01*
X124333000Y-109347000D02*
X116713000Y-109347000D01*
X104385000Y-84065000D02*
X104394000Y-84074000D01*
X104385000Y-82550000D02*
X104385000Y-84065000D01*
X106435000Y-90170000D02*
X107823000Y-90170000D01*
X115951000Y-108585000D02*
X115951000Y-109347000D01*
X116713000Y-109347000D02*
X115951000Y-109347000D01*
X115951000Y-109347000D02*
X115062000Y-109347000D01*
X128607434Y-92075000D02*
X132417434Y-88265000D01*
X121241434Y-92075000D02*
X128607434Y-92075000D01*
X120015010Y-99822010D02*
X120015010Y-93301424D01*
X131817000Y-107705000D02*
X132080000Y-107442000D01*
X132417434Y-88265000D02*
X134375000Y-88265000D01*
X130810000Y-107705000D02*
X131817000Y-107705000D01*
X132080000Y-107442000D02*
X132080000Y-104691566D01*
X132080000Y-104691566D02*
X130639434Y-103251000D01*
X120015010Y-93301424D02*
X121241434Y-92075000D01*
X130639434Y-103251000D02*
X123444000Y-103251000D01*
X123444000Y-103251000D02*
X120015010Y-99822010D01*
X107696000Y-79756000D02*
X107696000Y-78740000D01*
X106172000Y-81280000D02*
X107696000Y-79756000D01*
X104775000Y-81280000D02*
X106172000Y-81280000D01*
X104385000Y-82550000D02*
X104385000Y-81670000D01*
X104385000Y-81670000D02*
X104775000Y-81280000D01*
G04 #@! TO.N,ALERT*
X121424700Y-106354999D02*
X123134001Y-106354999D01*
X123443980Y-106045020D02*
X123443980Y-105283020D01*
X123134001Y-106354999D02*
X123443980Y-106045020D01*
X124841010Y-103885990D02*
X130555990Y-103885990D01*
X130810000Y-104140000D02*
X130810000Y-105655000D01*
X130555990Y-103885990D02*
X130810000Y-104140000D01*
X124079000Y-104648000D02*
X124841010Y-103885990D01*
X123443980Y-105283020D02*
X124079000Y-104648000D01*
X119507000Y-93091000D02*
X119507000Y-100076000D01*
X129269000Y-89420000D02*
X129667000Y-89818000D01*
X129667000Y-89818000D02*
X129667000Y-90297000D01*
X129667000Y-90297000D02*
X128397000Y-91567000D01*
X119507000Y-100076000D02*
X124079000Y-104648000D01*
X128272500Y-89420000D02*
X129269000Y-89420000D01*
X128397000Y-91567000D02*
X121031000Y-91567000D01*
X121031000Y-91567000D02*
X119507000Y-93091000D01*
G04 #@! TO.N,VIN*
X111503000Y-112900000D02*
X110490000Y-112900000D01*
X113030000Y-113275000D02*
X111878000Y-113275000D01*
X111878000Y-113275000D02*
X111503000Y-112900000D01*
X113030000Y-113275000D02*
X115570000Y-113275000D01*
X120735000Y-113350000D02*
X118176000Y-113350000D01*
X118101000Y-113275000D02*
X118176000Y-113350000D01*
X115570000Y-113275000D02*
X118101000Y-113275000D01*
X107699000Y-112900000D02*
X110490000Y-112900000D01*
X107188000Y-113411000D02*
X107699000Y-112900000D01*
X107188000Y-123444000D02*
X107188000Y-113411000D01*
X119380000Y-124840000D02*
X108584000Y-124840000D01*
X108584000Y-124840000D02*
X107188000Y-123444000D01*
G04 #@! TO.N,SDA*
X124036567Y-107654999D02*
X124460000Y-107231566D01*
X124460000Y-107231566D02*
X124460000Y-106045000D01*
X124850000Y-105655000D02*
X125730000Y-105655000D01*
X124460000Y-106045000D02*
X124850000Y-105655000D01*
X123190000Y-107654999D02*
X123190000Y-108458000D01*
X123190000Y-107654999D02*
X124036567Y-107654999D01*
X121424700Y-107654999D02*
X123190000Y-107654999D01*
X109491000Y-86420000D02*
X108027000Y-87884000D01*
X110487500Y-86420000D02*
X109491000Y-86420000D01*
X108027000Y-87884000D02*
X104902000Y-87884000D01*
X104902000Y-87884000D02*
X103251000Y-89535000D01*
X103251000Y-89535000D02*
X103251000Y-97325566D01*
X103251000Y-97325566D02*
X108033424Y-102107990D01*
X117601990Y-102107990D02*
X118618000Y-103124000D01*
X108033424Y-102107990D02*
X117601990Y-102107990D01*
G04 #@! TO.N,SCL*
X123626999Y-107005001D02*
X121424700Y-107005001D01*
X123951990Y-106680010D02*
X123626999Y-107005001D01*
X123951990Y-105765624D02*
X123951990Y-106680010D01*
X128270000Y-104648000D02*
X128016000Y-104394000D01*
X128016000Y-104394000D02*
X125095000Y-104394000D01*
X128270000Y-105655000D02*
X128270000Y-104648000D01*
X125095000Y-104394000D02*
X123952000Y-105537000D01*
X123952000Y-105537000D02*
X123952000Y-105765614D01*
X123952000Y-105765614D02*
X123951990Y-105765624D01*
X119959001Y-107005001D02*
X121424700Y-107005001D01*
X107823000Y-102616000D02*
X116332000Y-102616000D01*
X102743000Y-97536000D02*
X107823000Y-102616000D01*
X102743000Y-85217000D02*
X102743000Y-97536000D01*
X109491000Y-80420000D02*
X108204010Y-81706990D01*
X118745000Y-105029000D02*
X118745000Y-105791000D01*
X110487500Y-80420000D02*
X109491000Y-80420000D01*
X116332000Y-102616000D02*
X118745000Y-105029000D01*
X108204010Y-81706990D02*
X108204010Y-82676990D01*
X108204010Y-82676990D02*
X105918000Y-84963000D01*
X105918000Y-84963000D02*
X102997000Y-84963000D01*
X118745000Y-105791000D02*
X119959001Y-107005001D01*
X102997000Y-84963000D02*
X102743000Y-85217000D01*
G04 #@! TO.N,Net-(D1-Pad2)*
X110490000Y-115700000D02*
X110490000Y-117221000D01*
G04 #@! TO.N,IO5*
X129269000Y-83420000D02*
X128272500Y-83420000D01*
X130576000Y-83420000D02*
X129269000Y-83420000D01*
X131446000Y-82550000D02*
X130576000Y-83420000D01*
X132300000Y-82550000D02*
X131446000Y-82550000D01*
G04 #@! TO.N,Net-(D2-Pad1)*
X132325000Y-86360000D02*
X132325000Y-85480000D01*
X132325000Y-85479000D02*
X132325000Y-85480000D01*
X134400000Y-83404000D02*
X132325000Y-85479000D01*
X134400000Y-82550000D02*
X134400000Y-83404000D01*
G04 #@! TO.N,TXD*
X129336000Y-86487000D02*
X130175000Y-86487000D01*
X128272500Y-86420000D02*
X129269000Y-86420000D01*
X129269000Y-86420000D02*
X129336000Y-86487000D01*
X127000000Y-121540000D02*
X127000000Y-119634000D01*
G04 #@! TO.N,RXD*
X129286000Y-87884000D02*
X130175000Y-87884000D01*
X128272500Y-87920000D02*
X129250000Y-87920000D01*
X129250000Y-87920000D02*
X129286000Y-87884000D01*
X131952000Y-124840000D02*
X131953000Y-124841000D01*
X129540000Y-124840000D02*
X131952000Y-124840000D01*
G04 #@! TO.N,Net-(R2-Pad2)*
X119806000Y-115250000D02*
X118470000Y-116586000D01*
X120735000Y-115250000D02*
X119806000Y-115250000D01*
X118470000Y-116586000D02*
X113411000Y-116586000D01*
X113030000Y-116205000D02*
X113030000Y-115325000D01*
X113411000Y-116586000D02*
X113030000Y-116205000D01*
G04 #@! TO.N,Net-(C4-Pad1)*
X123274000Y-94560000D02*
X128420000Y-94560000D01*
X121920000Y-94560000D02*
X123274000Y-94560000D01*
X134375000Y-93980000D02*
X135128000Y-93980000D01*
X135128000Y-93980000D02*
X135636000Y-93472000D01*
X129269000Y-81920000D02*
X128272500Y-81920000D01*
X135636000Y-81534000D02*
X135255000Y-81153000D01*
X135255000Y-81153000D02*
X130036000Y-81153000D01*
X130036000Y-81153000D02*
X129269000Y-81920000D01*
X128420000Y-94560000D02*
X131032000Y-91948000D01*
X135636000Y-93472000D02*
X135636000Y-91948000D01*
X135636000Y-91948000D02*
X135636000Y-81534000D01*
X132325000Y-91939000D02*
X132334000Y-91948000D01*
X132325000Y-90170000D02*
X132325000Y-91939000D01*
X131032000Y-91948000D02*
X132334000Y-91948000D01*
X132334000Y-91948000D02*
X135636000Y-91948000D01*
G04 #@! TO.N,Net-(R6-Pad1)*
X104385000Y-89290000D02*
X104385000Y-90170000D01*
X105283000Y-88392000D02*
X104385000Y-89290000D01*
X108237434Y-88392000D02*
X105283000Y-88392000D01*
X110487500Y-87920000D02*
X108709434Y-87920000D01*
X108709434Y-87920000D02*
X108237434Y-88392000D01*
X104385000Y-93980000D02*
X104385000Y-90170000D01*
G04 #@! TO.N,Net-(R6-Pad2)*
X110340000Y-94560000D02*
X108657000Y-94560000D01*
X108657000Y-94560000D02*
X108077000Y-93980000D01*
X108077000Y-93980000D02*
X106435000Y-93980000D01*
X110340000Y-94560000D02*
X116840000Y-94560000D01*
G04 #@! TO.N,Net-(R8-Pad2)*
X107110000Y-82550000D02*
X106435000Y-82550000D01*
X107442000Y-82550000D02*
X107110000Y-82550000D01*
X107696000Y-82296000D02*
X107442000Y-82550000D01*
X107696000Y-80645000D02*
X107696000Y-82296000D01*
X110487500Y-78920000D02*
X109421000Y-78920000D01*
X109421000Y-78920000D02*
X107696000Y-80645000D01*
G04 #@! TO.N,Net-(R9-Pad1)*
X107950000Y-104140000D02*
X107950000Y-105655000D01*
X108204000Y-103886000D02*
X107950000Y-104140000D01*
X113875434Y-103886000D02*
X108204000Y-103886000D01*
X117335300Y-105705001D02*
X115694435Y-105705001D01*
X115694435Y-105705001D02*
X113875434Y-103886000D01*
G04 #@! TO.N,Net-(R10-Pad1)*
X110744000Y-104394000D02*
X113665000Y-104394000D01*
X113665000Y-104394000D02*
X114808000Y-105537000D01*
X110490000Y-104648000D02*
X110744000Y-104394000D01*
X110490000Y-105655000D02*
X110490000Y-104648000D01*
X117335300Y-106354999D02*
X115117999Y-106354999D01*
X114808000Y-106045000D02*
X114808000Y-105537000D01*
X115117999Y-106354999D02*
X114808000Y-106045000D01*
G04 #@! TO.N,Net-(R12-Pad1)*
X106435000Y-86360000D02*
X107442000Y-86360000D01*
X108882000Y-84920000D02*
X110487500Y-84920000D01*
X107442000Y-86360000D02*
X108882000Y-84920000D01*
G04 #@! TO.N,Net-(R13-Pad1)*
X117335300Y-107005001D02*
X114625001Y-107005001D01*
X114625001Y-107005001D02*
X114300000Y-106680000D01*
X113030000Y-105655000D02*
X114037000Y-105655000D01*
X114300000Y-105918000D02*
X114300000Y-106680000D01*
X114037000Y-105655000D02*
X114300000Y-105918000D01*
G04 #@! TD*
G04 #@! TO.N,GND*
G36*
X126895000Y-77134250D02*
X127053750Y-77293000D01*
X128145500Y-77293000D01*
X128145500Y-77273000D01*
X128399500Y-77273000D01*
X128399500Y-77293000D01*
X129491250Y-77293000D01*
X129650000Y-77134250D01*
X129650000Y-76910000D01*
X136450000Y-76910000D01*
X136450001Y-126290000D01*
X130434666Y-126290000D01*
X130497809Y-126247809D01*
X130638157Y-126037765D01*
X130687440Y-125790000D01*
X130687440Y-125602000D01*
X131169397Y-125602000D01*
X131334319Y-125766922D01*
X131735748Y-125933200D01*
X132170252Y-125933200D01*
X132571681Y-125766922D01*
X132878922Y-125459681D01*
X133045200Y-125058252D01*
X133045200Y-124623748D01*
X132878922Y-124222319D01*
X132571681Y-123915078D01*
X132170252Y-123748800D01*
X131735748Y-123748800D01*
X131334319Y-123915078D01*
X131171397Y-124078000D01*
X130687440Y-124078000D01*
X130687440Y-123890000D01*
X130638157Y-123642235D01*
X130497809Y-123432191D01*
X130287765Y-123291843D01*
X130040000Y-123242560D01*
X129040000Y-123242560D01*
X128792235Y-123291843D01*
X128582191Y-123432191D01*
X128441843Y-123642235D01*
X128392560Y-123890000D01*
X128392560Y-125790000D01*
X128441843Y-126037765D01*
X128582191Y-126247809D01*
X128645334Y-126290000D01*
X125358026Y-126290000D01*
X125498327Y-126149698D01*
X125595000Y-125916309D01*
X125595000Y-125125750D01*
X125436250Y-124967000D01*
X124587000Y-124967000D01*
X124587000Y-124987000D01*
X124333000Y-124987000D01*
X124333000Y-124967000D01*
X123483750Y-124967000D01*
X123325000Y-125125750D01*
X123325000Y-125916309D01*
X123421673Y-126149698D01*
X123561974Y-126290000D01*
X120274666Y-126290000D01*
X120337809Y-126247809D01*
X120478157Y-126037765D01*
X120527440Y-125790000D01*
X120527440Y-123890000D01*
X120502316Y-123763691D01*
X123325000Y-123763691D01*
X123325000Y-124554250D01*
X123483750Y-124713000D01*
X124333000Y-124713000D01*
X124333000Y-123413750D01*
X124587000Y-123413750D01*
X124587000Y-124713000D01*
X125436250Y-124713000D01*
X125595000Y-124554250D01*
X125595000Y-123763691D01*
X125498327Y-123530302D01*
X125319699Y-123351673D01*
X125086310Y-123255000D01*
X124745750Y-123255000D01*
X124587000Y-123413750D01*
X124333000Y-123413750D01*
X124174250Y-123255000D01*
X123833690Y-123255000D01*
X123600301Y-123351673D01*
X123421673Y-123530302D01*
X123325000Y-123763691D01*
X120502316Y-123763691D01*
X120478157Y-123642235D01*
X120337809Y-123432191D01*
X120127765Y-123291843D01*
X119880000Y-123242560D01*
X118880000Y-123242560D01*
X118632235Y-123291843D01*
X118422191Y-123432191D01*
X118281843Y-123642235D01*
X118232560Y-123890000D01*
X118232560Y-124078000D01*
X108899631Y-124078000D01*
X107950000Y-123128370D01*
X107950000Y-120403548D01*
X108251000Y-120403548D01*
X108251000Y-120896452D01*
X108439627Y-121351837D01*
X108788163Y-121700373D01*
X109243548Y-121889000D01*
X109736452Y-121889000D01*
X110191837Y-121700373D01*
X110327416Y-121564794D01*
X110347673Y-121613699D01*
X110526302Y-121792327D01*
X110759691Y-121889000D01*
X111204250Y-121889000D01*
X111363000Y-121730250D01*
X111363000Y-120777000D01*
X111617000Y-120777000D01*
X111617000Y-121730250D01*
X111775750Y-121889000D01*
X112220309Y-121889000D01*
X112453698Y-121792327D01*
X112632327Y-121613699D01*
X112729000Y-121380310D01*
X112729000Y-120935750D01*
X112570250Y-120777000D01*
X111617000Y-120777000D01*
X111363000Y-120777000D01*
X111343000Y-120777000D01*
X111343000Y-120523000D01*
X111363000Y-120523000D01*
X111363000Y-119569750D01*
X111617000Y-119569750D01*
X111617000Y-120523000D01*
X112570250Y-120523000D01*
X112729000Y-120364250D01*
X112729000Y-119919690D01*
X112632327Y-119686301D01*
X112453698Y-119507673D01*
X112220309Y-119411000D01*
X111775750Y-119411000D01*
X111617000Y-119569750D01*
X111363000Y-119569750D01*
X111204250Y-119411000D01*
X110759691Y-119411000D01*
X110526302Y-119507673D01*
X110347673Y-119686301D01*
X110327416Y-119735206D01*
X110191837Y-119599627D01*
X109736452Y-119411000D01*
X109243548Y-119411000D01*
X108788163Y-119599627D01*
X108439627Y-119948163D01*
X108251000Y-120403548D01*
X107950000Y-120403548D01*
X107950000Y-113726630D01*
X108014631Y-113662000D01*
X109334729Y-113662000D01*
X109341843Y-113697765D01*
X109482191Y-113907809D01*
X109692235Y-114048157D01*
X109940000Y-114097440D01*
X111040000Y-114097440D01*
X111287765Y-114048157D01*
X111475656Y-113922611D01*
X111580683Y-113992788D01*
X111802952Y-114037000D01*
X111802956Y-114037000D01*
X111814990Y-114039394D01*
X111945414Y-114234586D01*
X112043313Y-114300000D01*
X111945414Y-114365414D01*
X111750873Y-114656564D01*
X111682560Y-114999999D01*
X111682560Y-115125466D01*
X111638157Y-114902235D01*
X111497809Y-114692191D01*
X111287765Y-114551843D01*
X111040000Y-114502560D01*
X109940000Y-114502560D01*
X109692235Y-114551843D01*
X109482191Y-114692191D01*
X109341843Y-114902235D01*
X109292560Y-115150000D01*
X109292560Y-116250000D01*
X109341843Y-116497765D01*
X109482191Y-116707809D01*
X109512103Y-116727796D01*
X109397800Y-117003748D01*
X109397800Y-117438252D01*
X109564078Y-117839681D01*
X109871319Y-118146922D01*
X110272748Y-118313200D01*
X110707252Y-118313200D01*
X111108681Y-118146922D01*
X111415922Y-117839681D01*
X111582200Y-117438252D01*
X111582200Y-117003748D01*
X111467897Y-116727796D01*
X111497809Y-116707809D01*
X111638157Y-116497765D01*
X111687440Y-116250000D01*
X111687440Y-115674535D01*
X111750873Y-115993436D01*
X111945414Y-116284586D01*
X112236564Y-116479127D01*
X112310526Y-116493839D01*
X112312212Y-116502316D01*
X112480629Y-116754371D01*
X112544254Y-116796884D01*
X112819116Y-117071746D01*
X112861629Y-117135371D01*
X113012123Y-117235928D01*
X113113681Y-117303787D01*
X113113682Y-117303787D01*
X113113683Y-117303788D01*
X113335952Y-117348000D01*
X113335956Y-117348000D01*
X113410999Y-117362927D01*
X113486042Y-117348000D01*
X118394957Y-117348000D01*
X118470000Y-117362927D01*
X118545043Y-117348000D01*
X118545048Y-117348000D01*
X118767317Y-117303788D01*
X119019371Y-117135371D01*
X119061883Y-117071747D01*
X119956732Y-116176899D01*
X120060000Y-116197440D01*
X121410000Y-116197440D01*
X121657765Y-116148157D01*
X121867809Y-116007809D01*
X121920000Y-115929700D01*
X121972191Y-116007809D01*
X122182235Y-116148157D01*
X122430000Y-116197440D01*
X123780000Y-116197440D01*
X124027765Y-116148157D01*
X124237809Y-116007809D01*
X124333000Y-115865346D01*
X124333000Y-116143369D01*
X121434251Y-119042119D01*
X121370630Y-119084629D01*
X121328119Y-119148251D01*
X121328118Y-119148252D01*
X121202213Y-119336683D01*
X121143073Y-119634000D01*
X121158001Y-119709048D01*
X121158001Y-120001354D01*
X120962191Y-120132191D01*
X120821843Y-120342235D01*
X120772560Y-120590000D01*
X120772560Y-122490000D01*
X120821843Y-122737765D01*
X120962191Y-122947809D01*
X121172235Y-123088157D01*
X121420000Y-123137440D01*
X122420000Y-123137440D01*
X122667765Y-123088157D01*
X122877809Y-122947809D01*
X123018157Y-122737765D01*
X123067440Y-122490000D01*
X123067440Y-120590000D01*
X125852560Y-120590000D01*
X125852560Y-122490000D01*
X125901843Y-122737765D01*
X126042191Y-122947809D01*
X126252235Y-123088157D01*
X126500000Y-123137440D01*
X127500000Y-123137440D01*
X127747765Y-123088157D01*
X127957809Y-122947809D01*
X128098157Y-122737765D01*
X128147440Y-122490000D01*
X128147440Y-120590000D01*
X128098157Y-120342235D01*
X127968934Y-120148841D01*
X128092200Y-119851252D01*
X128092200Y-119416748D01*
X127925922Y-119015319D01*
X127618681Y-118708078D01*
X127217252Y-118541800D01*
X126782748Y-118541800D01*
X126381319Y-118708078D01*
X126074078Y-119015319D01*
X125907800Y-119416748D01*
X125907800Y-119851252D01*
X126031066Y-120148841D01*
X125901843Y-120342235D01*
X125852560Y-120590000D01*
X123067440Y-120590000D01*
X123018157Y-120342235D01*
X122877809Y-120132191D01*
X122682000Y-120001355D01*
X122682000Y-119949630D01*
X125580750Y-117050881D01*
X125644371Y-117008371D01*
X125812788Y-116756317D01*
X125857000Y-116534048D01*
X125857000Y-116534044D01*
X125871927Y-116459001D01*
X125857000Y-116383958D01*
X125857000Y-115610750D01*
X126935000Y-115610750D01*
X126935000Y-116026309D01*
X127031673Y-116259698D01*
X127210301Y-116438327D01*
X127443690Y-116535000D01*
X127984250Y-116535000D01*
X128143000Y-116376250D01*
X128143000Y-115452000D01*
X128397000Y-115452000D01*
X128397000Y-116376250D01*
X128555750Y-116535000D01*
X129096310Y-116535000D01*
X129329699Y-116438327D01*
X129508327Y-116259698D01*
X129605000Y-116026309D01*
X129605000Y-115610750D01*
X129446250Y-115452000D01*
X128397000Y-115452000D01*
X128143000Y-115452000D01*
X127093750Y-115452000D01*
X126935000Y-115610750D01*
X125857000Y-115610750D01*
X125857000Y-114052632D01*
X125880395Y-114037000D01*
X127053391Y-114037000D01*
X127185414Y-114234586D01*
X127186597Y-114235377D01*
X127031673Y-114390302D01*
X126935000Y-114623691D01*
X126935000Y-115039250D01*
X127093750Y-115198000D01*
X128143000Y-115198000D01*
X128143000Y-115178000D01*
X128397000Y-115178000D01*
X128397000Y-115198000D01*
X129446250Y-115198000D01*
X129605000Y-115039250D01*
X129605000Y-114623691D01*
X129508327Y-114390302D01*
X129353403Y-114235377D01*
X129354586Y-114234586D01*
X129549127Y-113943436D01*
X129617440Y-113600001D01*
X129617440Y-112949999D01*
X129549127Y-112606564D01*
X129354586Y-112315414D01*
X129063436Y-112120873D01*
X128720001Y-112052560D01*
X127819999Y-112052560D01*
X127476564Y-112120873D01*
X127185414Y-112315414D01*
X127053391Y-112513000D01*
X126374000Y-112513000D01*
X126374000Y-112479042D01*
X126388927Y-112403999D01*
X126374000Y-112328956D01*
X126374000Y-112328952D01*
X126329788Y-112106683D01*
X126161371Y-111854629D01*
X126097750Y-111812119D01*
X125095000Y-110809370D01*
X125095000Y-109422048D01*
X125109928Y-109347000D01*
X125095000Y-109271952D01*
X125095000Y-108890642D01*
X125279999Y-108927440D01*
X126180001Y-108927440D01*
X126523436Y-108859127D01*
X126814586Y-108664586D01*
X126946609Y-108467000D01*
X127053391Y-108467000D01*
X127185414Y-108664586D01*
X127476564Y-108859127D01*
X127819999Y-108927440D01*
X128720001Y-108927440D01*
X129063436Y-108859127D01*
X129354586Y-108664586D01*
X129486609Y-108467000D01*
X129593391Y-108467000D01*
X129725414Y-108664586D01*
X130016564Y-108859127D01*
X130359999Y-108927440D01*
X131260001Y-108927440D01*
X131603436Y-108859127D01*
X131894586Y-108664586D01*
X132047235Y-108436131D01*
X132114317Y-108422788D01*
X132366371Y-108254371D01*
X132408884Y-108190746D01*
X132565747Y-108033883D01*
X132629371Y-107991371D01*
X132797788Y-107739317D01*
X132842000Y-107517048D01*
X132842000Y-107517044D01*
X132856927Y-107442001D01*
X132842000Y-107366958D01*
X132842000Y-104766609D01*
X132856927Y-104691566D01*
X132842000Y-104616523D01*
X132842000Y-104616518D01*
X132797788Y-104394249D01*
X132629371Y-104142195D01*
X132565749Y-104099684D01*
X131231317Y-102765253D01*
X131188805Y-102701629D01*
X130936751Y-102533212D01*
X130714482Y-102489000D01*
X130714477Y-102489000D01*
X130639434Y-102474073D01*
X130564391Y-102489000D01*
X123759631Y-102489000D01*
X122061926Y-100791296D01*
X122321453Y-100782836D01*
X122854359Y-100562099D01*
X122965263Y-100284868D01*
X127374737Y-100284868D01*
X127485641Y-100562099D01*
X128131593Y-100805323D01*
X128821453Y-100782836D01*
X129354359Y-100562099D01*
X129465263Y-100284868D01*
X128420000Y-99239605D01*
X127374737Y-100284868D01*
X122965263Y-100284868D01*
X121920000Y-99239605D01*
X121905858Y-99253748D01*
X121726253Y-99074143D01*
X121740395Y-99060000D01*
X122099605Y-99060000D01*
X123144868Y-100105263D01*
X123422099Y-99994359D01*
X123665323Y-99348407D01*
X123646521Y-98771593D01*
X126674677Y-98771593D01*
X126697164Y-99461453D01*
X126917901Y-99994359D01*
X127195132Y-100105263D01*
X128240395Y-99060000D01*
X128599605Y-99060000D01*
X129644868Y-100105263D01*
X129922099Y-99994359D01*
X130165323Y-99348407D01*
X130142836Y-98658547D01*
X129922099Y-98125641D01*
X129644868Y-98014737D01*
X128599605Y-99060000D01*
X128240395Y-99060000D01*
X127195132Y-98014737D01*
X126917901Y-98125641D01*
X126674677Y-98771593D01*
X123646521Y-98771593D01*
X123642836Y-98658547D01*
X123422099Y-98125641D01*
X123144868Y-98014737D01*
X122099605Y-99060000D01*
X121740395Y-99060000D01*
X121726253Y-99045858D01*
X121905858Y-98866253D01*
X121920000Y-98880395D01*
X122965263Y-97835132D01*
X127374737Y-97835132D01*
X128420000Y-98880395D01*
X129465263Y-97835132D01*
X129354359Y-97557901D01*
X128708407Y-97314677D01*
X128018547Y-97337164D01*
X127485641Y-97557901D01*
X127374737Y-97835132D01*
X122965263Y-97835132D01*
X122854359Y-97557901D01*
X122208407Y-97314677D01*
X121518547Y-97337164D01*
X120985641Y-97557901D01*
X120874738Y-97835130D01*
X120777010Y-97737402D01*
X120777010Y-96298889D01*
X120820000Y-96307440D01*
X123020000Y-96307440D01*
X123267765Y-96258157D01*
X123477809Y-96117809D01*
X123618157Y-95907765D01*
X123667440Y-95660000D01*
X123667440Y-95322000D01*
X126857680Y-95322000D01*
X126949138Y-95542799D01*
X127437201Y-96030862D01*
X128074887Y-96295000D01*
X128765113Y-96295000D01*
X129402799Y-96030862D01*
X129890862Y-95542799D01*
X130155000Y-94905113D01*
X130155000Y-94265750D01*
X131115000Y-94265750D01*
X131115000Y-94806310D01*
X131211673Y-95039699D01*
X131390302Y-95218327D01*
X131623691Y-95315000D01*
X132039250Y-95315000D01*
X132198000Y-95156250D01*
X132198000Y-94107000D01*
X131273750Y-94107000D01*
X131115000Y-94265750D01*
X130155000Y-94265750D01*
X130155000Y-94214887D01*
X130063542Y-93994088D01*
X131347631Y-92710000D01*
X131466767Y-92710000D01*
X131390302Y-92741673D01*
X131211673Y-92920301D01*
X131115000Y-93153690D01*
X131115000Y-93694250D01*
X131273750Y-93853000D01*
X132198000Y-93853000D01*
X132198000Y-93833000D01*
X132452000Y-93833000D01*
X132452000Y-93853000D01*
X132472000Y-93853000D01*
X132472000Y-94107000D01*
X132452000Y-94107000D01*
X132452000Y-95156250D01*
X132610750Y-95315000D01*
X133026309Y-95315000D01*
X133259698Y-95218327D01*
X133414623Y-95063403D01*
X133415414Y-95064586D01*
X133706564Y-95259127D01*
X134049999Y-95327440D01*
X134700001Y-95327440D01*
X135043436Y-95259127D01*
X135334586Y-95064586D01*
X135529127Y-94773436D01*
X135562393Y-94606197D01*
X135677371Y-94529371D01*
X135719884Y-94465746D01*
X136121747Y-94063883D01*
X136185371Y-94021371D01*
X136353788Y-93769317D01*
X136398000Y-93547048D01*
X136398000Y-93547044D01*
X136412927Y-93472001D01*
X136398000Y-93396958D01*
X136398000Y-92023047D01*
X136412928Y-91948000D01*
X136398000Y-91872952D01*
X136398000Y-81609042D01*
X136412927Y-81533999D01*
X136398000Y-81458956D01*
X136398000Y-81458952D01*
X136353788Y-81236683D01*
X136185371Y-80984629D01*
X136121746Y-80942116D01*
X135846884Y-80667254D01*
X135804371Y-80603629D01*
X135552317Y-80435212D01*
X135330048Y-80391000D01*
X135330043Y-80391000D01*
X135255000Y-80376073D01*
X135179957Y-80391000D01*
X130111047Y-80391000D01*
X130036000Y-80376072D01*
X129960953Y-80391000D01*
X129960952Y-80391000D01*
X129738683Y-80435212D01*
X129662440Y-80486156D01*
X129662440Y-79970000D01*
X129613157Y-79722235D01*
X129578254Y-79670000D01*
X129613157Y-79617765D01*
X129662440Y-79370000D01*
X129662440Y-78470000D01*
X129613157Y-78222235D01*
X129578131Y-78169816D01*
X129650000Y-77996310D01*
X129650000Y-77705750D01*
X129491250Y-77547000D01*
X128399500Y-77547000D01*
X128399500Y-77567000D01*
X128145500Y-77567000D01*
X128145500Y-77547000D01*
X127053750Y-77547000D01*
X126895000Y-77705750D01*
X126895000Y-77996310D01*
X126966869Y-78169816D01*
X126931843Y-78222235D01*
X126882560Y-78470000D01*
X126882560Y-79370000D01*
X126931843Y-79617765D01*
X126966746Y-79670000D01*
X126931843Y-79722235D01*
X126882560Y-79970000D01*
X126882560Y-80870000D01*
X126931843Y-81117765D01*
X126966746Y-81170000D01*
X126931843Y-81222235D01*
X126882560Y-81470000D01*
X126882560Y-82370000D01*
X126931843Y-82617765D01*
X126966746Y-82670000D01*
X126931843Y-82722235D01*
X126882560Y-82970000D01*
X126882560Y-83870000D01*
X126931843Y-84117765D01*
X126966869Y-84170184D01*
X126895000Y-84343690D01*
X126895000Y-84634250D01*
X127053750Y-84793000D01*
X128145500Y-84793000D01*
X128145500Y-84773000D01*
X128399500Y-84773000D01*
X128399500Y-84793000D01*
X129491250Y-84793000D01*
X129650000Y-84634250D01*
X129650000Y-84343690D01*
X129583026Y-84182000D01*
X130500957Y-84182000D01*
X130576000Y-84196927D01*
X130651043Y-84182000D01*
X130651048Y-84182000D01*
X130873317Y-84137788D01*
X131125371Y-83969371D01*
X131167883Y-83905747D01*
X131376247Y-83697383D01*
X131452235Y-83748157D01*
X131700000Y-83797440D01*
X132900000Y-83797440D01*
X132936113Y-83790257D01*
X131839253Y-84887117D01*
X131775629Y-84929629D01*
X131677332Y-85076742D01*
X131656564Y-85080873D01*
X131365414Y-85275414D01*
X131170873Y-85566564D01*
X131107630Y-85884512D01*
X131100922Y-85868319D01*
X130793681Y-85561078D01*
X130392252Y-85394800D01*
X129957748Y-85394800D01*
X129637018Y-85527651D01*
X129650000Y-85496310D01*
X129650000Y-85205750D01*
X129491250Y-85047000D01*
X128399500Y-85047000D01*
X128399500Y-85067000D01*
X128145500Y-85067000D01*
X128145500Y-85047000D01*
X127053750Y-85047000D01*
X126895000Y-85205750D01*
X126895000Y-85496310D01*
X126966869Y-85669816D01*
X126931843Y-85722235D01*
X126882560Y-85970000D01*
X126882560Y-86870000D01*
X126931843Y-87117765D01*
X126966746Y-87170000D01*
X126931843Y-87222235D01*
X126882560Y-87470000D01*
X126882560Y-88370000D01*
X126931843Y-88617765D01*
X126966746Y-88670000D01*
X126931843Y-88722235D01*
X126882560Y-88970000D01*
X126882560Y-89870000D01*
X126931843Y-90117765D01*
X127072191Y-90327809D01*
X127282235Y-90468157D01*
X127530000Y-90517440D01*
X128368930Y-90517440D01*
X128081370Y-90805000D01*
X121106042Y-90805000D01*
X121030999Y-90790073D01*
X120955956Y-90805000D01*
X120955952Y-90805000D01*
X120733683Y-90849212D01*
X120733682Y-90849213D01*
X120733681Y-90849213D01*
X120679641Y-90885322D01*
X120481629Y-91017629D01*
X120439116Y-91081254D01*
X119021254Y-92499116D01*
X118957629Y-92541629D01*
X118789212Y-92793684D01*
X118745000Y-93015953D01*
X118745000Y-93015957D01*
X118730073Y-93091000D01*
X118745000Y-93166043D01*
X118745001Y-100000952D01*
X118730073Y-100076000D01*
X118745001Y-100151048D01*
X118789213Y-100373317D01*
X118957630Y-100625371D01*
X119021251Y-100667881D01*
X123001369Y-104648000D01*
X122958231Y-104691139D01*
X122894610Y-104733649D01*
X122852099Y-104797271D01*
X122852098Y-104797272D01*
X122754478Y-104943371D01*
X122726193Y-104985703D01*
X122704265Y-105095940D01*
X122546398Y-104938074D01*
X122313009Y-104841401D01*
X121710450Y-104841401D01*
X121551700Y-105000151D01*
X121551700Y-105478959D01*
X121297700Y-105478959D01*
X121297700Y-105000151D01*
X121138950Y-104841401D01*
X120536391Y-104841401D01*
X120303002Y-104938074D01*
X120124373Y-105116702D01*
X120027700Y-105350091D01*
X120027700Y-105431951D01*
X120186450Y-105590701D01*
X120321459Y-105590701D01*
X120204891Y-105668590D01*
X120064543Y-105878634D01*
X120049006Y-105956745D01*
X120027700Y-105978051D01*
X120027700Y-105996069D01*
X119507000Y-105475370D01*
X119507000Y-105104042D01*
X119521927Y-105028999D01*
X119507000Y-104953956D01*
X119507000Y-104953952D01*
X119462788Y-104731683D01*
X119435817Y-104691317D01*
X119336882Y-104543251D01*
X119294371Y-104479629D01*
X119230750Y-104437119D01*
X118958698Y-104165067D01*
X119236681Y-104049922D01*
X119543922Y-103742681D01*
X119710200Y-103341252D01*
X119710200Y-102906748D01*
X119543922Y-102505319D01*
X119236681Y-102198078D01*
X118835252Y-102031800D01*
X118603430Y-102031800D01*
X118193873Y-101622243D01*
X118151361Y-101558619D01*
X117899307Y-101390202D01*
X117677038Y-101345990D01*
X117677033Y-101345990D01*
X117601990Y-101331063D01*
X117526947Y-101345990D01*
X108349055Y-101345990D01*
X107287933Y-100284868D01*
X109294737Y-100284868D01*
X109405641Y-100562099D01*
X110051593Y-100805323D01*
X110741453Y-100782836D01*
X111274359Y-100562099D01*
X111385263Y-100284868D01*
X110340000Y-99239605D01*
X109294737Y-100284868D01*
X107287933Y-100284868D01*
X105774658Y-98771593D01*
X108594677Y-98771593D01*
X108617164Y-99461453D01*
X108837901Y-99994359D01*
X109115132Y-100105263D01*
X110160395Y-99060000D01*
X110519605Y-99060000D01*
X111564868Y-100105263D01*
X111842099Y-99994359D01*
X112085323Y-99348407D01*
X112085237Y-99345750D01*
X115105000Y-99345750D01*
X115105000Y-100286310D01*
X115201673Y-100519699D01*
X115380302Y-100698327D01*
X115613691Y-100795000D01*
X116554250Y-100795000D01*
X116713000Y-100636250D01*
X116713000Y-99187000D01*
X116967000Y-99187000D01*
X116967000Y-100636250D01*
X117125750Y-100795000D01*
X118066309Y-100795000D01*
X118299698Y-100698327D01*
X118478327Y-100519699D01*
X118575000Y-100286310D01*
X118575000Y-99345750D01*
X118416250Y-99187000D01*
X116967000Y-99187000D01*
X116713000Y-99187000D01*
X115263750Y-99187000D01*
X115105000Y-99345750D01*
X112085237Y-99345750D01*
X112062836Y-98658547D01*
X111842099Y-98125641D01*
X111564868Y-98014737D01*
X110519605Y-99060000D01*
X110160395Y-99060000D01*
X109115132Y-98014737D01*
X108837901Y-98125641D01*
X108594677Y-98771593D01*
X105774658Y-98771593D01*
X104838197Y-97835132D01*
X109294737Y-97835132D01*
X110340000Y-98880395D01*
X111385263Y-97835132D01*
X111384687Y-97833690D01*
X115105000Y-97833690D01*
X115105000Y-98774250D01*
X115263750Y-98933000D01*
X116713000Y-98933000D01*
X116713000Y-97483750D01*
X116967000Y-97483750D01*
X116967000Y-98933000D01*
X118416250Y-98933000D01*
X118575000Y-98774250D01*
X118575000Y-97833690D01*
X118478327Y-97600301D01*
X118299698Y-97421673D01*
X118066309Y-97325000D01*
X117125750Y-97325000D01*
X116967000Y-97483750D01*
X116713000Y-97483750D01*
X116554250Y-97325000D01*
X115613691Y-97325000D01*
X115380302Y-97421673D01*
X115201673Y-97600301D01*
X115105000Y-97833690D01*
X111384687Y-97833690D01*
X111274359Y-97557901D01*
X110628407Y-97314677D01*
X109938547Y-97337164D01*
X109405641Y-97557901D01*
X109294737Y-97835132D01*
X104838197Y-97835132D01*
X104013000Y-97009936D01*
X104013000Y-95318091D01*
X104059999Y-95327440D01*
X104710001Y-95327440D01*
X105053436Y-95259127D01*
X105344586Y-95064586D01*
X105410000Y-94966687D01*
X105475414Y-95064586D01*
X105766564Y-95259127D01*
X106109999Y-95327440D01*
X106760001Y-95327440D01*
X107103436Y-95259127D01*
X107394586Y-95064586D01*
X107589127Y-94773436D01*
X107595380Y-94742000D01*
X107761370Y-94742000D01*
X108065118Y-95045749D01*
X108107629Y-95109371D01*
X108359683Y-95277788D01*
X108581952Y-95322000D01*
X108581953Y-95322000D01*
X108657000Y-95336928D01*
X108732047Y-95322000D01*
X108777680Y-95322000D01*
X108869138Y-95542799D01*
X109357201Y-96030862D01*
X109994887Y-96295000D01*
X110685113Y-96295000D01*
X111322799Y-96030862D01*
X111810862Y-95542799D01*
X111902320Y-95322000D01*
X115277680Y-95322000D01*
X115369138Y-95542799D01*
X115857201Y-96030862D01*
X116494887Y-96295000D01*
X117185113Y-96295000D01*
X117822799Y-96030862D01*
X118310862Y-95542799D01*
X118575000Y-94905113D01*
X118575000Y-94214887D01*
X118310862Y-93577201D01*
X117822799Y-93089138D01*
X117185113Y-92825000D01*
X116494887Y-92825000D01*
X115857201Y-93089138D01*
X115369138Y-93577201D01*
X115277680Y-93798000D01*
X111902320Y-93798000D01*
X111810862Y-93577201D01*
X111322799Y-93089138D01*
X110685113Y-92825000D01*
X109994887Y-92825000D01*
X109357201Y-93089138D01*
X108869138Y-93577201D01*
X108834780Y-93660149D01*
X108668883Y-93494253D01*
X108626371Y-93430629D01*
X108374317Y-93262212D01*
X108152048Y-93218000D01*
X108152043Y-93218000D01*
X108077000Y-93203073D01*
X108001957Y-93218000D01*
X107595380Y-93218000D01*
X107589127Y-93186564D01*
X107394586Y-92895414D01*
X107103436Y-92700873D01*
X106760001Y-92632560D01*
X106109999Y-92632560D01*
X105766564Y-92700873D01*
X105475414Y-92895414D01*
X105410000Y-92993313D01*
X105344586Y-92895414D01*
X105147000Y-92763391D01*
X105147000Y-91386609D01*
X105344586Y-91254586D01*
X105410000Y-91156687D01*
X105475414Y-91254586D01*
X105766564Y-91449127D01*
X106109999Y-91517440D01*
X106760001Y-91517440D01*
X107103436Y-91449127D01*
X107394586Y-91254586D01*
X107436376Y-91192043D01*
X107605748Y-91262200D01*
X108040252Y-91262200D01*
X108441681Y-91095922D01*
X108748922Y-90788681D01*
X108915200Y-90387252D01*
X108915200Y-89952748D01*
X108812890Y-89705750D01*
X109110000Y-89705750D01*
X109110000Y-89996310D01*
X109206673Y-90229699D01*
X109385302Y-90408327D01*
X109618691Y-90505000D01*
X110201750Y-90505000D01*
X110360500Y-90346250D01*
X110360500Y-89547000D01*
X110614500Y-89547000D01*
X110614500Y-90346250D01*
X110773250Y-90505000D01*
X111356309Y-90505000D01*
X111589698Y-90408327D01*
X111768327Y-90229699D01*
X111865000Y-89996310D01*
X111865000Y-89705750D01*
X111706250Y-89547000D01*
X110614500Y-89547000D01*
X110360500Y-89547000D01*
X109268750Y-89547000D01*
X109110000Y-89705750D01*
X108812890Y-89705750D01*
X108748922Y-89551319D01*
X108441681Y-89244078D01*
X108252849Y-89165861D01*
X108312477Y-89154000D01*
X108312482Y-89154000D01*
X108534751Y-89109788D01*
X108786805Y-88941371D01*
X108829318Y-88877746D01*
X109025064Y-88682000D01*
X109176974Y-88682000D01*
X109110000Y-88843690D01*
X109110000Y-89134250D01*
X109268750Y-89293000D01*
X110360500Y-89293000D01*
X110360500Y-89273000D01*
X110614500Y-89273000D01*
X110614500Y-89293000D01*
X111706250Y-89293000D01*
X111865000Y-89134250D01*
X111865000Y-88843690D01*
X111793131Y-88670184D01*
X111828157Y-88617765D01*
X111877440Y-88370000D01*
X111877440Y-87470000D01*
X111828157Y-87222235D01*
X111793254Y-87170000D01*
X111828157Y-87117765D01*
X111877440Y-86870000D01*
X111877440Y-85970000D01*
X111828157Y-85722235D01*
X111793254Y-85670000D01*
X111828157Y-85617765D01*
X111877440Y-85370000D01*
X111877440Y-84470000D01*
X111828157Y-84222235D01*
X111793254Y-84170000D01*
X111828157Y-84117765D01*
X111830546Y-84105750D01*
X117745000Y-84105750D01*
X117745000Y-85946310D01*
X117841673Y-86179699D01*
X118020302Y-86358327D01*
X118253691Y-86455000D01*
X120094250Y-86455000D01*
X120253000Y-86296250D01*
X120253000Y-83947000D01*
X120507000Y-83947000D01*
X120507000Y-86296250D01*
X120665750Y-86455000D01*
X122506309Y-86455000D01*
X122739698Y-86358327D01*
X122918327Y-86179699D01*
X123015000Y-85946310D01*
X123015000Y-84105750D01*
X122856250Y-83947000D01*
X120507000Y-83947000D01*
X120253000Y-83947000D01*
X117903750Y-83947000D01*
X117745000Y-84105750D01*
X111830546Y-84105750D01*
X111877440Y-83870000D01*
X111877440Y-82970000D01*
X111828157Y-82722235D01*
X111793254Y-82670000D01*
X111828157Y-82617765D01*
X111877440Y-82370000D01*
X111877440Y-81693690D01*
X117745000Y-81693690D01*
X117745000Y-83534250D01*
X117903750Y-83693000D01*
X120253000Y-83693000D01*
X120253000Y-81343750D01*
X120507000Y-81343750D01*
X120507000Y-83693000D01*
X122856250Y-83693000D01*
X123015000Y-83534250D01*
X123015000Y-81693690D01*
X122918327Y-81460301D01*
X122739698Y-81281673D01*
X122506309Y-81185000D01*
X120665750Y-81185000D01*
X120507000Y-81343750D01*
X120253000Y-81343750D01*
X120094250Y-81185000D01*
X118253691Y-81185000D01*
X118020302Y-81281673D01*
X117841673Y-81460301D01*
X117745000Y-81693690D01*
X111877440Y-81693690D01*
X111877440Y-81470000D01*
X111828157Y-81222235D01*
X111793254Y-81170000D01*
X111828157Y-81117765D01*
X111877440Y-80870000D01*
X111877440Y-79970000D01*
X111828157Y-79722235D01*
X111793254Y-79670000D01*
X111828157Y-79617765D01*
X111877440Y-79370000D01*
X111877440Y-78470000D01*
X111828157Y-78222235D01*
X111793254Y-78170000D01*
X111828157Y-78117765D01*
X111877440Y-77870000D01*
X111877440Y-76970000D01*
X111865505Y-76910000D01*
X126895000Y-76910000D01*
X126895000Y-77134250D01*
X126895000Y-77134250D01*
G37*
X126895000Y-77134250D02*
X127053750Y-77293000D01*
X128145500Y-77293000D01*
X128145500Y-77273000D01*
X128399500Y-77273000D01*
X128399500Y-77293000D01*
X129491250Y-77293000D01*
X129650000Y-77134250D01*
X129650000Y-76910000D01*
X136450000Y-76910000D01*
X136450001Y-126290000D01*
X130434666Y-126290000D01*
X130497809Y-126247809D01*
X130638157Y-126037765D01*
X130687440Y-125790000D01*
X130687440Y-125602000D01*
X131169397Y-125602000D01*
X131334319Y-125766922D01*
X131735748Y-125933200D01*
X132170252Y-125933200D01*
X132571681Y-125766922D01*
X132878922Y-125459681D01*
X133045200Y-125058252D01*
X133045200Y-124623748D01*
X132878922Y-124222319D01*
X132571681Y-123915078D01*
X132170252Y-123748800D01*
X131735748Y-123748800D01*
X131334319Y-123915078D01*
X131171397Y-124078000D01*
X130687440Y-124078000D01*
X130687440Y-123890000D01*
X130638157Y-123642235D01*
X130497809Y-123432191D01*
X130287765Y-123291843D01*
X130040000Y-123242560D01*
X129040000Y-123242560D01*
X128792235Y-123291843D01*
X128582191Y-123432191D01*
X128441843Y-123642235D01*
X128392560Y-123890000D01*
X128392560Y-125790000D01*
X128441843Y-126037765D01*
X128582191Y-126247809D01*
X128645334Y-126290000D01*
X125358026Y-126290000D01*
X125498327Y-126149698D01*
X125595000Y-125916309D01*
X125595000Y-125125750D01*
X125436250Y-124967000D01*
X124587000Y-124967000D01*
X124587000Y-124987000D01*
X124333000Y-124987000D01*
X124333000Y-124967000D01*
X123483750Y-124967000D01*
X123325000Y-125125750D01*
X123325000Y-125916309D01*
X123421673Y-126149698D01*
X123561974Y-126290000D01*
X120274666Y-126290000D01*
X120337809Y-126247809D01*
X120478157Y-126037765D01*
X120527440Y-125790000D01*
X120527440Y-123890000D01*
X120502316Y-123763691D01*
X123325000Y-123763691D01*
X123325000Y-124554250D01*
X123483750Y-124713000D01*
X124333000Y-124713000D01*
X124333000Y-123413750D01*
X124587000Y-123413750D01*
X124587000Y-124713000D01*
X125436250Y-124713000D01*
X125595000Y-124554250D01*
X125595000Y-123763691D01*
X125498327Y-123530302D01*
X125319699Y-123351673D01*
X125086310Y-123255000D01*
X124745750Y-123255000D01*
X124587000Y-123413750D01*
X124333000Y-123413750D01*
X124174250Y-123255000D01*
X123833690Y-123255000D01*
X123600301Y-123351673D01*
X123421673Y-123530302D01*
X123325000Y-123763691D01*
X120502316Y-123763691D01*
X120478157Y-123642235D01*
X120337809Y-123432191D01*
X120127765Y-123291843D01*
X119880000Y-123242560D01*
X118880000Y-123242560D01*
X118632235Y-123291843D01*
X118422191Y-123432191D01*
X118281843Y-123642235D01*
X118232560Y-123890000D01*
X118232560Y-124078000D01*
X108899631Y-124078000D01*
X107950000Y-123128370D01*
X107950000Y-120403548D01*
X108251000Y-120403548D01*
X108251000Y-120896452D01*
X108439627Y-121351837D01*
X108788163Y-121700373D01*
X109243548Y-121889000D01*
X109736452Y-121889000D01*
X110191837Y-121700373D01*
X110327416Y-121564794D01*
X110347673Y-121613699D01*
X110526302Y-121792327D01*
X110759691Y-121889000D01*
X111204250Y-121889000D01*
X111363000Y-121730250D01*
X111363000Y-120777000D01*
X111617000Y-120777000D01*
X111617000Y-121730250D01*
X111775750Y-121889000D01*
X112220309Y-121889000D01*
X112453698Y-121792327D01*
X112632327Y-121613699D01*
X112729000Y-121380310D01*
X112729000Y-120935750D01*
X112570250Y-120777000D01*
X111617000Y-120777000D01*
X111363000Y-120777000D01*
X111343000Y-120777000D01*
X111343000Y-120523000D01*
X111363000Y-120523000D01*
X111363000Y-119569750D01*
X111617000Y-119569750D01*
X111617000Y-120523000D01*
X112570250Y-120523000D01*
X112729000Y-120364250D01*
X112729000Y-119919690D01*
X112632327Y-119686301D01*
X112453698Y-119507673D01*
X112220309Y-119411000D01*
X111775750Y-119411000D01*
X111617000Y-119569750D01*
X111363000Y-119569750D01*
X111204250Y-119411000D01*
X110759691Y-119411000D01*
X110526302Y-119507673D01*
X110347673Y-119686301D01*
X110327416Y-119735206D01*
X110191837Y-119599627D01*
X109736452Y-119411000D01*
X109243548Y-119411000D01*
X108788163Y-119599627D01*
X108439627Y-119948163D01*
X108251000Y-120403548D01*
X107950000Y-120403548D01*
X107950000Y-113726630D01*
X108014631Y-113662000D01*
X109334729Y-113662000D01*
X109341843Y-113697765D01*
X109482191Y-113907809D01*
X109692235Y-114048157D01*
X109940000Y-114097440D01*
X111040000Y-114097440D01*
X111287765Y-114048157D01*
X111475656Y-113922611D01*
X111580683Y-113992788D01*
X111802952Y-114037000D01*
X111802956Y-114037000D01*
X111814990Y-114039394D01*
X111945414Y-114234586D01*
X112043313Y-114300000D01*
X111945414Y-114365414D01*
X111750873Y-114656564D01*
X111682560Y-114999999D01*
X111682560Y-115125466D01*
X111638157Y-114902235D01*
X111497809Y-114692191D01*
X111287765Y-114551843D01*
X111040000Y-114502560D01*
X109940000Y-114502560D01*
X109692235Y-114551843D01*
X109482191Y-114692191D01*
X109341843Y-114902235D01*
X109292560Y-115150000D01*
X109292560Y-116250000D01*
X109341843Y-116497765D01*
X109482191Y-116707809D01*
X109512103Y-116727796D01*
X109397800Y-117003748D01*
X109397800Y-117438252D01*
X109564078Y-117839681D01*
X109871319Y-118146922D01*
X110272748Y-118313200D01*
X110707252Y-118313200D01*
X111108681Y-118146922D01*
X111415922Y-117839681D01*
X111582200Y-117438252D01*
X111582200Y-117003748D01*
X111467897Y-116727796D01*
X111497809Y-116707809D01*
X111638157Y-116497765D01*
X111687440Y-116250000D01*
X111687440Y-115674535D01*
X111750873Y-115993436D01*
X111945414Y-116284586D01*
X112236564Y-116479127D01*
X112310526Y-116493839D01*
X112312212Y-116502316D01*
X112480629Y-116754371D01*
X112544254Y-116796884D01*
X112819116Y-117071746D01*
X112861629Y-117135371D01*
X113012123Y-117235928D01*
X113113681Y-117303787D01*
X113113682Y-117303787D01*
X113113683Y-117303788D01*
X113335952Y-117348000D01*
X113335956Y-117348000D01*
X113410999Y-117362927D01*
X113486042Y-117348000D01*
X118394957Y-117348000D01*
X118470000Y-117362927D01*
X118545043Y-117348000D01*
X118545048Y-117348000D01*
X118767317Y-117303788D01*
X119019371Y-117135371D01*
X119061883Y-117071747D01*
X119956732Y-116176899D01*
X120060000Y-116197440D01*
X121410000Y-116197440D01*
X121657765Y-116148157D01*
X121867809Y-116007809D01*
X121920000Y-115929700D01*
X121972191Y-116007809D01*
X122182235Y-116148157D01*
X122430000Y-116197440D01*
X123780000Y-116197440D01*
X124027765Y-116148157D01*
X124237809Y-116007809D01*
X124333000Y-115865346D01*
X124333000Y-116143369D01*
X121434251Y-119042119D01*
X121370630Y-119084629D01*
X121328119Y-119148251D01*
X121328118Y-119148252D01*
X121202213Y-119336683D01*
X121143073Y-119634000D01*
X121158001Y-119709048D01*
X121158001Y-120001354D01*
X120962191Y-120132191D01*
X120821843Y-120342235D01*
X120772560Y-120590000D01*
X120772560Y-122490000D01*
X120821843Y-122737765D01*
X120962191Y-122947809D01*
X121172235Y-123088157D01*
X121420000Y-123137440D01*
X122420000Y-123137440D01*
X122667765Y-123088157D01*
X122877809Y-122947809D01*
X123018157Y-122737765D01*
X123067440Y-122490000D01*
X123067440Y-120590000D01*
X125852560Y-120590000D01*
X125852560Y-122490000D01*
X125901843Y-122737765D01*
X126042191Y-122947809D01*
X126252235Y-123088157D01*
X126500000Y-123137440D01*
X127500000Y-123137440D01*
X127747765Y-123088157D01*
X127957809Y-122947809D01*
X128098157Y-122737765D01*
X128147440Y-122490000D01*
X128147440Y-120590000D01*
X128098157Y-120342235D01*
X127968934Y-120148841D01*
X128092200Y-119851252D01*
X128092200Y-119416748D01*
X127925922Y-119015319D01*
X127618681Y-118708078D01*
X127217252Y-118541800D01*
X126782748Y-118541800D01*
X126381319Y-118708078D01*
X126074078Y-119015319D01*
X125907800Y-119416748D01*
X125907800Y-119851252D01*
X126031066Y-120148841D01*
X125901843Y-120342235D01*
X125852560Y-120590000D01*
X123067440Y-120590000D01*
X123018157Y-120342235D01*
X122877809Y-120132191D01*
X122682000Y-120001355D01*
X122682000Y-119949630D01*
X125580750Y-117050881D01*
X125644371Y-117008371D01*
X125812788Y-116756317D01*
X125857000Y-116534048D01*
X125857000Y-116534044D01*
X125871927Y-116459001D01*
X125857000Y-116383958D01*
X125857000Y-115610750D01*
X126935000Y-115610750D01*
X126935000Y-116026309D01*
X127031673Y-116259698D01*
X127210301Y-116438327D01*
X127443690Y-116535000D01*
X127984250Y-116535000D01*
X128143000Y-116376250D01*
X128143000Y-115452000D01*
X128397000Y-115452000D01*
X128397000Y-116376250D01*
X128555750Y-116535000D01*
X129096310Y-116535000D01*
X129329699Y-116438327D01*
X129508327Y-116259698D01*
X129605000Y-116026309D01*
X129605000Y-115610750D01*
X129446250Y-115452000D01*
X128397000Y-115452000D01*
X128143000Y-115452000D01*
X127093750Y-115452000D01*
X126935000Y-115610750D01*
X125857000Y-115610750D01*
X125857000Y-114052632D01*
X125880395Y-114037000D01*
X127053391Y-114037000D01*
X127185414Y-114234586D01*
X127186597Y-114235377D01*
X127031673Y-114390302D01*
X126935000Y-114623691D01*
X126935000Y-115039250D01*
X127093750Y-115198000D01*
X128143000Y-115198000D01*
X128143000Y-115178000D01*
X128397000Y-115178000D01*
X128397000Y-115198000D01*
X129446250Y-115198000D01*
X129605000Y-115039250D01*
X129605000Y-114623691D01*
X129508327Y-114390302D01*
X129353403Y-114235377D01*
X129354586Y-114234586D01*
X129549127Y-113943436D01*
X129617440Y-113600001D01*
X129617440Y-112949999D01*
X129549127Y-112606564D01*
X129354586Y-112315414D01*
X129063436Y-112120873D01*
X128720001Y-112052560D01*
X127819999Y-112052560D01*
X127476564Y-112120873D01*
X127185414Y-112315414D01*
X127053391Y-112513000D01*
X126374000Y-112513000D01*
X126374000Y-112479042D01*
X126388927Y-112403999D01*
X126374000Y-112328956D01*
X126374000Y-112328952D01*
X126329788Y-112106683D01*
X126161371Y-111854629D01*
X126097750Y-111812119D01*
X125095000Y-110809370D01*
X125095000Y-109422048D01*
X125109928Y-109347000D01*
X125095000Y-109271952D01*
X125095000Y-108890642D01*
X125279999Y-108927440D01*
X126180001Y-108927440D01*
X126523436Y-108859127D01*
X126814586Y-108664586D01*
X126946609Y-108467000D01*
X127053391Y-108467000D01*
X127185414Y-108664586D01*
X127476564Y-108859127D01*
X127819999Y-108927440D01*
X128720001Y-108927440D01*
X129063436Y-108859127D01*
X129354586Y-108664586D01*
X129486609Y-108467000D01*
X129593391Y-108467000D01*
X129725414Y-108664586D01*
X130016564Y-108859127D01*
X130359999Y-108927440D01*
X131260001Y-108927440D01*
X131603436Y-108859127D01*
X131894586Y-108664586D01*
X132047235Y-108436131D01*
X132114317Y-108422788D01*
X132366371Y-108254371D01*
X132408884Y-108190746D01*
X132565747Y-108033883D01*
X132629371Y-107991371D01*
X132797788Y-107739317D01*
X132842000Y-107517048D01*
X132842000Y-107517044D01*
X132856927Y-107442001D01*
X132842000Y-107366958D01*
X132842000Y-104766609D01*
X132856927Y-104691566D01*
X132842000Y-104616523D01*
X132842000Y-104616518D01*
X132797788Y-104394249D01*
X132629371Y-104142195D01*
X132565749Y-104099684D01*
X131231317Y-102765253D01*
X131188805Y-102701629D01*
X130936751Y-102533212D01*
X130714482Y-102489000D01*
X130714477Y-102489000D01*
X130639434Y-102474073D01*
X130564391Y-102489000D01*
X123759631Y-102489000D01*
X122061926Y-100791296D01*
X122321453Y-100782836D01*
X122854359Y-100562099D01*
X122965263Y-100284868D01*
X127374737Y-100284868D01*
X127485641Y-100562099D01*
X128131593Y-100805323D01*
X128821453Y-100782836D01*
X129354359Y-100562099D01*
X129465263Y-100284868D01*
X128420000Y-99239605D01*
X127374737Y-100284868D01*
X122965263Y-100284868D01*
X121920000Y-99239605D01*
X121905858Y-99253748D01*
X121726253Y-99074143D01*
X121740395Y-99060000D01*
X122099605Y-99060000D01*
X123144868Y-100105263D01*
X123422099Y-99994359D01*
X123665323Y-99348407D01*
X123646521Y-98771593D01*
X126674677Y-98771593D01*
X126697164Y-99461453D01*
X126917901Y-99994359D01*
X127195132Y-100105263D01*
X128240395Y-99060000D01*
X128599605Y-99060000D01*
X129644868Y-100105263D01*
X129922099Y-99994359D01*
X130165323Y-99348407D01*
X130142836Y-98658547D01*
X129922099Y-98125641D01*
X129644868Y-98014737D01*
X128599605Y-99060000D01*
X128240395Y-99060000D01*
X127195132Y-98014737D01*
X126917901Y-98125641D01*
X126674677Y-98771593D01*
X123646521Y-98771593D01*
X123642836Y-98658547D01*
X123422099Y-98125641D01*
X123144868Y-98014737D01*
X122099605Y-99060000D01*
X121740395Y-99060000D01*
X121726253Y-99045858D01*
X121905858Y-98866253D01*
X121920000Y-98880395D01*
X122965263Y-97835132D01*
X127374737Y-97835132D01*
X128420000Y-98880395D01*
X129465263Y-97835132D01*
X129354359Y-97557901D01*
X128708407Y-97314677D01*
X128018547Y-97337164D01*
X127485641Y-97557901D01*
X127374737Y-97835132D01*
X122965263Y-97835132D01*
X122854359Y-97557901D01*
X122208407Y-97314677D01*
X121518547Y-97337164D01*
X120985641Y-97557901D01*
X120874738Y-97835130D01*
X120777010Y-97737402D01*
X120777010Y-96298889D01*
X120820000Y-96307440D01*
X123020000Y-96307440D01*
X123267765Y-96258157D01*
X123477809Y-96117809D01*
X123618157Y-95907765D01*
X123667440Y-95660000D01*
X123667440Y-95322000D01*
X126857680Y-95322000D01*
X126949138Y-95542799D01*
X127437201Y-96030862D01*
X128074887Y-96295000D01*
X128765113Y-96295000D01*
X129402799Y-96030862D01*
X129890862Y-95542799D01*
X130155000Y-94905113D01*
X130155000Y-94265750D01*
X131115000Y-94265750D01*
X131115000Y-94806310D01*
X131211673Y-95039699D01*
X131390302Y-95218327D01*
X131623691Y-95315000D01*
X132039250Y-95315000D01*
X132198000Y-95156250D01*
X132198000Y-94107000D01*
X131273750Y-94107000D01*
X131115000Y-94265750D01*
X130155000Y-94265750D01*
X130155000Y-94214887D01*
X130063542Y-93994088D01*
X131347631Y-92710000D01*
X131466767Y-92710000D01*
X131390302Y-92741673D01*
X131211673Y-92920301D01*
X131115000Y-93153690D01*
X131115000Y-93694250D01*
X131273750Y-93853000D01*
X132198000Y-93853000D01*
X132198000Y-93833000D01*
X132452000Y-93833000D01*
X132452000Y-93853000D01*
X132472000Y-93853000D01*
X132472000Y-94107000D01*
X132452000Y-94107000D01*
X132452000Y-95156250D01*
X132610750Y-95315000D01*
X133026309Y-95315000D01*
X133259698Y-95218327D01*
X133414623Y-95063403D01*
X133415414Y-95064586D01*
X133706564Y-95259127D01*
X134049999Y-95327440D01*
X134700001Y-95327440D01*
X135043436Y-95259127D01*
X135334586Y-95064586D01*
X135529127Y-94773436D01*
X135562393Y-94606197D01*
X135677371Y-94529371D01*
X135719884Y-94465746D01*
X136121747Y-94063883D01*
X136185371Y-94021371D01*
X136353788Y-93769317D01*
X136398000Y-93547048D01*
X136398000Y-93547044D01*
X136412927Y-93472001D01*
X136398000Y-93396958D01*
X136398000Y-92023047D01*
X136412928Y-91948000D01*
X136398000Y-91872952D01*
X136398000Y-81609042D01*
X136412927Y-81533999D01*
X136398000Y-81458956D01*
X136398000Y-81458952D01*
X136353788Y-81236683D01*
X136185371Y-80984629D01*
X136121746Y-80942116D01*
X135846884Y-80667254D01*
X135804371Y-80603629D01*
X135552317Y-80435212D01*
X135330048Y-80391000D01*
X135330043Y-80391000D01*
X135255000Y-80376073D01*
X135179957Y-80391000D01*
X130111047Y-80391000D01*
X130036000Y-80376072D01*
X129960953Y-80391000D01*
X129960952Y-80391000D01*
X129738683Y-80435212D01*
X129662440Y-80486156D01*
X129662440Y-79970000D01*
X129613157Y-79722235D01*
X129578254Y-79670000D01*
X129613157Y-79617765D01*
X129662440Y-79370000D01*
X129662440Y-78470000D01*
X129613157Y-78222235D01*
X129578131Y-78169816D01*
X129650000Y-77996310D01*
X129650000Y-77705750D01*
X129491250Y-77547000D01*
X128399500Y-77547000D01*
X128399500Y-77567000D01*
X128145500Y-77567000D01*
X128145500Y-77547000D01*
X127053750Y-77547000D01*
X126895000Y-77705750D01*
X126895000Y-77996310D01*
X126966869Y-78169816D01*
X126931843Y-78222235D01*
X126882560Y-78470000D01*
X126882560Y-79370000D01*
X126931843Y-79617765D01*
X126966746Y-79670000D01*
X126931843Y-79722235D01*
X126882560Y-79970000D01*
X126882560Y-80870000D01*
X126931843Y-81117765D01*
X126966746Y-81170000D01*
X126931843Y-81222235D01*
X126882560Y-81470000D01*
X126882560Y-82370000D01*
X126931843Y-82617765D01*
X126966746Y-82670000D01*
X126931843Y-82722235D01*
X126882560Y-82970000D01*
X126882560Y-83870000D01*
X126931843Y-84117765D01*
X126966869Y-84170184D01*
X126895000Y-84343690D01*
X126895000Y-84634250D01*
X127053750Y-84793000D01*
X128145500Y-84793000D01*
X128145500Y-84773000D01*
X128399500Y-84773000D01*
X128399500Y-84793000D01*
X129491250Y-84793000D01*
X129650000Y-84634250D01*
X129650000Y-84343690D01*
X129583026Y-84182000D01*
X130500957Y-84182000D01*
X130576000Y-84196927D01*
X130651043Y-84182000D01*
X130651048Y-84182000D01*
X130873317Y-84137788D01*
X131125371Y-83969371D01*
X131167883Y-83905747D01*
X131376247Y-83697383D01*
X131452235Y-83748157D01*
X131700000Y-83797440D01*
X132900000Y-83797440D01*
X132936113Y-83790257D01*
X131839253Y-84887117D01*
X131775629Y-84929629D01*
X131677332Y-85076742D01*
X131656564Y-85080873D01*
X131365414Y-85275414D01*
X131170873Y-85566564D01*
X131107630Y-85884512D01*
X131100922Y-85868319D01*
X130793681Y-85561078D01*
X130392252Y-85394800D01*
X129957748Y-85394800D01*
X129637018Y-85527651D01*
X129650000Y-85496310D01*
X129650000Y-85205750D01*
X129491250Y-85047000D01*
X128399500Y-85047000D01*
X128399500Y-85067000D01*
X128145500Y-85067000D01*
X128145500Y-85047000D01*
X127053750Y-85047000D01*
X126895000Y-85205750D01*
X126895000Y-85496310D01*
X126966869Y-85669816D01*
X126931843Y-85722235D01*
X126882560Y-85970000D01*
X126882560Y-86870000D01*
X126931843Y-87117765D01*
X126966746Y-87170000D01*
X126931843Y-87222235D01*
X126882560Y-87470000D01*
X126882560Y-88370000D01*
X126931843Y-88617765D01*
X126966746Y-88670000D01*
X126931843Y-88722235D01*
X126882560Y-88970000D01*
X126882560Y-89870000D01*
X126931843Y-90117765D01*
X127072191Y-90327809D01*
X127282235Y-90468157D01*
X127530000Y-90517440D01*
X128368930Y-90517440D01*
X128081370Y-90805000D01*
X121106042Y-90805000D01*
X121030999Y-90790073D01*
X120955956Y-90805000D01*
X120955952Y-90805000D01*
X120733683Y-90849212D01*
X120733682Y-90849213D01*
X120733681Y-90849213D01*
X120679641Y-90885322D01*
X120481629Y-91017629D01*
X120439116Y-91081254D01*
X119021254Y-92499116D01*
X118957629Y-92541629D01*
X118789212Y-92793684D01*
X118745000Y-93015953D01*
X118745000Y-93015957D01*
X118730073Y-93091000D01*
X118745000Y-93166043D01*
X118745001Y-100000952D01*
X118730073Y-100076000D01*
X118745001Y-100151048D01*
X118789213Y-100373317D01*
X118957630Y-100625371D01*
X119021251Y-100667881D01*
X123001369Y-104648000D01*
X122958231Y-104691139D01*
X122894610Y-104733649D01*
X122852099Y-104797271D01*
X122852098Y-104797272D01*
X122754478Y-104943371D01*
X122726193Y-104985703D01*
X122704265Y-105095940D01*
X122546398Y-104938074D01*
X122313009Y-104841401D01*
X121710450Y-104841401D01*
X121551700Y-105000151D01*
X121551700Y-105478959D01*
X121297700Y-105478959D01*
X121297700Y-105000151D01*
X121138950Y-104841401D01*
X120536391Y-104841401D01*
X120303002Y-104938074D01*
X120124373Y-105116702D01*
X120027700Y-105350091D01*
X120027700Y-105431951D01*
X120186450Y-105590701D01*
X120321459Y-105590701D01*
X120204891Y-105668590D01*
X120064543Y-105878634D01*
X120049006Y-105956745D01*
X120027700Y-105978051D01*
X120027700Y-105996069D01*
X119507000Y-105475370D01*
X119507000Y-105104042D01*
X119521927Y-105028999D01*
X119507000Y-104953956D01*
X119507000Y-104953952D01*
X119462788Y-104731683D01*
X119435817Y-104691317D01*
X119336882Y-104543251D01*
X119294371Y-104479629D01*
X119230750Y-104437119D01*
X118958698Y-104165067D01*
X119236681Y-104049922D01*
X119543922Y-103742681D01*
X119710200Y-103341252D01*
X119710200Y-102906748D01*
X119543922Y-102505319D01*
X119236681Y-102198078D01*
X118835252Y-102031800D01*
X118603430Y-102031800D01*
X118193873Y-101622243D01*
X118151361Y-101558619D01*
X117899307Y-101390202D01*
X117677038Y-101345990D01*
X117677033Y-101345990D01*
X117601990Y-101331063D01*
X117526947Y-101345990D01*
X108349055Y-101345990D01*
X107287933Y-100284868D01*
X109294737Y-100284868D01*
X109405641Y-100562099D01*
X110051593Y-100805323D01*
X110741453Y-100782836D01*
X111274359Y-100562099D01*
X111385263Y-100284868D01*
X110340000Y-99239605D01*
X109294737Y-100284868D01*
X107287933Y-100284868D01*
X105774658Y-98771593D01*
X108594677Y-98771593D01*
X108617164Y-99461453D01*
X108837901Y-99994359D01*
X109115132Y-100105263D01*
X110160395Y-99060000D01*
X110519605Y-99060000D01*
X111564868Y-100105263D01*
X111842099Y-99994359D01*
X112085323Y-99348407D01*
X112085237Y-99345750D01*
X115105000Y-99345750D01*
X115105000Y-100286310D01*
X115201673Y-100519699D01*
X115380302Y-100698327D01*
X115613691Y-100795000D01*
X116554250Y-100795000D01*
X116713000Y-100636250D01*
X116713000Y-99187000D01*
X116967000Y-99187000D01*
X116967000Y-100636250D01*
X117125750Y-100795000D01*
X118066309Y-100795000D01*
X118299698Y-100698327D01*
X118478327Y-100519699D01*
X118575000Y-100286310D01*
X118575000Y-99345750D01*
X118416250Y-99187000D01*
X116967000Y-99187000D01*
X116713000Y-99187000D01*
X115263750Y-99187000D01*
X115105000Y-99345750D01*
X112085237Y-99345750D01*
X112062836Y-98658547D01*
X111842099Y-98125641D01*
X111564868Y-98014737D01*
X110519605Y-99060000D01*
X110160395Y-99060000D01*
X109115132Y-98014737D01*
X108837901Y-98125641D01*
X108594677Y-98771593D01*
X105774658Y-98771593D01*
X104838197Y-97835132D01*
X109294737Y-97835132D01*
X110340000Y-98880395D01*
X111385263Y-97835132D01*
X111384687Y-97833690D01*
X115105000Y-97833690D01*
X115105000Y-98774250D01*
X115263750Y-98933000D01*
X116713000Y-98933000D01*
X116713000Y-97483750D01*
X116967000Y-97483750D01*
X116967000Y-98933000D01*
X118416250Y-98933000D01*
X118575000Y-98774250D01*
X118575000Y-97833690D01*
X118478327Y-97600301D01*
X118299698Y-97421673D01*
X118066309Y-97325000D01*
X117125750Y-97325000D01*
X116967000Y-97483750D01*
X116713000Y-97483750D01*
X116554250Y-97325000D01*
X115613691Y-97325000D01*
X115380302Y-97421673D01*
X115201673Y-97600301D01*
X115105000Y-97833690D01*
X111384687Y-97833690D01*
X111274359Y-97557901D01*
X110628407Y-97314677D01*
X109938547Y-97337164D01*
X109405641Y-97557901D01*
X109294737Y-97835132D01*
X104838197Y-97835132D01*
X104013000Y-97009936D01*
X104013000Y-95318091D01*
X104059999Y-95327440D01*
X104710001Y-95327440D01*
X105053436Y-95259127D01*
X105344586Y-95064586D01*
X105410000Y-94966687D01*
X105475414Y-95064586D01*
X105766564Y-95259127D01*
X106109999Y-95327440D01*
X106760001Y-95327440D01*
X107103436Y-95259127D01*
X107394586Y-95064586D01*
X107589127Y-94773436D01*
X107595380Y-94742000D01*
X107761370Y-94742000D01*
X108065118Y-95045749D01*
X108107629Y-95109371D01*
X108359683Y-95277788D01*
X108581952Y-95322000D01*
X108581953Y-95322000D01*
X108657000Y-95336928D01*
X108732047Y-95322000D01*
X108777680Y-95322000D01*
X108869138Y-95542799D01*
X109357201Y-96030862D01*
X109994887Y-96295000D01*
X110685113Y-96295000D01*
X111322799Y-96030862D01*
X111810862Y-95542799D01*
X111902320Y-95322000D01*
X115277680Y-95322000D01*
X115369138Y-95542799D01*
X115857201Y-96030862D01*
X116494887Y-96295000D01*
X117185113Y-96295000D01*
X117822799Y-96030862D01*
X118310862Y-95542799D01*
X118575000Y-94905113D01*
X118575000Y-94214887D01*
X118310862Y-93577201D01*
X117822799Y-93089138D01*
X117185113Y-92825000D01*
X116494887Y-92825000D01*
X115857201Y-93089138D01*
X115369138Y-93577201D01*
X115277680Y-93798000D01*
X111902320Y-93798000D01*
X111810862Y-93577201D01*
X111322799Y-93089138D01*
X110685113Y-92825000D01*
X109994887Y-92825000D01*
X109357201Y-93089138D01*
X108869138Y-93577201D01*
X108834780Y-93660149D01*
X108668883Y-93494253D01*
X108626371Y-93430629D01*
X108374317Y-93262212D01*
X108152048Y-93218000D01*
X108152043Y-93218000D01*
X108077000Y-93203073D01*
X108001957Y-93218000D01*
X107595380Y-93218000D01*
X107589127Y-93186564D01*
X107394586Y-92895414D01*
X107103436Y-92700873D01*
X106760001Y-92632560D01*
X106109999Y-92632560D01*
X105766564Y-92700873D01*
X105475414Y-92895414D01*
X105410000Y-92993313D01*
X105344586Y-92895414D01*
X105147000Y-92763391D01*
X105147000Y-91386609D01*
X105344586Y-91254586D01*
X105410000Y-91156687D01*
X105475414Y-91254586D01*
X105766564Y-91449127D01*
X106109999Y-91517440D01*
X106760001Y-91517440D01*
X107103436Y-91449127D01*
X107394586Y-91254586D01*
X107436376Y-91192043D01*
X107605748Y-91262200D01*
X108040252Y-91262200D01*
X108441681Y-91095922D01*
X108748922Y-90788681D01*
X108915200Y-90387252D01*
X108915200Y-89952748D01*
X108812890Y-89705750D01*
X109110000Y-89705750D01*
X109110000Y-89996310D01*
X109206673Y-90229699D01*
X109385302Y-90408327D01*
X109618691Y-90505000D01*
X110201750Y-90505000D01*
X110360500Y-90346250D01*
X110360500Y-89547000D01*
X110614500Y-89547000D01*
X110614500Y-90346250D01*
X110773250Y-90505000D01*
X111356309Y-90505000D01*
X111589698Y-90408327D01*
X111768327Y-90229699D01*
X111865000Y-89996310D01*
X111865000Y-89705750D01*
X111706250Y-89547000D01*
X110614500Y-89547000D01*
X110360500Y-89547000D01*
X109268750Y-89547000D01*
X109110000Y-89705750D01*
X108812890Y-89705750D01*
X108748922Y-89551319D01*
X108441681Y-89244078D01*
X108252849Y-89165861D01*
X108312477Y-89154000D01*
X108312482Y-89154000D01*
X108534751Y-89109788D01*
X108786805Y-88941371D01*
X108829318Y-88877746D01*
X109025064Y-88682000D01*
X109176974Y-88682000D01*
X109110000Y-88843690D01*
X109110000Y-89134250D01*
X109268750Y-89293000D01*
X110360500Y-89293000D01*
X110360500Y-89273000D01*
X110614500Y-89273000D01*
X110614500Y-89293000D01*
X111706250Y-89293000D01*
X111865000Y-89134250D01*
X111865000Y-88843690D01*
X111793131Y-88670184D01*
X111828157Y-88617765D01*
X111877440Y-88370000D01*
X111877440Y-87470000D01*
X111828157Y-87222235D01*
X111793254Y-87170000D01*
X111828157Y-87117765D01*
X111877440Y-86870000D01*
X111877440Y-85970000D01*
X111828157Y-85722235D01*
X111793254Y-85670000D01*
X111828157Y-85617765D01*
X111877440Y-85370000D01*
X111877440Y-84470000D01*
X111828157Y-84222235D01*
X111793254Y-84170000D01*
X111828157Y-84117765D01*
X111830546Y-84105750D01*
X117745000Y-84105750D01*
X117745000Y-85946310D01*
X117841673Y-86179699D01*
X118020302Y-86358327D01*
X118253691Y-86455000D01*
X120094250Y-86455000D01*
X120253000Y-86296250D01*
X120253000Y-83947000D01*
X120507000Y-83947000D01*
X120507000Y-86296250D01*
X120665750Y-86455000D01*
X122506309Y-86455000D01*
X122739698Y-86358327D01*
X122918327Y-86179699D01*
X123015000Y-85946310D01*
X123015000Y-84105750D01*
X122856250Y-83947000D01*
X120507000Y-83947000D01*
X120253000Y-83947000D01*
X117903750Y-83947000D01*
X117745000Y-84105750D01*
X111830546Y-84105750D01*
X111877440Y-83870000D01*
X111877440Y-82970000D01*
X111828157Y-82722235D01*
X111793254Y-82670000D01*
X111828157Y-82617765D01*
X111877440Y-82370000D01*
X111877440Y-81693690D01*
X117745000Y-81693690D01*
X117745000Y-83534250D01*
X117903750Y-83693000D01*
X120253000Y-83693000D01*
X120253000Y-81343750D01*
X120507000Y-81343750D01*
X120507000Y-83693000D01*
X122856250Y-83693000D01*
X123015000Y-83534250D01*
X123015000Y-81693690D01*
X122918327Y-81460301D01*
X122739698Y-81281673D01*
X122506309Y-81185000D01*
X120665750Y-81185000D01*
X120507000Y-81343750D01*
X120253000Y-81343750D01*
X120094250Y-81185000D01*
X118253691Y-81185000D01*
X118020302Y-81281673D01*
X117841673Y-81460301D01*
X117745000Y-81693690D01*
X111877440Y-81693690D01*
X111877440Y-81470000D01*
X111828157Y-81222235D01*
X111793254Y-81170000D01*
X111828157Y-81117765D01*
X111877440Y-80870000D01*
X111877440Y-79970000D01*
X111828157Y-79722235D01*
X111793254Y-79670000D01*
X111828157Y-79617765D01*
X111877440Y-79370000D01*
X111877440Y-78470000D01*
X111828157Y-78222235D01*
X111793254Y-78170000D01*
X111828157Y-78117765D01*
X111877440Y-77870000D01*
X111877440Y-76970000D01*
X111865505Y-76910000D01*
X126895000Y-76910000D01*
X126895000Y-77134250D01*
G36*
X107231117Y-103101748D02*
X107273629Y-103165371D01*
X107525683Y-103333788D01*
X107641177Y-103356761D01*
X107612116Y-103400254D01*
X107464254Y-103548116D01*
X107400629Y-103590629D01*
X107232212Y-103842684D01*
X107188000Y-104064953D01*
X107188000Y-104064957D01*
X107173073Y-104140000D01*
X107188000Y-104215044D01*
X107188000Y-104494620D01*
X107156564Y-104500873D01*
X106865414Y-104695414D01*
X106670873Y-104986564D01*
X106602560Y-105329999D01*
X106602560Y-105980001D01*
X106670873Y-106323436D01*
X106865414Y-106614586D01*
X106866597Y-106615377D01*
X106711673Y-106770302D01*
X106615000Y-107003691D01*
X106615000Y-107419250D01*
X106773750Y-107578000D01*
X107823000Y-107578000D01*
X107823000Y-107558000D01*
X108077000Y-107558000D01*
X108077000Y-107578000D01*
X109126250Y-107578000D01*
X109220000Y-107484250D01*
X109313750Y-107578000D01*
X110363000Y-107578000D01*
X110363000Y-107558000D01*
X110617000Y-107558000D01*
X110617000Y-107578000D01*
X111666250Y-107578000D01*
X111760000Y-107484250D01*
X111853750Y-107578000D01*
X112903000Y-107578000D01*
X112903000Y-107558000D01*
X113157000Y-107558000D01*
X113157000Y-107578000D01*
X113177000Y-107578000D01*
X113177000Y-107832000D01*
X113157000Y-107832000D01*
X113157000Y-108756250D01*
X113315750Y-108915000D01*
X113856310Y-108915000D01*
X114089699Y-108818327D01*
X114105227Y-108802798D01*
X113969800Y-109129748D01*
X113969800Y-109564252D01*
X114136078Y-109965681D01*
X114443319Y-110272922D01*
X114844748Y-110439200D01*
X115279252Y-110439200D01*
X115680681Y-110272922D01*
X115844603Y-110109000D01*
X115875952Y-110109000D01*
X115951000Y-110123928D01*
X116026048Y-110109000D01*
X123571000Y-110109000D01*
X123571001Y-111049952D01*
X123556073Y-111125000D01*
X123571001Y-111200048D01*
X123615213Y-111422317D01*
X123783630Y-111674371D01*
X123847251Y-111716881D01*
X124718369Y-112588000D01*
X124231537Y-112588000D01*
X124027765Y-112451843D01*
X123780000Y-112402560D01*
X122430000Y-112402560D01*
X122182235Y-112451843D01*
X121972191Y-112592191D01*
X121920000Y-112670300D01*
X121867809Y-112592191D01*
X121657765Y-112451843D01*
X121410000Y-112402560D01*
X120060000Y-112402560D01*
X119812235Y-112451843D01*
X119608463Y-112588000D01*
X118444395Y-112588000D01*
X118398317Y-112557212D01*
X118176048Y-112513000D01*
X118176043Y-112513000D01*
X118101000Y-112498073D01*
X118025957Y-112513000D01*
X116786609Y-112513000D01*
X116654586Y-112315414D01*
X116363436Y-112120873D01*
X116020001Y-112052560D01*
X115119999Y-112052560D01*
X114776564Y-112120873D01*
X114485414Y-112315414D01*
X114353391Y-112513000D01*
X114246609Y-112513000D01*
X114114586Y-112315414D01*
X113823436Y-112120873D01*
X113480001Y-112052560D01*
X112579999Y-112052560D01*
X112236564Y-112120873D01*
X111972541Y-112297288D01*
X111800317Y-112182212D01*
X111648040Y-112151922D01*
X111638157Y-112102235D01*
X111497809Y-111892191D01*
X111287765Y-111751843D01*
X111040000Y-111702560D01*
X109940000Y-111702560D01*
X109692235Y-111751843D01*
X109482191Y-111892191D01*
X109341843Y-112102235D01*
X109334729Y-112138000D01*
X107774042Y-112138000D01*
X107698999Y-112123073D01*
X107623956Y-112138000D01*
X107623952Y-112138000D01*
X107401683Y-112182212D01*
X107149629Y-112350629D01*
X107107118Y-112414251D01*
X106702251Y-112819119D01*
X106638630Y-112861629D01*
X106596119Y-112925251D01*
X106596118Y-112925252D01*
X106470213Y-113113683D01*
X106411073Y-113411000D01*
X106426001Y-113486048D01*
X106426000Y-123368957D01*
X106411073Y-123444000D01*
X106426000Y-123519043D01*
X106426000Y-123519047D01*
X106470212Y-123741316D01*
X106638629Y-123993371D01*
X106702253Y-124035883D01*
X107992117Y-125325748D01*
X108034629Y-125389371D01*
X108286683Y-125557788D01*
X108508952Y-125602000D01*
X108508956Y-125602000D01*
X108583999Y-125616927D01*
X108659042Y-125602000D01*
X118232560Y-125602000D01*
X118232560Y-125790000D01*
X118281843Y-126037765D01*
X118422191Y-126247809D01*
X118485334Y-126290000D01*
X102310000Y-126290000D01*
X102310000Y-107990750D01*
X106615000Y-107990750D01*
X106615000Y-108406309D01*
X106711673Y-108639698D01*
X106890301Y-108818327D01*
X107123690Y-108915000D01*
X107664250Y-108915000D01*
X107823000Y-108756250D01*
X107823000Y-107832000D01*
X108077000Y-107832000D01*
X108077000Y-108756250D01*
X108235750Y-108915000D01*
X108776310Y-108915000D01*
X109009699Y-108818327D01*
X109188327Y-108639698D01*
X109220000Y-108563233D01*
X109251673Y-108639698D01*
X109430301Y-108818327D01*
X109663690Y-108915000D01*
X110204250Y-108915000D01*
X110363000Y-108756250D01*
X110363000Y-107832000D01*
X110617000Y-107832000D01*
X110617000Y-108756250D01*
X110775750Y-108915000D01*
X111316310Y-108915000D01*
X111549699Y-108818327D01*
X111728327Y-108639698D01*
X111760000Y-108563233D01*
X111791673Y-108639698D01*
X111970301Y-108818327D01*
X112203690Y-108915000D01*
X112744250Y-108915000D01*
X112903000Y-108756250D01*
X112903000Y-107832000D01*
X111853750Y-107832000D01*
X111760000Y-107925750D01*
X111666250Y-107832000D01*
X110617000Y-107832000D01*
X110363000Y-107832000D01*
X109313750Y-107832000D01*
X109220000Y-107925750D01*
X109126250Y-107832000D01*
X108077000Y-107832000D01*
X107823000Y-107832000D01*
X106773750Y-107832000D01*
X106615000Y-107990750D01*
X102310000Y-107990750D01*
X102310000Y-98180630D01*
X107231117Y-103101748D01*
X107231117Y-103101748D01*
G37*
X107231117Y-103101748D02*
X107273629Y-103165371D01*
X107525683Y-103333788D01*
X107641177Y-103356761D01*
X107612116Y-103400254D01*
X107464254Y-103548116D01*
X107400629Y-103590629D01*
X107232212Y-103842684D01*
X107188000Y-104064953D01*
X107188000Y-104064957D01*
X107173073Y-104140000D01*
X107188000Y-104215044D01*
X107188000Y-104494620D01*
X107156564Y-104500873D01*
X106865414Y-104695414D01*
X106670873Y-104986564D01*
X106602560Y-105329999D01*
X106602560Y-105980001D01*
X106670873Y-106323436D01*
X106865414Y-106614586D01*
X106866597Y-106615377D01*
X106711673Y-106770302D01*
X106615000Y-107003691D01*
X106615000Y-107419250D01*
X106773750Y-107578000D01*
X107823000Y-107578000D01*
X107823000Y-107558000D01*
X108077000Y-107558000D01*
X108077000Y-107578000D01*
X109126250Y-107578000D01*
X109220000Y-107484250D01*
X109313750Y-107578000D01*
X110363000Y-107578000D01*
X110363000Y-107558000D01*
X110617000Y-107558000D01*
X110617000Y-107578000D01*
X111666250Y-107578000D01*
X111760000Y-107484250D01*
X111853750Y-107578000D01*
X112903000Y-107578000D01*
X112903000Y-107558000D01*
X113157000Y-107558000D01*
X113157000Y-107578000D01*
X113177000Y-107578000D01*
X113177000Y-107832000D01*
X113157000Y-107832000D01*
X113157000Y-108756250D01*
X113315750Y-108915000D01*
X113856310Y-108915000D01*
X114089699Y-108818327D01*
X114105227Y-108802798D01*
X113969800Y-109129748D01*
X113969800Y-109564252D01*
X114136078Y-109965681D01*
X114443319Y-110272922D01*
X114844748Y-110439200D01*
X115279252Y-110439200D01*
X115680681Y-110272922D01*
X115844603Y-110109000D01*
X115875952Y-110109000D01*
X115951000Y-110123928D01*
X116026048Y-110109000D01*
X123571000Y-110109000D01*
X123571001Y-111049952D01*
X123556073Y-111125000D01*
X123571001Y-111200048D01*
X123615213Y-111422317D01*
X123783630Y-111674371D01*
X123847251Y-111716881D01*
X124718369Y-112588000D01*
X124231537Y-112588000D01*
X124027765Y-112451843D01*
X123780000Y-112402560D01*
X122430000Y-112402560D01*
X122182235Y-112451843D01*
X121972191Y-112592191D01*
X121920000Y-112670300D01*
X121867809Y-112592191D01*
X121657765Y-112451843D01*
X121410000Y-112402560D01*
X120060000Y-112402560D01*
X119812235Y-112451843D01*
X119608463Y-112588000D01*
X118444395Y-112588000D01*
X118398317Y-112557212D01*
X118176048Y-112513000D01*
X118176043Y-112513000D01*
X118101000Y-112498073D01*
X118025957Y-112513000D01*
X116786609Y-112513000D01*
X116654586Y-112315414D01*
X116363436Y-112120873D01*
X116020001Y-112052560D01*
X115119999Y-112052560D01*
X114776564Y-112120873D01*
X114485414Y-112315414D01*
X114353391Y-112513000D01*
X114246609Y-112513000D01*
X114114586Y-112315414D01*
X113823436Y-112120873D01*
X113480001Y-112052560D01*
X112579999Y-112052560D01*
X112236564Y-112120873D01*
X111972541Y-112297288D01*
X111800317Y-112182212D01*
X111648040Y-112151922D01*
X111638157Y-112102235D01*
X111497809Y-111892191D01*
X111287765Y-111751843D01*
X111040000Y-111702560D01*
X109940000Y-111702560D01*
X109692235Y-111751843D01*
X109482191Y-111892191D01*
X109341843Y-112102235D01*
X109334729Y-112138000D01*
X107774042Y-112138000D01*
X107698999Y-112123073D01*
X107623956Y-112138000D01*
X107623952Y-112138000D01*
X107401683Y-112182212D01*
X107149629Y-112350629D01*
X107107118Y-112414251D01*
X106702251Y-112819119D01*
X106638630Y-112861629D01*
X106596119Y-112925251D01*
X106596118Y-112925252D01*
X106470213Y-113113683D01*
X106411073Y-113411000D01*
X106426001Y-113486048D01*
X106426000Y-123368957D01*
X106411073Y-123444000D01*
X106426000Y-123519043D01*
X106426000Y-123519047D01*
X106470212Y-123741316D01*
X106638629Y-123993371D01*
X106702253Y-124035883D01*
X107992117Y-125325748D01*
X108034629Y-125389371D01*
X108286683Y-125557788D01*
X108508952Y-125602000D01*
X108508956Y-125602000D01*
X108583999Y-125616927D01*
X108659042Y-125602000D01*
X118232560Y-125602000D01*
X118232560Y-125790000D01*
X118281843Y-126037765D01*
X118422191Y-126247809D01*
X118485334Y-126290000D01*
X102310000Y-126290000D01*
X102310000Y-107990750D01*
X106615000Y-107990750D01*
X106615000Y-108406309D01*
X106711673Y-108639698D01*
X106890301Y-108818327D01*
X107123690Y-108915000D01*
X107664250Y-108915000D01*
X107823000Y-108756250D01*
X107823000Y-107832000D01*
X108077000Y-107832000D01*
X108077000Y-108756250D01*
X108235750Y-108915000D01*
X108776310Y-108915000D01*
X109009699Y-108818327D01*
X109188327Y-108639698D01*
X109220000Y-108563233D01*
X109251673Y-108639698D01*
X109430301Y-108818327D01*
X109663690Y-108915000D01*
X110204250Y-108915000D01*
X110363000Y-108756250D01*
X110363000Y-107832000D01*
X110617000Y-107832000D01*
X110617000Y-108756250D01*
X110775750Y-108915000D01*
X111316310Y-108915000D01*
X111549699Y-108818327D01*
X111728327Y-108639698D01*
X111760000Y-108563233D01*
X111791673Y-108639698D01*
X111970301Y-108818327D01*
X112203690Y-108915000D01*
X112744250Y-108915000D01*
X112903000Y-108756250D01*
X112903000Y-107832000D01*
X111853750Y-107832000D01*
X111760000Y-107925750D01*
X111666250Y-107832000D01*
X110617000Y-107832000D01*
X110363000Y-107832000D01*
X109313750Y-107832000D01*
X109220000Y-107925750D01*
X109126250Y-107832000D01*
X108077000Y-107832000D01*
X107823000Y-107832000D01*
X106773750Y-107832000D01*
X106615000Y-107990750D01*
X102310000Y-107990750D01*
X102310000Y-98180630D01*
X107231117Y-103101748D01*
G36*
X117878683Y-114067788D02*
X118100952Y-114112000D01*
X118100956Y-114112000D01*
X118175999Y-114126927D01*
X118251042Y-114112000D01*
X119522750Y-114112000D01*
X119583750Y-114173000D01*
X119699755Y-114173000D01*
X119812235Y-114248157D01*
X120060000Y-114297440D01*
X121410000Y-114297440D01*
X121657765Y-114248157D01*
X121770245Y-114173000D01*
X121886250Y-114173000D01*
X121963880Y-114095370D01*
X121972191Y-114107809D01*
X122182235Y-114248157D01*
X122430000Y-114297440D01*
X123780000Y-114297440D01*
X124027765Y-114248157D01*
X124231537Y-114112000D01*
X124333001Y-114112000D01*
X124333001Y-114634654D01*
X124237809Y-114492191D01*
X124027765Y-114351843D01*
X123780000Y-114302560D01*
X122430000Y-114302560D01*
X122182235Y-114351843D01*
X121972191Y-114492191D01*
X121963880Y-114504630D01*
X121886250Y-114427000D01*
X121770245Y-114427000D01*
X121657765Y-114351843D01*
X121410000Y-114302560D01*
X120060000Y-114302560D01*
X119812235Y-114351843D01*
X119699755Y-114427000D01*
X119583750Y-114427000D01*
X119425000Y-114585750D01*
X119425000Y-114588127D01*
X119371775Y-114623691D01*
X119256629Y-114700629D01*
X119214118Y-114764251D01*
X118154370Y-115824000D01*
X116905000Y-115824000D01*
X116905000Y-115610750D01*
X116746250Y-115452000D01*
X115697000Y-115452000D01*
X115697000Y-115472000D01*
X115443000Y-115472000D01*
X115443000Y-115452000D01*
X115423000Y-115452000D01*
X115423000Y-115198000D01*
X115443000Y-115198000D01*
X115443000Y-115178000D01*
X115697000Y-115178000D01*
X115697000Y-115198000D01*
X116746250Y-115198000D01*
X116905000Y-115039250D01*
X116905000Y-114623691D01*
X116808327Y-114390302D01*
X116653403Y-114235377D01*
X116654586Y-114234586D01*
X116786609Y-114037000D01*
X117832605Y-114037000D01*
X117878683Y-114067788D01*
X117878683Y-114067788D01*
G37*
X117878683Y-114067788D02*
X118100952Y-114112000D01*
X118100956Y-114112000D01*
X118175999Y-114126927D01*
X118251042Y-114112000D01*
X119522750Y-114112000D01*
X119583750Y-114173000D01*
X119699755Y-114173000D01*
X119812235Y-114248157D01*
X120060000Y-114297440D01*
X121410000Y-114297440D01*
X121657765Y-114248157D01*
X121770245Y-114173000D01*
X121886250Y-114173000D01*
X121963880Y-114095370D01*
X121972191Y-114107809D01*
X122182235Y-114248157D01*
X122430000Y-114297440D01*
X123780000Y-114297440D01*
X124027765Y-114248157D01*
X124231537Y-114112000D01*
X124333001Y-114112000D01*
X124333001Y-114634654D01*
X124237809Y-114492191D01*
X124027765Y-114351843D01*
X123780000Y-114302560D01*
X122430000Y-114302560D01*
X122182235Y-114351843D01*
X121972191Y-114492191D01*
X121963880Y-114504630D01*
X121886250Y-114427000D01*
X121770245Y-114427000D01*
X121657765Y-114351843D01*
X121410000Y-114302560D01*
X120060000Y-114302560D01*
X119812235Y-114351843D01*
X119699755Y-114427000D01*
X119583750Y-114427000D01*
X119425000Y-114585750D01*
X119425000Y-114588127D01*
X119371775Y-114623691D01*
X119256629Y-114700629D01*
X119214118Y-114764251D01*
X118154370Y-115824000D01*
X116905000Y-115824000D01*
X116905000Y-115610750D01*
X116746250Y-115452000D01*
X115697000Y-115452000D01*
X115697000Y-115472000D01*
X115443000Y-115472000D01*
X115443000Y-115452000D01*
X115423000Y-115452000D01*
X115423000Y-115198000D01*
X115443000Y-115198000D01*
X115443000Y-115178000D01*
X115697000Y-115178000D01*
X115697000Y-115198000D01*
X116746250Y-115198000D01*
X116905000Y-115039250D01*
X116905000Y-114623691D01*
X116808327Y-114390302D01*
X116653403Y-114235377D01*
X116654586Y-114234586D01*
X116786609Y-114037000D01*
X117832605Y-114037000D01*
X117878683Y-114067788D01*
G36*
X103683691Y-87695000D02*
X104013369Y-87695000D01*
X103505000Y-88203370D01*
X103505000Y-87620984D01*
X103683691Y-87695000D01*
X103683691Y-87695000D01*
G37*
X103683691Y-87695000D02*
X104013369Y-87695000D01*
X103505000Y-88203370D01*
X103505000Y-87620984D01*
X103683691Y-87695000D01*
G36*
X104512000Y-86233000D02*
X104532000Y-86233000D01*
X104532000Y-86487000D01*
X104512000Y-86487000D01*
X104512000Y-86507000D01*
X104258000Y-86507000D01*
X104258000Y-86487000D01*
X104238000Y-86487000D01*
X104238000Y-86233000D01*
X104258000Y-86233000D01*
X104258000Y-86213000D01*
X104512000Y-86213000D01*
X104512000Y-86233000D01*
X104512000Y-86233000D01*
G37*
X104512000Y-86233000D02*
X104532000Y-86233000D01*
X104532000Y-86487000D01*
X104512000Y-86487000D01*
X104512000Y-86507000D01*
X104258000Y-86507000D01*
X104258000Y-86487000D01*
X104238000Y-86487000D01*
X104238000Y-86233000D01*
X104258000Y-86233000D01*
X104258000Y-86213000D01*
X104512000Y-86213000D01*
X104512000Y-86233000D01*
G36*
X108424118Y-76934251D02*
X107518102Y-77840268D01*
X107394586Y-77655414D01*
X107103436Y-77460873D01*
X106760001Y-77392560D01*
X106109999Y-77392560D01*
X105766564Y-77460873D01*
X105475414Y-77655414D01*
X105474623Y-77656597D01*
X105319698Y-77501673D01*
X105086309Y-77405000D01*
X104670750Y-77405000D01*
X104512000Y-77563750D01*
X104512000Y-78613000D01*
X104532000Y-78613000D01*
X104532000Y-78867000D01*
X104512000Y-78867000D01*
X104512000Y-79916250D01*
X104670750Y-80075000D01*
X105086309Y-80075000D01*
X105319698Y-79978327D01*
X105474623Y-79823403D01*
X105475414Y-79824586D01*
X105766564Y-80019127D01*
X106109999Y-80087440D01*
X106286930Y-80087440D01*
X105856370Y-80518000D01*
X104850042Y-80518000D01*
X104774999Y-80503073D01*
X104699956Y-80518000D01*
X104699952Y-80518000D01*
X104477683Y-80562212D01*
X104477682Y-80562213D01*
X104477681Y-80562213D01*
X104415698Y-80603629D01*
X104225629Y-80730629D01*
X104183116Y-80794254D01*
X103899252Y-81078118D01*
X103835630Y-81120629D01*
X103793119Y-81184251D01*
X103793118Y-81184252D01*
X103738103Y-81266589D01*
X103716564Y-81270873D01*
X103425414Y-81465414D01*
X103230873Y-81756564D01*
X103162560Y-82099999D01*
X103162560Y-83000001D01*
X103230873Y-83343436D01*
X103405912Y-83605400D01*
X103301800Y-83856748D01*
X103301800Y-84201000D01*
X103072042Y-84201000D01*
X102996999Y-84186073D01*
X102921956Y-84201000D01*
X102921952Y-84201000D01*
X102699683Y-84245212D01*
X102447629Y-84413629D01*
X102405116Y-84477254D01*
X102310000Y-84572370D01*
X102310000Y-79025750D01*
X103175000Y-79025750D01*
X103175000Y-79566310D01*
X103271673Y-79799699D01*
X103450302Y-79978327D01*
X103683691Y-80075000D01*
X104099250Y-80075000D01*
X104258000Y-79916250D01*
X104258000Y-78867000D01*
X103333750Y-78867000D01*
X103175000Y-79025750D01*
X102310000Y-79025750D01*
X102310000Y-77913690D01*
X103175000Y-77913690D01*
X103175000Y-78454250D01*
X103333750Y-78613000D01*
X104258000Y-78613000D01*
X104258000Y-77563750D01*
X104099250Y-77405000D01*
X103683691Y-77405000D01*
X103450302Y-77501673D01*
X103271673Y-77680301D01*
X103175000Y-77913690D01*
X102310000Y-77913690D01*
X102310000Y-76910000D01*
X108440322Y-76910000D01*
X108424118Y-76934251D01*
X108424118Y-76934251D01*
G37*
X108424118Y-76934251D02*
X107518102Y-77840268D01*
X107394586Y-77655414D01*
X107103436Y-77460873D01*
X106760001Y-77392560D01*
X106109999Y-77392560D01*
X105766564Y-77460873D01*
X105475414Y-77655414D01*
X105474623Y-77656597D01*
X105319698Y-77501673D01*
X105086309Y-77405000D01*
X104670750Y-77405000D01*
X104512000Y-77563750D01*
X104512000Y-78613000D01*
X104532000Y-78613000D01*
X104532000Y-78867000D01*
X104512000Y-78867000D01*
X104512000Y-79916250D01*
X104670750Y-80075000D01*
X105086309Y-80075000D01*
X105319698Y-79978327D01*
X105474623Y-79823403D01*
X105475414Y-79824586D01*
X105766564Y-80019127D01*
X106109999Y-80087440D01*
X106286930Y-80087440D01*
X105856370Y-80518000D01*
X104850042Y-80518000D01*
X104774999Y-80503073D01*
X104699956Y-80518000D01*
X104699952Y-80518000D01*
X104477683Y-80562212D01*
X104477682Y-80562213D01*
X104477681Y-80562213D01*
X104415698Y-80603629D01*
X104225629Y-80730629D01*
X104183116Y-80794254D01*
X103899252Y-81078118D01*
X103835630Y-81120629D01*
X103793119Y-81184251D01*
X103793118Y-81184252D01*
X103738103Y-81266589D01*
X103716564Y-81270873D01*
X103425414Y-81465414D01*
X103230873Y-81756564D01*
X103162560Y-82099999D01*
X103162560Y-83000001D01*
X103230873Y-83343436D01*
X103405912Y-83605400D01*
X103301800Y-83856748D01*
X103301800Y-84201000D01*
X103072042Y-84201000D01*
X102996999Y-84186073D01*
X102921956Y-84201000D01*
X102921952Y-84201000D01*
X102699683Y-84245212D01*
X102447629Y-84413629D01*
X102405116Y-84477254D01*
X102310000Y-84572370D01*
X102310000Y-79025750D01*
X103175000Y-79025750D01*
X103175000Y-79566310D01*
X103271673Y-79799699D01*
X103450302Y-79978327D01*
X103683691Y-80075000D01*
X104099250Y-80075000D01*
X104258000Y-79916250D01*
X104258000Y-78867000D01*
X103333750Y-78867000D01*
X103175000Y-79025750D01*
X102310000Y-79025750D01*
X102310000Y-77913690D01*
X103175000Y-77913690D01*
X103175000Y-78454250D01*
X103333750Y-78613000D01*
X104258000Y-78613000D01*
X104258000Y-77563750D01*
X104099250Y-77405000D01*
X103683691Y-77405000D01*
X103450302Y-77501673D01*
X103271673Y-77680301D01*
X103175000Y-77913690D01*
X102310000Y-77913690D01*
X102310000Y-76910000D01*
X108440322Y-76910000D01*
X108424118Y-76934251D01*
G04 #@! TD*
M02*
