M48
;DRILL file {KiCad (5.0.2)-1} date 2/5/2019 2:58:11 PM
;FORMAT={-:-/ absolute / inch / decimal}
FMAT,2
INCH,TZ
T1C0.0160
T2C0.0276
T3C0.0472
%
G90
G05
T1
X4.08Y-3.455
X4.085Y-3.17
X4.11Y-3.31
X4.13Y-4.07
X4.245Y-3.55
X4.35Y-4.615
X4.53Y-4.305
X4.64Y-4.525
X4.67Y-4.06
X4.76Y-4.085
X4.85Y-4.27
X5.Y-4.71
X5.02Y-4.34
X5.125Y-3.405
X5.125Y-3.46
X5.195Y-4.915
X5.23Y-3.095
T2
X4.3106Y-4.75
X4.3894Y-4.75
T3
X4.3441Y-3.7228
X4.3441Y-3.9
X4.6Y-3.7228
X4.6Y-3.9
X4.8Y-3.7228
X4.8Y-3.9
X5.0559Y-3.7228
X5.0559Y-3.9
T0
M30
