G04 #@! TF.GenerationSoftware,KiCad,Pcbnew,(5.0.2)-1*
G04 #@! TF.CreationDate,2019-02-22T09:56:21-06:00*
G04 #@! TF.ProjectId,esp-8266-temp-sensor,6573702d-3832-4363-962d-74656d702d73,rev?*
G04 #@! TF.SameCoordinates,Original*
G04 #@! TF.FileFunction,Copper,L2,Bot*
G04 #@! TF.FilePolarity,Positive*
%FSLAX46Y46*%
G04 Gerber Fmt 4.6, Leading zero omitted, Abs format (unit mm)*
G04 Created by KiCad (PCBNEW (5.0.2)-1) date 2/22/2019 9:56:21 AM*
%MOMM*%
%LPD*%
G01*
G04 APERTURE LIST*
G04 #@! TA.AperFunction,ComponentPad*
%ADD10R,1.208000X1.208000*%
G04 #@! TD*
G04 #@! TA.AperFunction,ComponentPad*
%ADD11C,1.208000*%
G04 #@! TD*
G04 #@! TA.AperFunction,ComponentPad*
%ADD12C,2.200000*%
G04 #@! TD*
G04 #@! TA.AperFunction,ComponentPad*
%ADD13R,2.200000X2.200000*%
G04 #@! TD*
G04 #@! TA.AperFunction,ViaPad*
%ADD14C,0.914400*%
G04 #@! TD*
G04 #@! TA.AperFunction,Conductor*
%ADD15C,0.254000*%
G04 #@! TD*
G04 APERTURE END LIST*
D10*
G04 #@! TO.P,J2,1*
G04 #@! TO.N,GND*
X111490000Y-120650000D03*
D11*
G04 #@! TO.P,J2,2*
G04 #@! TO.N,Net-(D1-Pad2)*
X109490000Y-120650000D03*
G04 #@! TD*
D12*
G04 #@! TO.P,S1,3*
G04 #@! TO.N,Net-(R6-Pad2)*
X116840000Y-94560000D03*
G04 #@! TO.P,S1,4*
X110340000Y-94560000D03*
G04 #@! TO.P,S1,2*
G04 #@! TO.N,GND*
X110340000Y-99060000D03*
D13*
G04 #@! TO.P,S1,1*
X116840000Y-99060000D03*
G04 #@! TD*
G04 #@! TO.P,S2,1*
G04 #@! TO.N,Net-(C4-Pad1)*
X121920000Y-94560000D03*
D12*
G04 #@! TO.P,S2,2*
X128420000Y-94560000D03*
G04 #@! TO.P,S2,4*
G04 #@! TO.N,GND*
X128420000Y-99060000D03*
G04 #@! TO.P,S2,3*
X121920000Y-99060000D03*
G04 #@! TD*
D14*
G04 #@! TO.N,GND*
X103759000Y-80518000D03*
X103632000Y-87757000D03*
X117856000Y-114935000D03*
X132842000Y-78613000D03*
X120904000Y-103759000D03*
X104902000Y-103378000D03*
X127508000Y-110236000D03*
G04 #@! TO.N,+3V3*
X115062000Y-109347000D03*
X107823000Y-90170000D03*
X104394000Y-84074000D03*
G04 #@! TO.N,SDA*
X118618000Y-103124000D03*
X123190000Y-108458000D03*
G04 #@! TO.N,Net-(D1-Pad2)*
X110490000Y-117221000D03*
G04 #@! TO.N,TXD*
X127000000Y-119634000D03*
X130175000Y-86487000D03*
G04 #@! TO.N,RXD*
X131953000Y-124841000D03*
X130175000Y-87884000D03*
G04 #@! TD*
D15*
G04 #@! TO.N,+3V3*
X104394000Y-84074000D02*
X105791000Y-84074000D01*
X107823000Y-86106000D02*
X107823000Y-90170000D01*
X105791000Y-84074000D02*
X107823000Y-86106000D01*
X107823000Y-102108000D02*
X115062000Y-109347000D01*
X107823000Y-90170000D02*
X107823000Y-102108000D01*
G04 #@! TO.N,SDA*
X123063000Y-108458000D02*
X123190000Y-108458000D01*
X118618000Y-103124000D02*
X118618000Y-104013000D01*
X118618000Y-104013000D02*
X123063000Y-108458000D01*
G04 #@! TO.N,Net-(D1-Pad2)*
X109490000Y-118221000D02*
X110490000Y-117221000D01*
X109490000Y-118221000D02*
X109490000Y-120650000D01*
G04 #@! TO.N,TXD*
X127457199Y-119176801D02*
X127000000Y-119634000D01*
X130556000Y-116078000D02*
X127457199Y-119176801D01*
X130556000Y-89916000D02*
X130556000Y-116078000D01*
X129159000Y-88519000D02*
X130556000Y-89916000D01*
X130175000Y-86487000D02*
X129159000Y-87503000D01*
X129159000Y-87503000D02*
X129159000Y-88519000D01*
G04 #@! TO.N,RXD*
X131064000Y-123952000D02*
X131953000Y-124841000D01*
X130175000Y-87884000D02*
X131064000Y-88773000D01*
X131064000Y-88773000D02*
X131064000Y-123952000D01*
G04 #@! TD*
G04 #@! TO.N,GND*
G36*
X136450001Y-126290000D02*
X102310000Y-126290000D01*
X102310000Y-120403548D01*
X108251000Y-120403548D01*
X108251000Y-120896452D01*
X108439627Y-121351837D01*
X108788163Y-121700373D01*
X109243548Y-121889000D01*
X109736452Y-121889000D01*
X110191837Y-121700373D01*
X110327416Y-121564794D01*
X110347673Y-121613699D01*
X110526302Y-121792327D01*
X110759691Y-121889000D01*
X111204250Y-121889000D01*
X111363000Y-121730250D01*
X111363000Y-120777000D01*
X111617000Y-120777000D01*
X111617000Y-121730250D01*
X111775750Y-121889000D01*
X112220309Y-121889000D01*
X112453698Y-121792327D01*
X112632327Y-121613699D01*
X112729000Y-121380310D01*
X112729000Y-120935750D01*
X112570250Y-120777000D01*
X111617000Y-120777000D01*
X111363000Y-120777000D01*
X111343000Y-120777000D01*
X111343000Y-120523000D01*
X111363000Y-120523000D01*
X111363000Y-119569750D01*
X111617000Y-119569750D01*
X111617000Y-120523000D01*
X112570250Y-120523000D01*
X112729000Y-120364250D01*
X112729000Y-119919690D01*
X112632327Y-119686301D01*
X112453698Y-119507673D01*
X112234186Y-119416748D01*
X125907800Y-119416748D01*
X125907800Y-119851252D01*
X126074078Y-120252681D01*
X126381319Y-120559922D01*
X126782748Y-120726200D01*
X127217252Y-120726200D01*
X127618681Y-120559922D01*
X127925922Y-120252681D01*
X128092200Y-119851252D01*
X128092200Y-119619430D01*
X130302001Y-117409630D01*
X130302001Y-123876952D01*
X130287073Y-123952000D01*
X130302001Y-124027048D01*
X130346213Y-124249317D01*
X130514630Y-124501371D01*
X130578251Y-124543881D01*
X130860800Y-124826430D01*
X130860800Y-125058252D01*
X131027078Y-125459681D01*
X131334319Y-125766922D01*
X131735748Y-125933200D01*
X132170252Y-125933200D01*
X132571681Y-125766922D01*
X132878922Y-125459681D01*
X133045200Y-125058252D01*
X133045200Y-124623748D01*
X132878922Y-124222319D01*
X132571681Y-123915078D01*
X132170252Y-123748800D01*
X131938430Y-123748800D01*
X131826000Y-123636370D01*
X131826000Y-88848047D01*
X131840928Y-88773000D01*
X131787158Y-88502681D01*
X131781788Y-88475683D01*
X131613371Y-88223629D01*
X131549750Y-88181119D01*
X131267200Y-87898569D01*
X131267200Y-87666748D01*
X131100922Y-87265319D01*
X131021103Y-87185500D01*
X131100922Y-87105681D01*
X131267200Y-86704252D01*
X131267200Y-86269748D01*
X131100922Y-85868319D01*
X130793681Y-85561078D01*
X130392252Y-85394800D01*
X129957748Y-85394800D01*
X129556319Y-85561078D01*
X129249078Y-85868319D01*
X129082800Y-86269748D01*
X129082800Y-86501570D01*
X128673253Y-86911117D01*
X128609629Y-86953629D01*
X128441212Y-87205684D01*
X128397000Y-87427953D01*
X128397000Y-87427957D01*
X128382073Y-87503000D01*
X128397000Y-87578044D01*
X128397001Y-88443952D01*
X128382073Y-88519000D01*
X128397001Y-88594048D01*
X128441213Y-88816317D01*
X128609630Y-89068371D01*
X128673251Y-89110881D01*
X129794000Y-90231631D01*
X129794000Y-93480339D01*
X129402799Y-93089138D01*
X128765113Y-92825000D01*
X128074887Y-92825000D01*
X127437201Y-93089138D01*
X126949138Y-93577201D01*
X126685000Y-94214887D01*
X126685000Y-94905113D01*
X126949138Y-95542799D01*
X127437201Y-96030862D01*
X128074887Y-96295000D01*
X128765113Y-96295000D01*
X129402799Y-96030862D01*
X129794000Y-95639661D01*
X129794000Y-98074396D01*
X129644868Y-98014737D01*
X128599605Y-99060000D01*
X129644868Y-100105263D01*
X129794000Y-100045604D01*
X129794001Y-115762368D01*
X127014570Y-118541800D01*
X126782748Y-118541800D01*
X126381319Y-118708078D01*
X126074078Y-119015319D01*
X125907800Y-119416748D01*
X112234186Y-119416748D01*
X112220309Y-119411000D01*
X111775750Y-119411000D01*
X111617000Y-119569750D01*
X111363000Y-119569750D01*
X111204250Y-119411000D01*
X110759691Y-119411000D01*
X110526302Y-119507673D01*
X110347673Y-119686301D01*
X110327416Y-119735206D01*
X110252000Y-119659790D01*
X110252000Y-118536630D01*
X110475430Y-118313200D01*
X110707252Y-118313200D01*
X111108681Y-118146922D01*
X111415922Y-117839681D01*
X111582200Y-117438252D01*
X111582200Y-117003748D01*
X111415922Y-116602319D01*
X111108681Y-116295078D01*
X110707252Y-116128800D01*
X110272748Y-116128800D01*
X109871319Y-116295078D01*
X109564078Y-116602319D01*
X109397800Y-117003748D01*
X109397800Y-117235570D01*
X109004253Y-117629117D01*
X108940629Y-117671629D01*
X108772212Y-117923684D01*
X108728000Y-118145953D01*
X108728000Y-118145957D01*
X108713073Y-118221000D01*
X108728000Y-118296043D01*
X108728001Y-119659789D01*
X108439627Y-119948163D01*
X108251000Y-120403548D01*
X102310000Y-120403548D01*
X102310000Y-83856748D01*
X103301800Y-83856748D01*
X103301800Y-84291252D01*
X103468078Y-84692681D01*
X103775319Y-84999922D01*
X104176748Y-85166200D01*
X104611252Y-85166200D01*
X105012681Y-84999922D01*
X105176603Y-84836000D01*
X105475370Y-84836000D01*
X107061000Y-86421631D01*
X107061001Y-89387396D01*
X106897078Y-89551319D01*
X106730800Y-89952748D01*
X106730800Y-90387252D01*
X106897078Y-90788681D01*
X107061000Y-90952603D01*
X107061001Y-102032952D01*
X107046073Y-102108000D01*
X107105213Y-102405317D01*
X107218344Y-102574629D01*
X107273630Y-102657371D01*
X107337251Y-102699881D01*
X113969800Y-109332431D01*
X113969800Y-109564252D01*
X114136078Y-109965681D01*
X114443319Y-110272922D01*
X114844748Y-110439200D01*
X115279252Y-110439200D01*
X115680681Y-110272922D01*
X115987922Y-109965681D01*
X116154200Y-109564252D01*
X116154200Y-109129748D01*
X115987922Y-108728319D01*
X115680681Y-108421078D01*
X115279252Y-108254800D01*
X115047431Y-108254800D01*
X109699379Y-102906748D01*
X117525800Y-102906748D01*
X117525800Y-103341252D01*
X117692078Y-103742681D01*
X117856001Y-103906604D01*
X117856001Y-103937953D01*
X117841073Y-104013000D01*
X117856001Y-104088048D01*
X117900213Y-104310317D01*
X118068630Y-104562371D01*
X118132251Y-104604881D01*
X122097800Y-108570431D01*
X122097800Y-108675252D01*
X122264078Y-109076681D01*
X122571319Y-109383922D01*
X122972748Y-109550200D01*
X123407252Y-109550200D01*
X123808681Y-109383922D01*
X124115922Y-109076681D01*
X124282200Y-108675252D01*
X124282200Y-108240748D01*
X124115922Y-107839319D01*
X123808681Y-107532078D01*
X123407252Y-107365800D01*
X123048431Y-107365800D01*
X119484617Y-103801986D01*
X119543922Y-103742681D01*
X119710200Y-103341252D01*
X119710200Y-102906748D01*
X119543922Y-102505319D01*
X119236681Y-102198078D01*
X118835252Y-102031800D01*
X118400748Y-102031800D01*
X117999319Y-102198078D01*
X117692078Y-102505319D01*
X117525800Y-102906748D01*
X109699379Y-102906748D01*
X108585000Y-101792370D01*
X108585000Y-100284868D01*
X109294737Y-100284868D01*
X109405641Y-100562099D01*
X110051593Y-100805323D01*
X110741453Y-100782836D01*
X111274359Y-100562099D01*
X111385263Y-100284868D01*
X110340000Y-99239605D01*
X109294737Y-100284868D01*
X108585000Y-100284868D01*
X108585000Y-98771593D01*
X108594677Y-98771593D01*
X108617164Y-99461453D01*
X108837901Y-99994359D01*
X109115132Y-100105263D01*
X110160395Y-99060000D01*
X110519605Y-99060000D01*
X111564868Y-100105263D01*
X111842099Y-99994359D01*
X112085323Y-99348407D01*
X112085237Y-99345750D01*
X115105000Y-99345750D01*
X115105000Y-100286310D01*
X115201673Y-100519699D01*
X115380302Y-100698327D01*
X115613691Y-100795000D01*
X116554250Y-100795000D01*
X116713000Y-100636250D01*
X116713000Y-99187000D01*
X116967000Y-99187000D01*
X116967000Y-100636250D01*
X117125750Y-100795000D01*
X118066309Y-100795000D01*
X118299698Y-100698327D01*
X118478327Y-100519699D01*
X118575000Y-100286310D01*
X118575000Y-100284868D01*
X120874737Y-100284868D01*
X120985641Y-100562099D01*
X121631593Y-100805323D01*
X122321453Y-100782836D01*
X122854359Y-100562099D01*
X122965263Y-100284868D01*
X127374737Y-100284868D01*
X127485641Y-100562099D01*
X128131593Y-100805323D01*
X128821453Y-100782836D01*
X129354359Y-100562099D01*
X129465263Y-100284868D01*
X128420000Y-99239605D01*
X127374737Y-100284868D01*
X122965263Y-100284868D01*
X121920000Y-99239605D01*
X120874737Y-100284868D01*
X118575000Y-100284868D01*
X118575000Y-99345750D01*
X118416250Y-99187000D01*
X116967000Y-99187000D01*
X116713000Y-99187000D01*
X115263750Y-99187000D01*
X115105000Y-99345750D01*
X112085237Y-99345750D01*
X112062836Y-98658547D01*
X111842099Y-98125641D01*
X111564868Y-98014737D01*
X110519605Y-99060000D01*
X110160395Y-99060000D01*
X109115132Y-98014737D01*
X108837901Y-98125641D01*
X108594677Y-98771593D01*
X108585000Y-98771593D01*
X108585000Y-97835132D01*
X109294737Y-97835132D01*
X110340000Y-98880395D01*
X111385263Y-97835132D01*
X111384687Y-97833690D01*
X115105000Y-97833690D01*
X115105000Y-98774250D01*
X115263750Y-98933000D01*
X116713000Y-98933000D01*
X116713000Y-97483750D01*
X116967000Y-97483750D01*
X116967000Y-98933000D01*
X118416250Y-98933000D01*
X118575000Y-98774250D01*
X118575000Y-98771593D01*
X120174677Y-98771593D01*
X120197164Y-99461453D01*
X120417901Y-99994359D01*
X120695132Y-100105263D01*
X121740395Y-99060000D01*
X122099605Y-99060000D01*
X123144868Y-100105263D01*
X123422099Y-99994359D01*
X123665323Y-99348407D01*
X123646521Y-98771593D01*
X126674677Y-98771593D01*
X126697164Y-99461453D01*
X126917901Y-99994359D01*
X127195132Y-100105263D01*
X128240395Y-99060000D01*
X127195132Y-98014737D01*
X126917901Y-98125641D01*
X126674677Y-98771593D01*
X123646521Y-98771593D01*
X123642836Y-98658547D01*
X123422099Y-98125641D01*
X123144868Y-98014737D01*
X122099605Y-99060000D01*
X121740395Y-99060000D01*
X120695132Y-98014737D01*
X120417901Y-98125641D01*
X120174677Y-98771593D01*
X118575000Y-98771593D01*
X118575000Y-97835132D01*
X120874737Y-97835132D01*
X121920000Y-98880395D01*
X122965263Y-97835132D01*
X127374737Y-97835132D01*
X128420000Y-98880395D01*
X129465263Y-97835132D01*
X129354359Y-97557901D01*
X128708407Y-97314677D01*
X128018547Y-97337164D01*
X127485641Y-97557901D01*
X127374737Y-97835132D01*
X122965263Y-97835132D01*
X122854359Y-97557901D01*
X122208407Y-97314677D01*
X121518547Y-97337164D01*
X120985641Y-97557901D01*
X120874737Y-97835132D01*
X118575000Y-97835132D01*
X118575000Y-97833690D01*
X118478327Y-97600301D01*
X118299698Y-97421673D01*
X118066309Y-97325000D01*
X117125750Y-97325000D01*
X116967000Y-97483750D01*
X116713000Y-97483750D01*
X116554250Y-97325000D01*
X115613691Y-97325000D01*
X115380302Y-97421673D01*
X115201673Y-97600301D01*
X115105000Y-97833690D01*
X111384687Y-97833690D01*
X111274359Y-97557901D01*
X110628407Y-97314677D01*
X109938547Y-97337164D01*
X109405641Y-97557901D01*
X109294737Y-97835132D01*
X108585000Y-97835132D01*
X108585000Y-94214887D01*
X108605000Y-94214887D01*
X108605000Y-94905113D01*
X108869138Y-95542799D01*
X109357201Y-96030862D01*
X109994887Y-96295000D01*
X110685113Y-96295000D01*
X111322799Y-96030862D01*
X111810862Y-95542799D01*
X112075000Y-94905113D01*
X112075000Y-94214887D01*
X115105000Y-94214887D01*
X115105000Y-94905113D01*
X115369138Y-95542799D01*
X115857201Y-96030862D01*
X116494887Y-96295000D01*
X117185113Y-96295000D01*
X117822799Y-96030862D01*
X118310862Y-95542799D01*
X118575000Y-94905113D01*
X118575000Y-94214887D01*
X118310862Y-93577201D01*
X118193661Y-93460000D01*
X120172560Y-93460000D01*
X120172560Y-95660000D01*
X120221843Y-95907765D01*
X120362191Y-96117809D01*
X120572235Y-96258157D01*
X120820000Y-96307440D01*
X123020000Y-96307440D01*
X123267765Y-96258157D01*
X123477809Y-96117809D01*
X123618157Y-95907765D01*
X123667440Y-95660000D01*
X123667440Y-93460000D01*
X123618157Y-93212235D01*
X123477809Y-93002191D01*
X123267765Y-92861843D01*
X123020000Y-92812560D01*
X120820000Y-92812560D01*
X120572235Y-92861843D01*
X120362191Y-93002191D01*
X120221843Y-93212235D01*
X120172560Y-93460000D01*
X118193661Y-93460000D01*
X117822799Y-93089138D01*
X117185113Y-92825000D01*
X116494887Y-92825000D01*
X115857201Y-93089138D01*
X115369138Y-93577201D01*
X115105000Y-94214887D01*
X112075000Y-94214887D01*
X111810862Y-93577201D01*
X111322799Y-93089138D01*
X110685113Y-92825000D01*
X109994887Y-92825000D01*
X109357201Y-93089138D01*
X108869138Y-93577201D01*
X108605000Y-94214887D01*
X108585000Y-94214887D01*
X108585000Y-90952603D01*
X108748922Y-90788681D01*
X108915200Y-90387252D01*
X108915200Y-89952748D01*
X108748922Y-89551319D01*
X108585000Y-89387397D01*
X108585000Y-86181043D01*
X108599927Y-86106000D01*
X108585000Y-86030957D01*
X108585000Y-86030952D01*
X108540788Y-85808683D01*
X108372371Y-85556629D01*
X108308750Y-85514119D01*
X106382883Y-83588253D01*
X106340371Y-83524629D01*
X106088317Y-83356212D01*
X105866048Y-83312000D01*
X105866043Y-83312000D01*
X105791000Y-83297073D01*
X105715957Y-83312000D01*
X105176603Y-83312000D01*
X105012681Y-83148078D01*
X104611252Y-82981800D01*
X104176748Y-82981800D01*
X103775319Y-83148078D01*
X103468078Y-83455319D01*
X103301800Y-83856748D01*
X102310000Y-83856748D01*
X102310000Y-76910000D01*
X136450000Y-76910000D01*
X136450001Y-126290000D01*
X136450001Y-126290000D01*
G37*
X136450001Y-126290000D02*
X102310000Y-126290000D01*
X102310000Y-120403548D01*
X108251000Y-120403548D01*
X108251000Y-120896452D01*
X108439627Y-121351837D01*
X108788163Y-121700373D01*
X109243548Y-121889000D01*
X109736452Y-121889000D01*
X110191837Y-121700373D01*
X110327416Y-121564794D01*
X110347673Y-121613699D01*
X110526302Y-121792327D01*
X110759691Y-121889000D01*
X111204250Y-121889000D01*
X111363000Y-121730250D01*
X111363000Y-120777000D01*
X111617000Y-120777000D01*
X111617000Y-121730250D01*
X111775750Y-121889000D01*
X112220309Y-121889000D01*
X112453698Y-121792327D01*
X112632327Y-121613699D01*
X112729000Y-121380310D01*
X112729000Y-120935750D01*
X112570250Y-120777000D01*
X111617000Y-120777000D01*
X111363000Y-120777000D01*
X111343000Y-120777000D01*
X111343000Y-120523000D01*
X111363000Y-120523000D01*
X111363000Y-119569750D01*
X111617000Y-119569750D01*
X111617000Y-120523000D01*
X112570250Y-120523000D01*
X112729000Y-120364250D01*
X112729000Y-119919690D01*
X112632327Y-119686301D01*
X112453698Y-119507673D01*
X112234186Y-119416748D01*
X125907800Y-119416748D01*
X125907800Y-119851252D01*
X126074078Y-120252681D01*
X126381319Y-120559922D01*
X126782748Y-120726200D01*
X127217252Y-120726200D01*
X127618681Y-120559922D01*
X127925922Y-120252681D01*
X128092200Y-119851252D01*
X128092200Y-119619430D01*
X130302001Y-117409630D01*
X130302001Y-123876952D01*
X130287073Y-123952000D01*
X130302001Y-124027048D01*
X130346213Y-124249317D01*
X130514630Y-124501371D01*
X130578251Y-124543881D01*
X130860800Y-124826430D01*
X130860800Y-125058252D01*
X131027078Y-125459681D01*
X131334319Y-125766922D01*
X131735748Y-125933200D01*
X132170252Y-125933200D01*
X132571681Y-125766922D01*
X132878922Y-125459681D01*
X133045200Y-125058252D01*
X133045200Y-124623748D01*
X132878922Y-124222319D01*
X132571681Y-123915078D01*
X132170252Y-123748800D01*
X131938430Y-123748800D01*
X131826000Y-123636370D01*
X131826000Y-88848047D01*
X131840928Y-88773000D01*
X131787158Y-88502681D01*
X131781788Y-88475683D01*
X131613371Y-88223629D01*
X131549750Y-88181119D01*
X131267200Y-87898569D01*
X131267200Y-87666748D01*
X131100922Y-87265319D01*
X131021103Y-87185500D01*
X131100922Y-87105681D01*
X131267200Y-86704252D01*
X131267200Y-86269748D01*
X131100922Y-85868319D01*
X130793681Y-85561078D01*
X130392252Y-85394800D01*
X129957748Y-85394800D01*
X129556319Y-85561078D01*
X129249078Y-85868319D01*
X129082800Y-86269748D01*
X129082800Y-86501570D01*
X128673253Y-86911117D01*
X128609629Y-86953629D01*
X128441212Y-87205684D01*
X128397000Y-87427953D01*
X128397000Y-87427957D01*
X128382073Y-87503000D01*
X128397000Y-87578044D01*
X128397001Y-88443952D01*
X128382073Y-88519000D01*
X128397001Y-88594048D01*
X128441213Y-88816317D01*
X128609630Y-89068371D01*
X128673251Y-89110881D01*
X129794000Y-90231631D01*
X129794000Y-93480339D01*
X129402799Y-93089138D01*
X128765113Y-92825000D01*
X128074887Y-92825000D01*
X127437201Y-93089138D01*
X126949138Y-93577201D01*
X126685000Y-94214887D01*
X126685000Y-94905113D01*
X126949138Y-95542799D01*
X127437201Y-96030862D01*
X128074887Y-96295000D01*
X128765113Y-96295000D01*
X129402799Y-96030862D01*
X129794000Y-95639661D01*
X129794000Y-98074396D01*
X129644868Y-98014737D01*
X128599605Y-99060000D01*
X129644868Y-100105263D01*
X129794000Y-100045604D01*
X129794001Y-115762368D01*
X127014570Y-118541800D01*
X126782748Y-118541800D01*
X126381319Y-118708078D01*
X126074078Y-119015319D01*
X125907800Y-119416748D01*
X112234186Y-119416748D01*
X112220309Y-119411000D01*
X111775750Y-119411000D01*
X111617000Y-119569750D01*
X111363000Y-119569750D01*
X111204250Y-119411000D01*
X110759691Y-119411000D01*
X110526302Y-119507673D01*
X110347673Y-119686301D01*
X110327416Y-119735206D01*
X110252000Y-119659790D01*
X110252000Y-118536630D01*
X110475430Y-118313200D01*
X110707252Y-118313200D01*
X111108681Y-118146922D01*
X111415922Y-117839681D01*
X111582200Y-117438252D01*
X111582200Y-117003748D01*
X111415922Y-116602319D01*
X111108681Y-116295078D01*
X110707252Y-116128800D01*
X110272748Y-116128800D01*
X109871319Y-116295078D01*
X109564078Y-116602319D01*
X109397800Y-117003748D01*
X109397800Y-117235570D01*
X109004253Y-117629117D01*
X108940629Y-117671629D01*
X108772212Y-117923684D01*
X108728000Y-118145953D01*
X108728000Y-118145957D01*
X108713073Y-118221000D01*
X108728000Y-118296043D01*
X108728001Y-119659789D01*
X108439627Y-119948163D01*
X108251000Y-120403548D01*
X102310000Y-120403548D01*
X102310000Y-83856748D01*
X103301800Y-83856748D01*
X103301800Y-84291252D01*
X103468078Y-84692681D01*
X103775319Y-84999922D01*
X104176748Y-85166200D01*
X104611252Y-85166200D01*
X105012681Y-84999922D01*
X105176603Y-84836000D01*
X105475370Y-84836000D01*
X107061000Y-86421631D01*
X107061001Y-89387396D01*
X106897078Y-89551319D01*
X106730800Y-89952748D01*
X106730800Y-90387252D01*
X106897078Y-90788681D01*
X107061000Y-90952603D01*
X107061001Y-102032952D01*
X107046073Y-102108000D01*
X107105213Y-102405317D01*
X107218344Y-102574629D01*
X107273630Y-102657371D01*
X107337251Y-102699881D01*
X113969800Y-109332431D01*
X113969800Y-109564252D01*
X114136078Y-109965681D01*
X114443319Y-110272922D01*
X114844748Y-110439200D01*
X115279252Y-110439200D01*
X115680681Y-110272922D01*
X115987922Y-109965681D01*
X116154200Y-109564252D01*
X116154200Y-109129748D01*
X115987922Y-108728319D01*
X115680681Y-108421078D01*
X115279252Y-108254800D01*
X115047431Y-108254800D01*
X109699379Y-102906748D01*
X117525800Y-102906748D01*
X117525800Y-103341252D01*
X117692078Y-103742681D01*
X117856001Y-103906604D01*
X117856001Y-103937953D01*
X117841073Y-104013000D01*
X117856001Y-104088048D01*
X117900213Y-104310317D01*
X118068630Y-104562371D01*
X118132251Y-104604881D01*
X122097800Y-108570431D01*
X122097800Y-108675252D01*
X122264078Y-109076681D01*
X122571319Y-109383922D01*
X122972748Y-109550200D01*
X123407252Y-109550200D01*
X123808681Y-109383922D01*
X124115922Y-109076681D01*
X124282200Y-108675252D01*
X124282200Y-108240748D01*
X124115922Y-107839319D01*
X123808681Y-107532078D01*
X123407252Y-107365800D01*
X123048431Y-107365800D01*
X119484617Y-103801986D01*
X119543922Y-103742681D01*
X119710200Y-103341252D01*
X119710200Y-102906748D01*
X119543922Y-102505319D01*
X119236681Y-102198078D01*
X118835252Y-102031800D01*
X118400748Y-102031800D01*
X117999319Y-102198078D01*
X117692078Y-102505319D01*
X117525800Y-102906748D01*
X109699379Y-102906748D01*
X108585000Y-101792370D01*
X108585000Y-100284868D01*
X109294737Y-100284868D01*
X109405641Y-100562099D01*
X110051593Y-100805323D01*
X110741453Y-100782836D01*
X111274359Y-100562099D01*
X111385263Y-100284868D01*
X110340000Y-99239605D01*
X109294737Y-100284868D01*
X108585000Y-100284868D01*
X108585000Y-98771593D01*
X108594677Y-98771593D01*
X108617164Y-99461453D01*
X108837901Y-99994359D01*
X109115132Y-100105263D01*
X110160395Y-99060000D01*
X110519605Y-99060000D01*
X111564868Y-100105263D01*
X111842099Y-99994359D01*
X112085323Y-99348407D01*
X112085237Y-99345750D01*
X115105000Y-99345750D01*
X115105000Y-100286310D01*
X115201673Y-100519699D01*
X115380302Y-100698327D01*
X115613691Y-100795000D01*
X116554250Y-100795000D01*
X116713000Y-100636250D01*
X116713000Y-99187000D01*
X116967000Y-99187000D01*
X116967000Y-100636250D01*
X117125750Y-100795000D01*
X118066309Y-100795000D01*
X118299698Y-100698327D01*
X118478327Y-100519699D01*
X118575000Y-100286310D01*
X118575000Y-100284868D01*
X120874737Y-100284868D01*
X120985641Y-100562099D01*
X121631593Y-100805323D01*
X122321453Y-100782836D01*
X122854359Y-100562099D01*
X122965263Y-100284868D01*
X127374737Y-100284868D01*
X127485641Y-100562099D01*
X128131593Y-100805323D01*
X128821453Y-100782836D01*
X129354359Y-100562099D01*
X129465263Y-100284868D01*
X128420000Y-99239605D01*
X127374737Y-100284868D01*
X122965263Y-100284868D01*
X121920000Y-99239605D01*
X120874737Y-100284868D01*
X118575000Y-100284868D01*
X118575000Y-99345750D01*
X118416250Y-99187000D01*
X116967000Y-99187000D01*
X116713000Y-99187000D01*
X115263750Y-99187000D01*
X115105000Y-99345750D01*
X112085237Y-99345750D01*
X112062836Y-98658547D01*
X111842099Y-98125641D01*
X111564868Y-98014737D01*
X110519605Y-99060000D01*
X110160395Y-99060000D01*
X109115132Y-98014737D01*
X108837901Y-98125641D01*
X108594677Y-98771593D01*
X108585000Y-98771593D01*
X108585000Y-97835132D01*
X109294737Y-97835132D01*
X110340000Y-98880395D01*
X111385263Y-97835132D01*
X111384687Y-97833690D01*
X115105000Y-97833690D01*
X115105000Y-98774250D01*
X115263750Y-98933000D01*
X116713000Y-98933000D01*
X116713000Y-97483750D01*
X116967000Y-97483750D01*
X116967000Y-98933000D01*
X118416250Y-98933000D01*
X118575000Y-98774250D01*
X118575000Y-98771593D01*
X120174677Y-98771593D01*
X120197164Y-99461453D01*
X120417901Y-99994359D01*
X120695132Y-100105263D01*
X121740395Y-99060000D01*
X122099605Y-99060000D01*
X123144868Y-100105263D01*
X123422099Y-99994359D01*
X123665323Y-99348407D01*
X123646521Y-98771593D01*
X126674677Y-98771593D01*
X126697164Y-99461453D01*
X126917901Y-99994359D01*
X127195132Y-100105263D01*
X128240395Y-99060000D01*
X127195132Y-98014737D01*
X126917901Y-98125641D01*
X126674677Y-98771593D01*
X123646521Y-98771593D01*
X123642836Y-98658547D01*
X123422099Y-98125641D01*
X123144868Y-98014737D01*
X122099605Y-99060000D01*
X121740395Y-99060000D01*
X120695132Y-98014737D01*
X120417901Y-98125641D01*
X120174677Y-98771593D01*
X118575000Y-98771593D01*
X118575000Y-97835132D01*
X120874737Y-97835132D01*
X121920000Y-98880395D01*
X122965263Y-97835132D01*
X127374737Y-97835132D01*
X128420000Y-98880395D01*
X129465263Y-97835132D01*
X129354359Y-97557901D01*
X128708407Y-97314677D01*
X128018547Y-97337164D01*
X127485641Y-97557901D01*
X127374737Y-97835132D01*
X122965263Y-97835132D01*
X122854359Y-97557901D01*
X122208407Y-97314677D01*
X121518547Y-97337164D01*
X120985641Y-97557901D01*
X120874737Y-97835132D01*
X118575000Y-97835132D01*
X118575000Y-97833690D01*
X118478327Y-97600301D01*
X118299698Y-97421673D01*
X118066309Y-97325000D01*
X117125750Y-97325000D01*
X116967000Y-97483750D01*
X116713000Y-97483750D01*
X116554250Y-97325000D01*
X115613691Y-97325000D01*
X115380302Y-97421673D01*
X115201673Y-97600301D01*
X115105000Y-97833690D01*
X111384687Y-97833690D01*
X111274359Y-97557901D01*
X110628407Y-97314677D01*
X109938547Y-97337164D01*
X109405641Y-97557901D01*
X109294737Y-97835132D01*
X108585000Y-97835132D01*
X108585000Y-94214887D01*
X108605000Y-94214887D01*
X108605000Y-94905113D01*
X108869138Y-95542799D01*
X109357201Y-96030862D01*
X109994887Y-96295000D01*
X110685113Y-96295000D01*
X111322799Y-96030862D01*
X111810862Y-95542799D01*
X112075000Y-94905113D01*
X112075000Y-94214887D01*
X115105000Y-94214887D01*
X115105000Y-94905113D01*
X115369138Y-95542799D01*
X115857201Y-96030862D01*
X116494887Y-96295000D01*
X117185113Y-96295000D01*
X117822799Y-96030862D01*
X118310862Y-95542799D01*
X118575000Y-94905113D01*
X118575000Y-94214887D01*
X118310862Y-93577201D01*
X118193661Y-93460000D01*
X120172560Y-93460000D01*
X120172560Y-95660000D01*
X120221843Y-95907765D01*
X120362191Y-96117809D01*
X120572235Y-96258157D01*
X120820000Y-96307440D01*
X123020000Y-96307440D01*
X123267765Y-96258157D01*
X123477809Y-96117809D01*
X123618157Y-95907765D01*
X123667440Y-95660000D01*
X123667440Y-93460000D01*
X123618157Y-93212235D01*
X123477809Y-93002191D01*
X123267765Y-92861843D01*
X123020000Y-92812560D01*
X120820000Y-92812560D01*
X120572235Y-92861843D01*
X120362191Y-93002191D01*
X120221843Y-93212235D01*
X120172560Y-93460000D01*
X118193661Y-93460000D01*
X117822799Y-93089138D01*
X117185113Y-92825000D01*
X116494887Y-92825000D01*
X115857201Y-93089138D01*
X115369138Y-93577201D01*
X115105000Y-94214887D01*
X112075000Y-94214887D01*
X111810862Y-93577201D01*
X111322799Y-93089138D01*
X110685113Y-92825000D01*
X109994887Y-92825000D01*
X109357201Y-93089138D01*
X108869138Y-93577201D01*
X108605000Y-94214887D01*
X108585000Y-94214887D01*
X108585000Y-90952603D01*
X108748922Y-90788681D01*
X108915200Y-90387252D01*
X108915200Y-89952748D01*
X108748922Y-89551319D01*
X108585000Y-89387397D01*
X108585000Y-86181043D01*
X108599927Y-86106000D01*
X108585000Y-86030957D01*
X108585000Y-86030952D01*
X108540788Y-85808683D01*
X108372371Y-85556629D01*
X108308750Y-85514119D01*
X106382883Y-83588253D01*
X106340371Y-83524629D01*
X106088317Y-83356212D01*
X105866048Y-83312000D01*
X105866043Y-83312000D01*
X105791000Y-83297073D01*
X105715957Y-83312000D01*
X105176603Y-83312000D01*
X105012681Y-83148078D01*
X104611252Y-82981800D01*
X104176748Y-82981800D01*
X103775319Y-83148078D01*
X103468078Y-83455319D01*
X103301800Y-83856748D01*
X102310000Y-83856748D01*
X102310000Y-76910000D01*
X136450000Y-76910000D01*
X136450001Y-126290000D01*
G04 #@! TD*
M02*
